<mxfile host="Electron" agent="Mozilla/5.0 (Windows NT 10.0; Win64; x64) AppleWebKit/537.36 (KHTML, like Gecko) draw.io/27.0.9 Chrome/134.0.6998.205 Electron/35.4.0 Safari/537.36" version="27.0.9">
  <diagram name="Page-1" id="2w_PLD3HFTEocwpgAvoh">
    <mxGraphModel dx="2549" dy="701" grid="1" gridSize="10" guides="1" tooltips="1" connect="1" arrows="1" fold="1" page="1" pageScale="1" pageWidth="827" pageHeight="1169" math="0" shadow="0">
      <root>
        <mxCell id="0" />
        <mxCell id="1" parent="0" />
        <mxCell id="ZvJXKDiQZ_GDw80UsZBy-3" value="" style="edgeStyle=orthogonalEdgeStyle;rounded=0;orthogonalLoop=1;jettySize=auto;html=1;" edge="1" parent="1" source="ZvJXKDiQZ_GDw80UsZBy-1" target="ZvJXKDiQZ_GDw80UsZBy-2">
          <mxGeometry relative="1" as="geometry" />
        </mxCell>
        <mxCell id="ZvJXKDiQZ_GDw80UsZBy-1" value="LTE&amp;nbsp;" style="rounded=1;whiteSpace=wrap;html=1;fillColor=#ffe6cc;strokeColor=#d79b00;" vertex="1" parent="1">
          <mxGeometry x="240" y="330" width="120" height="60" as="geometry" />
        </mxCell>
        <mxCell id="ZvJXKDiQZ_GDw80UsZBy-5" value="" style="edgeStyle=orthogonalEdgeStyle;rounded=0;orthogonalLoop=1;jettySize=auto;html=1;" edge="1" parent="1" source="ZvJXKDiQZ_GDw80UsZBy-2" target="ZvJXKDiQZ_GDw80UsZBy-4">
          <mxGeometry relative="1" as="geometry" />
        </mxCell>
        <mxCell id="ZvJXKDiQZ_GDw80UsZBy-2" value="5G" style="whiteSpace=wrap;html=1;rounded=1;fillColor=#ffe6cc;strokeColor=#d79b00;" vertex="1" parent="1">
          <mxGeometry x="400" y="330" width="120" height="60" as="geometry" />
        </mxCell>
        <mxCell id="ZvJXKDiQZ_GDw80UsZBy-4" value="6G&amp;nbsp;" style="whiteSpace=wrap;html=1;rounded=1;fillColor=#fff2cc;strokeColor=#d6b656;" vertex="1" parent="1">
          <mxGeometry x="600" y="330" width="120" height="60" as="geometry" />
        </mxCell>
        <mxCell id="ZvJXKDiQZ_GDw80UsZBy-59" value="" style="edgeStyle=orthogonalEdgeStyle;rounded=0;orthogonalLoop=1;jettySize=auto;html=1;" edge="1" parent="1" source="ZvJXKDiQZ_GDw80UsZBy-6" target="ZvJXKDiQZ_GDw80UsZBy-58">
          <mxGeometry relative="1" as="geometry" />
        </mxCell>
        <mxCell id="ZvJXKDiQZ_GDw80UsZBy-61" style="edgeStyle=orthogonalEdgeStyle;rounded=0;orthogonalLoop=1;jettySize=auto;html=1;entryX=0.5;entryY=0;entryDx=0;entryDy=0;" edge="1" parent="1" source="ZvJXKDiQZ_GDw80UsZBy-6" target="ZvJXKDiQZ_GDw80UsZBy-60">
          <mxGeometry relative="1" as="geometry" />
        </mxCell>
        <mxCell id="ZvJXKDiQZ_GDw80UsZBy-6" value="OPEN RAN" style="rounded=1;whiteSpace=wrap;html=1;fillColor=#dae8fc;strokeColor=#6c8ebf;" vertex="1" parent="1">
          <mxGeometry x="410" y="400" width="310" height="40" as="geometry" />
        </mxCell>
        <mxCell id="ZvJXKDiQZ_GDw80UsZBy-7" value="" style="fontColor=#0066CC;verticalAlign=top;verticalLabelPosition=bottom;labelPosition=center;align=center;html=1;outlineConnect=0;fillColor=#CCCCCC;strokeColor=#6881B3;gradientColor=none;gradientDirection=north;strokeWidth=2;shape=mxgraph.networks.radio_tower;" vertex="1" parent="1">
          <mxGeometry x="600" y="500" width="55" height="100" as="geometry" />
        </mxCell>
        <mxCell id="ZvJXKDiQZ_GDw80UsZBy-11" style="edgeStyle=orthogonalEdgeStyle;rounded=0;orthogonalLoop=1;jettySize=auto;html=1;" edge="1" parent="1" source="ZvJXKDiQZ_GDw80UsZBy-8">
          <mxGeometry relative="1" as="geometry">
            <mxPoint x="300" y="544" as="targetPoint" />
          </mxGeometry>
        </mxCell>
        <mxCell id="ZvJXKDiQZ_GDw80UsZBy-8" value="CORE&amp;nbsp;" style="shape=cylinder3;whiteSpace=wrap;html=1;boundedLbl=1;backgroundOutline=1;size=15;fillColor=#dae8fc;strokeColor=#6c8ebf;" vertex="1" parent="1">
          <mxGeometry x="150" y="504" width="60" height="80" as="geometry" />
        </mxCell>
        <mxCell id="ZvJXKDiQZ_GDw80UsZBy-9" value="RAN" style="shape=cylinder3;whiteSpace=wrap;html=1;boundedLbl=1;backgroundOutline=1;size=15;fillColor=#ffe6cc;strokeColor=#d79b00;" vertex="1" parent="1">
          <mxGeometry x="310" y="510" width="60" height="80" as="geometry" />
        </mxCell>
        <mxCell id="ZvJXKDiQZ_GDw80UsZBy-13" style="edgeStyle=orthogonalEdgeStyle;rounded=0;orthogonalLoop=1;jettySize=auto;html=1;" edge="1" parent="1" source="ZvJXKDiQZ_GDw80UsZBy-10" target="ZvJXKDiQZ_GDw80UsZBy-7">
          <mxGeometry relative="1" as="geometry" />
        </mxCell>
        <mxCell id="ZvJXKDiQZ_GDw80UsZBy-10" value="BTS" style="shape=cube;whiteSpace=wrap;html=1;boundedLbl=1;backgroundOutline=1;darkOpacity=0.05;darkOpacity2=0.1;fillColor=#fff2cc;strokeColor=#d6b656;" vertex="1" parent="1">
          <mxGeometry x="430" y="510" width="120" height="80" as="geometry" />
        </mxCell>
        <mxCell id="ZvJXKDiQZ_GDw80UsZBy-12" style="edgeStyle=orthogonalEdgeStyle;rounded=0;orthogonalLoop=1;jettySize=auto;html=1;entryX=0;entryY=0.5;entryDx=0;entryDy=0;entryPerimeter=0;" edge="1" parent="1" source="ZvJXKDiQZ_GDw80UsZBy-9" target="ZvJXKDiQZ_GDw80UsZBy-10">
          <mxGeometry relative="1" as="geometry" />
        </mxCell>
        <mxCell id="ZvJXKDiQZ_GDw80UsZBy-14" value="Nokia" style="text;html=1;align=center;verticalAlign=middle;whiteSpace=wrap;rounded=0;" vertex="1" parent="1">
          <mxGeometry x="150" y="470" width="60" height="30" as="geometry" />
        </mxCell>
        <mxCell id="ZvJXKDiQZ_GDw80UsZBy-15" value="Nokia" style="text;html=1;align=center;verticalAlign=middle;whiteSpace=wrap;rounded=0;" vertex="1" parent="1">
          <mxGeometry x="300" y="474" width="60" height="30" as="geometry" />
        </mxCell>
        <mxCell id="ZvJXKDiQZ_GDw80UsZBy-16" value="Nokia" style="text;html=1;align=center;verticalAlign=middle;whiteSpace=wrap;rounded=0;" vertex="1" parent="1">
          <mxGeometry x="450" y="474" width="60" height="30" as="geometry" />
        </mxCell>
        <mxCell id="ZvJXKDiQZ_GDw80UsZBy-17" value="Nokia" style="text;html=1;align=center;verticalAlign=middle;whiteSpace=wrap;rounded=0;" vertex="1" parent="1">
          <mxGeometry x="650" y="550" width="60" height="30" as="geometry" />
        </mxCell>
        <mxCell id="ZvJXKDiQZ_GDw80UsZBy-19" value="Vendor Specific" style="rounded=0;whiteSpace=wrap;html=1;fillColor=#ffe6cc;strokeColor=#d79b00;" vertex="1" parent="1">
          <mxGeometry x="150" y="610" width="490" height="20" as="geometry" />
        </mxCell>
        <mxCell id="ZvJXKDiQZ_GDw80UsZBy-20" value="Vendor Locking&amp;nbsp;" style="text;html=1;align=center;verticalAlign=middle;whiteSpace=wrap;rounded=0;" vertex="1" parent="1">
          <mxGeometry x="480" y="450" width="180" height="30" as="geometry" />
        </mxCell>
        <mxCell id="ZvJXKDiQZ_GDw80UsZBy-26" value="" style="edgeStyle=orthogonalEdgeStyle;rounded=0;orthogonalLoop=1;jettySize=auto;html=1;" edge="1" parent="1" source="ZvJXKDiQZ_GDw80UsZBy-22" target="ZvJXKDiQZ_GDw80UsZBy-25">
          <mxGeometry relative="1" as="geometry" />
        </mxCell>
        <mxCell id="ZvJXKDiQZ_GDw80UsZBy-22" value="" style="fontColor=#0066CC;verticalAlign=top;verticalLabelPosition=bottom;labelPosition=center;align=center;html=1;outlineConnect=0;fillColor=#CCCCCC;strokeColor=#6881B3;gradientColor=none;gradientDirection=north;strokeWidth=2;shape=mxgraph.networks.pc;" vertex="1" parent="1">
          <mxGeometry x="-80" y="220" width="100" height="70" as="geometry" />
        </mxCell>
        <mxCell id="ZvJXKDiQZ_GDw80UsZBy-28" value="" style="edgeStyle=orthogonalEdgeStyle;rounded=0;orthogonalLoop=1;jettySize=auto;html=1;" edge="1" parent="1" source="ZvJXKDiQZ_GDw80UsZBy-23" target="ZvJXKDiQZ_GDw80UsZBy-27">
          <mxGeometry relative="1" as="geometry" />
        </mxCell>
        <mxCell id="ZvJXKDiQZ_GDw80UsZBy-23" value="" style="shape=mxgraph.cisco.computers_and_peripherals.laptop;html=1;pointerEvents=1;dashed=0;fillColor=#036897;strokeColor=#ffffff;strokeWidth=2;verticalLabelPosition=bottom;verticalAlign=top;align=center;outlineConnect=0;" vertex="1" parent="1">
          <mxGeometry x="-80" y="350" width="90" height="61" as="geometry" />
        </mxCell>
        <mxCell id="ZvJXKDiQZ_GDw80UsZBy-30" value="" style="edgeStyle=orthogonalEdgeStyle;rounded=0;orthogonalLoop=1;jettySize=auto;html=1;" edge="1" parent="1" source="ZvJXKDiQZ_GDw80UsZBy-24" target="ZvJXKDiQZ_GDw80UsZBy-29">
          <mxGeometry relative="1" as="geometry" />
        </mxCell>
        <mxCell id="ZvJXKDiQZ_GDw80UsZBy-24" value="" style="shape=mxgraph.cisco.computers_and_peripherals.laptop;html=1;pointerEvents=1;dashed=0;fillColor=#036897;strokeColor=#ffffff;strokeWidth=2;verticalLabelPosition=bottom;verticalAlign=top;align=center;outlineConnect=0;" vertex="1" parent="1">
          <mxGeometry x="-90" y="458.5" width="90" height="61" as="geometry" />
        </mxCell>
        <mxCell id="ZvJXKDiQZ_GDw80UsZBy-25" value="Assembled&lt;div&gt;multi&amp;nbsp;&amp;nbsp;&lt;/div&gt;" style="whiteSpace=wrap;html=1;verticalAlign=top;fillColor=#CCCCCC;strokeColor=#6881B3;fontColor=#0066CC;gradientColor=none;gradientDirection=north;strokeWidth=2;" vertex="1" parent="1">
          <mxGeometry x="60" y="232.5" width="80" height="45" as="geometry" />
        </mxCell>
        <mxCell id="ZvJXKDiQZ_GDw80UsZBy-27" value="Dell / Lenovo&amp;nbsp;" style="whiteSpace=wrap;html=1;verticalAlign=top;fillColor=#036897;strokeColor=#ffffff;pointerEvents=1;dashed=0;strokeWidth=2;" vertex="1" parent="1">
          <mxGeometry x="60" y="320" width="90" height="40" as="geometry" />
        </mxCell>
        <mxCell id="ZvJXKDiQZ_GDw80UsZBy-29" value="Apple&amp;nbsp;" style="whiteSpace=wrap;html=1;verticalAlign=top;fillColor=#036897;strokeColor=#ffffff;pointerEvents=1;dashed=0;strokeWidth=2;" vertex="1" parent="1">
          <mxGeometry x="45" y="398.5" width="120" height="60" as="geometry" />
        </mxCell>
        <mxCell id="ZvJXKDiQZ_GDw80UsZBy-32" style="edgeStyle=orthogonalEdgeStyle;rounded=0;orthogonalLoop=1;jettySize=auto;html=1;entryX=1;entryY=0.5;entryDx=0;entryDy=0;" edge="1" parent="1" source="ZvJXKDiQZ_GDw80UsZBy-31" target="ZvJXKDiQZ_GDw80UsZBy-25">
          <mxGeometry relative="1" as="geometry" />
        </mxCell>
        <mxCell id="ZvJXKDiQZ_GDw80UsZBy-34" style="edgeStyle=orthogonalEdgeStyle;rounded=0;orthogonalLoop=1;jettySize=auto;html=1;entryX=1;entryY=0.5;entryDx=0;entryDy=0;" edge="1" parent="1" source="ZvJXKDiQZ_GDw80UsZBy-35" target="ZvJXKDiQZ_GDw80UsZBy-29">
          <mxGeometry relative="1" as="geometry" />
        </mxCell>
        <mxCell id="ZvJXKDiQZ_GDw80UsZBy-31" value="" style="image;aspect=fixed;perimeter=ellipsePerimeter;html=1;align=center;shadow=0;dashed=0;spacingTop=3;image=img/lib/active_directory/windows_server_2.svg;" vertex="1" parent="1">
          <mxGeometry x="210" y="233" width="40" height="50" as="geometry" />
        </mxCell>
        <mxCell id="ZvJXKDiQZ_GDw80UsZBy-33" style="edgeStyle=orthogonalEdgeStyle;rounded=0;orthogonalLoop=1;jettySize=auto;html=1;entryX=-0.007;entryY=0.92;entryDx=0;entryDy=0;entryPerimeter=0;" edge="1" parent="1" source="ZvJXKDiQZ_GDw80UsZBy-27" target="ZvJXKDiQZ_GDw80UsZBy-31">
          <mxGeometry relative="1" as="geometry" />
        </mxCell>
        <mxCell id="ZvJXKDiQZ_GDw80UsZBy-36" value="" style="edgeStyle=orthogonalEdgeStyle;rounded=0;orthogonalLoop=1;jettySize=auto;html=1;entryX=1;entryY=0.5;entryDx=0;entryDy=0;" edge="1" parent="1" source="ZvJXKDiQZ_GDw80UsZBy-31" target="ZvJXKDiQZ_GDw80UsZBy-35">
          <mxGeometry relative="1" as="geometry">
            <mxPoint x="210" y="258" as="sourcePoint" />
            <mxPoint x="165" y="429" as="targetPoint" />
          </mxGeometry>
        </mxCell>
        <mxCell id="ZvJXKDiQZ_GDw80UsZBy-35" value="" style="shape=sumEllipse;perimeter=ellipsePerimeter;whiteSpace=wrap;html=1;backgroundOutline=1;" vertex="1" parent="1">
          <mxGeometry x="160" y="358.5" width="50" height="40" as="geometry" />
        </mxCell>
        <mxCell id="ZvJXKDiQZ_GDw80UsZBy-37" value="HW + SW" style="text;html=1;align=center;verticalAlign=middle;whiteSpace=wrap;rounded=0;" vertex="1" parent="1">
          <mxGeometry x="70" y="470" width="60" height="30" as="geometry" />
        </mxCell>
        <mxCell id="ZvJXKDiQZ_GDw80UsZBy-38" value="HW&amp;nbsp;" style="text;html=1;align=center;verticalAlign=middle;whiteSpace=wrap;rounded=0;" vertex="1" parent="1">
          <mxGeometry x="50" y="283" width="60" height="30" as="geometry" />
        </mxCell>
        <mxCell id="ZvJXKDiQZ_GDw80UsZBy-39" value="SW" style="text;html=1;align=center;verticalAlign=middle;whiteSpace=wrap;rounded=0;" vertex="1" parent="1">
          <mxGeometry x="90" y="283" width="60" height="30" as="geometry" />
        </mxCell>
        <mxCell id="ZvJXKDiQZ_GDw80UsZBy-40" value="" style="fontColor=#0066CC;verticalAlign=top;verticalLabelPosition=bottom;labelPosition=center;align=center;html=1;outlineConnect=0;fillColor=#CCCCCC;strokeColor=#6881B3;gradientColor=none;gradientDirection=north;strokeWidth=2;shape=mxgraph.networks.radio_tower;" vertex="1" parent="1">
          <mxGeometry x="600" y="750" width="55" height="100" as="geometry" />
        </mxCell>
        <mxCell id="ZvJXKDiQZ_GDw80UsZBy-41" style="edgeStyle=orthogonalEdgeStyle;rounded=0;orthogonalLoop=1;jettySize=auto;html=1;" edge="1" parent="1" source="ZvJXKDiQZ_GDw80UsZBy-42">
          <mxGeometry relative="1" as="geometry">
            <mxPoint x="300" y="794" as="targetPoint" />
          </mxGeometry>
        </mxCell>
        <mxCell id="ZvJXKDiQZ_GDw80UsZBy-42" value="CORE&amp;nbsp;" style="shape=cylinder3;whiteSpace=wrap;html=1;boundedLbl=1;backgroundOutline=1;size=15;fillColor=#dae8fc;strokeColor=#6c8ebf;" vertex="1" parent="1">
          <mxGeometry x="150" y="754" width="60" height="80" as="geometry" />
        </mxCell>
        <mxCell id="ZvJXKDiQZ_GDw80UsZBy-43" value="RAN" style="shape=cylinder3;whiteSpace=wrap;html=1;boundedLbl=1;backgroundOutline=1;size=15;fillColor=#ffe6cc;strokeColor=#d79b00;" vertex="1" parent="1">
          <mxGeometry x="310" y="760" width="60" height="80" as="geometry" />
        </mxCell>
        <mxCell id="ZvJXKDiQZ_GDw80UsZBy-44" style="edgeStyle=orthogonalEdgeStyle;rounded=0;orthogonalLoop=1;jettySize=auto;html=1;" edge="1" parent="1" source="ZvJXKDiQZ_GDw80UsZBy-45" target="ZvJXKDiQZ_GDw80UsZBy-40">
          <mxGeometry relative="1" as="geometry" />
        </mxCell>
        <mxCell id="ZvJXKDiQZ_GDw80UsZBy-45" value="BTS" style="shape=cube;whiteSpace=wrap;html=1;boundedLbl=1;backgroundOutline=1;darkOpacity=0.05;darkOpacity2=0.1;fillColor=#fff2cc;strokeColor=#d6b656;" vertex="1" parent="1">
          <mxGeometry x="430" y="760" width="120" height="80" as="geometry" />
        </mxCell>
        <mxCell id="ZvJXKDiQZ_GDw80UsZBy-46" style="edgeStyle=orthogonalEdgeStyle;rounded=0;orthogonalLoop=1;jettySize=auto;html=1;entryX=0;entryY=0.5;entryDx=0;entryDy=0;entryPerimeter=0;" edge="1" parent="1" source="ZvJXKDiQZ_GDw80UsZBy-43" target="ZvJXKDiQZ_GDw80UsZBy-45">
          <mxGeometry relative="1" as="geometry" />
        </mxCell>
        <mxCell id="ZvJXKDiQZ_GDw80UsZBy-47" value="Errisson" style="text;html=1;align=center;verticalAlign=middle;whiteSpace=wrap;rounded=0;" vertex="1" parent="1">
          <mxGeometry x="150" y="720" width="60" height="30" as="geometry" />
        </mxCell>
        <mxCell id="ZvJXKDiQZ_GDw80UsZBy-50" value="Vendor Specific" style="rounded=0;whiteSpace=wrap;html=1;fillColor=#ffe6cc;strokeColor=#d79b00;" vertex="1" parent="1">
          <mxGeometry x="150" y="860" width="490" height="20" as="geometry" />
        </mxCell>
        <mxCell id="ZvJXKDiQZ_GDw80UsZBy-51" value="Errisson" style="text;html=1;align=center;verticalAlign=middle;whiteSpace=wrap;rounded=0;" vertex="1" parent="1">
          <mxGeometry x="310" y="720" width="60" height="30" as="geometry" />
        </mxCell>
        <mxCell id="ZvJXKDiQZ_GDw80UsZBy-52" value="Errisson" style="text;html=1;align=center;verticalAlign=middle;whiteSpace=wrap;rounded=0;" vertex="1" parent="1">
          <mxGeometry x="460" y="730" width="60" height="30" as="geometry" />
        </mxCell>
        <mxCell id="ZvJXKDiQZ_GDw80UsZBy-53" value="Errisson" style="text;html=1;align=center;verticalAlign=middle;whiteSpace=wrap;rounded=0;" vertex="1" parent="1">
          <mxGeometry x="670" y="779" width="60" height="30" as="geometry" />
        </mxCell>
        <mxCell id="ZvJXKDiQZ_GDw80UsZBy-54" value="" style="edgeStyle=segmentEdgeStyle;endArrow=classic;html=1;curved=0;rounded=0;endSize=8;startSize=8;" edge="1" parent="1">
          <mxGeometry width="50" height="50" relative="1" as="geometry">
            <mxPoint x="740" y="810" as="sourcePoint" />
            <mxPoint x="790" y="760" as="targetPoint" />
          </mxGeometry>
        </mxCell>
        <mxCell id="ZvJXKDiQZ_GDw80UsZBy-55" value="" style="shape=singleArrow;direction=south;whiteSpace=wrap;html=1;fillColor=#f5f5f5;fontColor=#333333;strokeColor=#666666;" vertex="1" parent="1">
          <mxGeometry x="720" y="530" width="40" height="70" as="geometry" />
        </mxCell>
        <mxCell id="ZvJXKDiQZ_GDw80UsZBy-56" value="HW + SW" style="text;html=1;align=center;verticalAlign=middle;whiteSpace=wrap;rounded=0;" vertex="1" parent="1">
          <mxGeometry x="365" y="630" width="60" height="30" as="geometry" />
        </mxCell>
        <mxCell id="ZvJXKDiQZ_GDw80UsZBy-57" value="HW + SW" style="text;html=1;align=center;verticalAlign=middle;whiteSpace=wrap;rounded=0;" vertex="1" parent="1">
          <mxGeometry x="370" y="830" width="60" height="30" as="geometry" />
        </mxCell>
        <mxCell id="ZvJXKDiQZ_GDw80UsZBy-58" value="HW" style="whiteSpace=wrap;html=1;fillColor=#dae8fc;strokeColor=#6c8ebf;rounded=1;" vertex="1" parent="1">
          <mxGeometry x="850" y="489.5" width="90" height="30" as="geometry" />
        </mxCell>
        <mxCell id="ZvJXKDiQZ_GDw80UsZBy-60" value="SW&amp;nbsp;" style="whiteSpace=wrap;html=1;fillColor=#dae8fc;strokeColor=#6c8ebf;rounded=1;" vertex="1" parent="1">
          <mxGeometry x="990" y="489.5" width="90" height="30" as="geometry" />
        </mxCell>
        <mxCell id="ZvJXKDiQZ_GDw80UsZBy-62" value="" style="shape=mxgraph.cisco.people.standing_man;html=1;pointerEvents=1;dashed=0;fillColor=#036897;strokeColor=#ffffff;strokeWidth=2;verticalLabelPosition=bottom;verticalAlign=top;align=center;outlineConnect=0;" vertex="1" parent="1">
          <mxGeometry x="884" y="538" width="22" height="62" as="geometry" />
        </mxCell>
        <mxCell id="ZvJXKDiQZ_GDw80UsZBy-63" value="" style="shape=mxgraph.cisco.people.standing_woman;html=1;pointerEvents=1;dashed=0;fillColor=#036897;strokeColor=#ffffff;strokeWidth=2;verticalLabelPosition=bottom;verticalAlign=top;align=center;outlineConnect=0;" vertex="1" parent="1">
          <mxGeometry x="1030" y="538" width="22" height="62" as="geometry" />
        </mxCell>
        <mxCell id="ZvJXKDiQZ_GDw80UsZBy-72" style="edgeStyle=orthogonalEdgeStyle;rounded=0;orthogonalLoop=1;jettySize=auto;html=1;entryX=0;entryY=0.5;entryDx=0;entryDy=0;" edge="1" parent="1" source="ZvJXKDiQZ_GDw80UsZBy-64" target="ZvJXKDiQZ_GDw80UsZBy-68">
          <mxGeometry relative="1" as="geometry" />
        </mxCell>
        <mxCell id="ZvJXKDiQZ_GDw80UsZBy-76" style="edgeStyle=orthogonalEdgeStyle;rounded=0;orthogonalLoop=1;jettySize=auto;html=1;entryX=0;entryY=0.5;entryDx=0;entryDy=0;" edge="1" parent="1" source="ZvJXKDiQZ_GDw80UsZBy-64" target="ZvJXKDiQZ_GDw80UsZBy-71">
          <mxGeometry relative="1" as="geometry" />
        </mxCell>
        <mxCell id="ZvJXKDiQZ_GDw80UsZBy-64" value="HP--Node&amp;nbsp;" style="rounded=1;whiteSpace=wrap;html=1;fillColor=#dae8fc;strokeColor=#6c8ebf;" vertex="1" parent="1">
          <mxGeometry x="840" y="615" width="120" height="35" as="geometry" />
        </mxCell>
        <mxCell id="ZvJXKDiQZ_GDw80UsZBy-73" style="edgeStyle=orthogonalEdgeStyle;rounded=0;orthogonalLoop=1;jettySize=auto;html=1;entryX=0;entryY=0.75;entryDx=0;entryDy=0;" edge="1" parent="1" source="ZvJXKDiQZ_GDw80UsZBy-65" target="ZvJXKDiQZ_GDw80UsZBy-68">
          <mxGeometry relative="1" as="geometry" />
        </mxCell>
        <mxCell id="ZvJXKDiQZ_GDw80UsZBy-74" value="" style="edgeStyle=orthogonalEdgeStyle;rounded=0;orthogonalLoop=1;jettySize=auto;html=1;" edge="1" parent="1" source="ZvJXKDiQZ_GDw80UsZBy-65" target="ZvJXKDiQZ_GDw80UsZBy-69">
          <mxGeometry relative="1" as="geometry" />
        </mxCell>
        <mxCell id="ZvJXKDiQZ_GDw80UsZBy-75" style="edgeStyle=orthogonalEdgeStyle;rounded=0;orthogonalLoop=1;jettySize=auto;html=1;entryX=0;entryY=0.5;entryDx=0;entryDy=0;" edge="1" parent="1" source="ZvJXKDiQZ_GDw80UsZBy-65" target="ZvJXKDiQZ_GDw80UsZBy-70">
          <mxGeometry relative="1" as="geometry" />
        </mxCell>
        <mxCell id="ZvJXKDiQZ_GDw80UsZBy-65" value="DELL--Node" style="rounded=1;whiteSpace=wrap;html=1;fillColor=#f8cecc;strokeColor=#b85450;" vertex="1" parent="1">
          <mxGeometry x="840" y="670" width="120" height="35" as="geometry" />
        </mxCell>
        <mxCell id="ZvJXKDiQZ_GDw80UsZBy-66" value="CISSCO--TXN" style="rounded=1;whiteSpace=wrap;html=1;fillColor=#fff2cc;strokeColor=#d6b656;" vertex="1" parent="1">
          <mxGeometry x="835" y="730" width="120" height="35" as="geometry" />
        </mxCell>
        <mxCell id="ZvJXKDiQZ_GDw80UsZBy-67" value="Fujitsu---RRU" style="rounded=1;whiteSpace=wrap;html=1;fillColor=#f5f5f5;fontColor=#333333;strokeColor=#666666;" vertex="1" parent="1">
          <mxGeometry x="835" y="782.5" width="120" height="35" as="geometry" />
        </mxCell>
        <mxCell id="ZvJXKDiQZ_GDw80UsZBy-80" style="edgeStyle=orthogonalEdgeStyle;rounded=0;orthogonalLoop=1;jettySize=auto;html=1;entryX=0.5;entryY=0;entryDx=0;entryDy=0;" edge="1" parent="1" source="ZvJXKDiQZ_GDw80UsZBy-68" target="ZvJXKDiQZ_GDw80UsZBy-69">
          <mxGeometry relative="1" as="geometry" />
        </mxCell>
        <mxCell id="ZvJXKDiQZ_GDw80UsZBy-68" value="Maviner --- RAN" style="rounded=1;whiteSpace=wrap;html=1;fillColor=#dae8fc;strokeColor=#6c8ebf;" vertex="1" parent="1">
          <mxGeometry x="990" y="615" width="120" height="35" as="geometry" />
        </mxCell>
        <mxCell id="ZvJXKDiQZ_GDw80UsZBy-81" style="edgeStyle=orthogonalEdgeStyle;rounded=0;orthogonalLoop=1;jettySize=auto;html=1;entryX=0.5;entryY=0;entryDx=0;entryDy=0;" edge="1" parent="1" source="ZvJXKDiQZ_GDw80UsZBy-69" target="ZvJXKDiQZ_GDw80UsZBy-70">
          <mxGeometry relative="1" as="geometry" />
        </mxCell>
        <mxCell id="ZvJXKDiQZ_GDw80UsZBy-69" value="Samsung---- OOS" style="rounded=1;whiteSpace=wrap;html=1;fillColor=#dae8fc;strokeColor=#6c8ebf;" vertex="1" parent="1">
          <mxGeometry x="990" y="670" width="120" height="35" as="geometry" />
        </mxCell>
        <mxCell id="ZvJXKDiQZ_GDw80UsZBy-82" style="edgeStyle=orthogonalEdgeStyle;rounded=0;orthogonalLoop=1;jettySize=auto;html=1;entryX=0.5;entryY=0;entryDx=0;entryDy=0;" edge="1" parent="1" source="ZvJXKDiQZ_GDw80UsZBy-70" target="ZvJXKDiQZ_GDw80UsZBy-71">
          <mxGeometry relative="1" as="geometry" />
        </mxCell>
        <mxCell id="ZvJXKDiQZ_GDw80UsZBy-70" value="RAKUTEN----Core" style="rounded=1;whiteSpace=wrap;html=1;fillColor=#dae8fc;strokeColor=#6c8ebf;" vertex="1" parent="1">
          <mxGeometry x="990" y="730" width="120" height="30" as="geometry" />
        </mxCell>
        <mxCell id="ZvJXKDiQZ_GDw80UsZBy-71" value="Parrel wirless----PCF" style="rounded=1;whiteSpace=wrap;html=1;fillColor=#dae8fc;strokeColor=#6c8ebf;" vertex="1" parent="1">
          <mxGeometry x="990" y="782.5" width="120" height="35" as="geometry" />
        </mxCell>
        <mxCell id="ZvJXKDiQZ_GDw80UsZBy-78" style="edgeStyle=orthogonalEdgeStyle;rounded=0;orthogonalLoop=1;jettySize=auto;html=1;entryX=0;entryY=0.75;entryDx=0;entryDy=0;" edge="1" parent="1" source="ZvJXKDiQZ_GDw80UsZBy-77" target="ZvJXKDiQZ_GDw80UsZBy-64">
          <mxGeometry relative="1" as="geometry" />
        </mxCell>
        <mxCell id="ZvJXKDiQZ_GDw80UsZBy-79" style="edgeStyle=orthogonalEdgeStyle;rounded=0;orthogonalLoop=1;jettySize=auto;html=1;entryX=0;entryY=0.75;entryDx=0;entryDy=0;" edge="1" parent="1" source="ZvJXKDiQZ_GDw80UsZBy-77" target="ZvJXKDiQZ_GDw80UsZBy-65">
          <mxGeometry relative="1" as="geometry" />
        </mxCell>
        <mxCell id="ZvJXKDiQZ_GDw80UsZBy-77" value="" style="shape=image;verticalLabelPosition=bottom;labelBackgroundColor=default;verticalAlign=top;aspect=fixed;imageAspect=0;image=data:image/jpeg,/9j/4AAQSkZJRgABAQAAAQABAAD/2wCEAAkGBxISEBUSEBMVFRUXFRgWFxEVFRYWFhcWFhUWFxcYFhgYHCggGBolHRYVITEhJSkrMC4uGB81ODMtNygtLisBCgoKDQ0OFw8QFy0dHR03ListLS0uLzYtLS0tLTctLS0tKzEwKy0tKy0rLSsrLTcrKys3LS0tLS03LSstKy03K//AABEIAJkBSAMBIgACEQEDEQH/xAAcAAABBQEBAQAAAAAAAAAAAAAAAQIDBgcEBQj/xABQEAABAwIDBAQICQgHBwUAAAABAAIRAxIEITETIkFRBQcUYQYycYGTodHTFiNSU5GSseHwF0JjcnOUs8EzQ4KDstLxFTVEYmSj4iQlVKLD/8QAFgEBAQEAAAAAAAAAAAAAAAAAAAEC/8QAIREBAQACAgAHAQAAAAAAAAAAAAECMRFBEyEyQlHB8BL/2gAMAwEAAhEDEQA/ANxQhCAQhCAQhCAQhCAQhCAQhCAQhCAQhCAQhCAQhCAQhCAQhCAQhCAQhCAQhCAQhCAQhCAQhCAQhCAQhCAQhCAQhCAQhCAQhCAQhCAQhQ1MS0GNfIgmQuftjeR9XtR2scj6vag6ELn7UOR9XtS9pHI+r2oJ0KHtA5H1e1LtxyPq9qCVCi23cfV7UbbuPq9qCVCi23cfV7UbbuPq9qCVCi23cfV7UbbuPq9qCVCi23cfV7UbbuPq9qCVCi23cfV7UbbuPq9qCVCi2/cfV7UnaByPq9qCZCg7SOR9XtSdqHI+r2oOhC5u2DkfV7UnbR8k+r2oOpCgpYppMaHvjNToBCEIBCEIBCEIBCEIBCEIBCEIBCE17wBJMDmUDlFWrtbqfNxK4sR0jOTPrH+Q9q4ruJzPM6qjrrYtzu4chr5yomlRSllETBycCoAUsoqcFODlAHJweg6AU4FQB6cHoJpSyorkocgllEqO5EoJJRKjuRKCSUSo7kXIH3JJTLklyB5KaSmlyY56B5cmlyjLk0uQPLl5nTHTuHwoacTU2YdIDi15bIEkFwaQ0xnBImDyK7SVBjcNTq03U6rQ9jhDmu0PHzEHMEZghEeafC3Bf/Ib9D/8q6MJ4cYIENOJYZIAm4ETkJJGnlXiO6v+jtNlUA+SMTiQB3AbSAEjer/o4aUqn7xiCD5QakEdxV8ho1KoHAFpBB0IT1VehsIzCMFPD3Bg0a976g8kvcTHnVgwmNa/LR3yfZzUV1IQhQCEIQCEIQCEKm+FHWLhcFiRhSypVqxLmU7N2RcAbnAkkZ5TA1QXJCzIddGD+Zq/Xof501nWjhsQ1xLazGgxaGAgyDEuBzmDl3aIL/iuk2tyZvHn+aPPx8y8qrWe8y5xPIQI8whVEeH2Eki2vA47NsHyb8+pOp9YmHZ4m1HfsWkxyk1FRZhXnTaeiqeT5CZ2xsT8b6Cr7tV89ZlLnW9Cz3qB1l0R8/6Kn/OpmiLC3GNOhqegq+7SjGNOhq+gq+7Vcf1lUTqcR5BSpAfxE0dZFD/qPRUveoqzHGNGpq+gq+7S9rET8dHPs9b3SrR6zKMQe0eioz9O0TB1jUJ/4n0VCB/3EFpZjWnQ1j5MPW90nHGNGZ2wHfh63ulVR1j0Achicv0VD+dVFTrJoOO83FGP0WHj+Kgtfb2c6v7vW90nf7QYONX0Fb3Sp56xMN8jFejw/vUg6xMMNGYvzMw3vUFzGPbrNX0Fb3SkbjG86noanu1S/wApdD5GLP8AdYT3qD1mUPmsWf7rB+9QXXtredT0NT3aO3NmJqT+xq+7VIPWbQ+axmf6PBe+Th1o0fmsZ6PB++UF17c3nV9BV92nDFg6bX0FX3apQ60aMf0WM8lmE97CPyqUfmsb9TB++QXU4ofpv3er7pIcY3jtfPQqj/8ANUQdZWH+bx31cF71H5SsPxp44/2cH/KqgvHbm/pvNhqx+ykmdvadNv8Autf3KpY6zMONKOM+rgvepfym0PmsZ9XBe8QXI40fp/3Wv7lNOLH6f91r+5VO/KbR+axn1cF7xO/KhSiNji/q4P3iotpxX7f91r+5SHE/t/3at7lU78pdL5rG/Rg/eJT1mUp/osZ5bcHH+NBbnYkc637tV9ymjEg6GsfJhqvuVU/ynU/msZ9XBf50O6zmH+qxn1cD/mQWvbH9P+7VvcppxPfX/d6vuVUz1mM+RjR/ZwHtQOstvycb9XAe1Ba+0CYmtPLYVJ/hKSDkbnjiJaGn6HMBCqX5Tm/Jxn1cF7Uyp1kMdFzMWY5jB/yMoNCwXSZblUlw+VxHlA1/Gq9im8OEgyDxCyUdYlD5jEf9n3qWp1pUsOL2Ua7hIBB2YZnJzh5IMA6A6INbQsrd100BlsB6Y+7XpeC3WpQxmLZhjTsNSQxweXy4NLoIsESA7PuHNQaEhCEAvnrw8x1TD9PYyrTtJIp0y17bmlhoYdxEAg6tHHmDkSF9Cr586x302dN4k1WXtIp7ocW57CnBkdwP0zwQU/pHEVazQKry4NNw3WNzta3gMhDRkPZHR0U+MK/9tS/h4j7lzOG5n9bnopOj3jszxOtalHfuYn2IJ9qjaqG5JIQczMe+c5G4DsxF4N0TcRbHrz0yQcc+HbwMGpvwQ1tsFoIIk+Uc+MKCkx7W5NA3CBTkWyXHMPuuBgn6deCe+m66YnOpDzaHMDm5WgOhwmde/TVBMMe6W5gAuYLjo+5s7oA3c/lc+EQkHSD+WdoOykX5vtm6LY80590qKnTddpGdMucLSXw0h14Lobrw58UzYmyLBFv9CTuTtJm666YJ9vBB6GFxd1wuBhzhIBAyjLPOcwfOpajgdc4zGk+Y8DEieErz3NN4cd7OoQ82gtBG6GgOhwJ5x5tV3EERIInQEQg82MrLTIY07IGKmVTU1YzGenCRkIlLUfMu1g1gXhoa1uQydTjfOevfnMLpxFEOlpItiNmdLrriciDOvHimvpSZL5dL7XnVoeIAEGMu8ceCBLt8GID304Lt4Omn+ZAmkc9eE8IhQtaS2205U2nZXAO/pcjtozGenCe6V1kndh8QWk5ZvABDg7ODMnOPpUPZxZZc2y2NnvWXX3XePM5xrx8yBtV03OgGNsC8Nta3ITdTPjnPM9+cwpqLt4ZeM5hDvGD5pE7o1o5fbloh1OSXF8uBqWvPjMDxAAgxlnqPJCVrYNwfDiWF5Grw1pBvkkZzwA8+qCEs3bLJim07K6Hf0uR2xGYz8Xv7k59UGXwDaa4vtDQ3ISHUv6zXM9+cwnupNLbCQWkeJLrZvuuAvmdePnjJSNoFxLgS4gvteJLqYeIAaQYAHeOOUIImPAcDAF7qUOycHk0zEDWiYPry0UQALNnsxIpg7O8AxtcvjuIkzHf3LqY2N4PiXMveCRtLGkFryTBnWI8s6qLYtsskWWxspds5vvuAvuB4eN6skA9zXFz4aQ01gX2227omaX9Zrme/PRPpEBwMD4x9IB0XXk0zENmaJzy8uWQQRvXF5LpeWvJNzA8RDSCIA8nkhPpuAMh0ExcbjL4aW7+cHWdNRnKCOiLALdw7MxTyeBDzmKv5wz00Fyf0hinMeQ3g0EF+TPGg788uHr4KCgyGgXBotIsa4upglxMgOMznz8/ALVphzi5z2nKC0t3I4bt+vegHY58mBoXggiHG0SLGzv8A40TmYx8idLqY3QC6HNk3tnc8v2phoNz3xnnJEubIg2G/dBRsRlFQTIzA3nW5C83byCRmLcdXtbuTdE0Zvgb4Mz3f6LoqOcHQajc7oH5+QyAHGMyT5MlzVcJa4B9rZECk6nDCJnxC7WSM0x9IAuBeLpdNw3mE5ODZdLOUcIQSjFOkCSRLBAALxcJde0HdHf6iohjalsy2bCZ/qZvj+knWOH+iaaQy+MaIg3AQ425NvN28EoptnxqcRFlo2cTPiX6znKDo7SZIJI3ngAtAJAblZLt8TxjPLIaqM4x10ZxNMboBfvAl17Z3B3jTLVR7MZ77SXEmSJc0uyOzN26Pp0TDRbAio0RG8MnG3xbjdvR/JB29GYy+o0VdLSSKebJDiBvzMxw8nkUlKtujOctT9y89tMNdc2oxsCLQIaAf+W7WSpqL2taBeDA1kZ9+qDs2yh6RqfEOE6uE94AcRPnSMcCCRmBqRmB5SNE3EVGnDvtIO83MEGNSggHRjXS6SJJ5c1Yurro5rOlsG4OJ+NOsfNvXl0PFH44qxeAX+9cH+1P8Kog+iUIQgFg/WGao6drGgAX7OnkYiNmyTmRxA/0lbuVgPW0G/wC16pc4t+LowQCTmyDpnpKClFu5oeU+bTyrmwVMOwrw7MB9Ax/ZxQXVUDQAGuJ7jTLYHl/koejB/wClqH/mpertHtVs4SDC9H0i9oLBBIBGa4C1gLxY0xoc8suPNerhT8Y39YfaF5dVji98AmNYGgt/+33K9Mz1398hzWQAKbZnWJnyZfZyQSyZFERGbYzMnIzGX3FNINodBDScnQCOI82iU0HAhtpuOYbln5/NxWWzgGQSabTMwYMCDEaZ8PoTrG5N2TQZ1IMnUnK2PwfKmCm4l0NMibhAkZz59OHLvTbHWh2ds+NAj6Jy01jzoNz6D6oOjq2Fo1XGsHVKTHkNdTgF7ATE0zlmqB1leD1LA9J4ahRc9zHCm8uquDnSatuoAgADlxXX0d4SPbSDX47H03NuaKdONm1rS4Uw2RmLQzLLPLTMVXwm6UfVr4etXq1axbbc+qN4W7Jz2jm0OL45oOrHYGk6o4uY0l0uP6xe+fsXJ0jgKTKF7WMBuIkgxkaesfrFer0kIquHKRl3VHhcXSzowp1G+cwJ40uB1VnbOXTzyxhdc2iIAzZvZzP5xG6PvSinTAJNFsG63WGwMuEuzyn7M1GaLrgxzDLhkCAQRPOeX3pdg4l4a0ktuuyggHL7J07+ajSXs7PE2QuuzPEiJ0tgfjyp2zpneFJsAC7xjq6MzE6cvWubZus2kGy7x4ETn+bp3TCkNJ4LWlrrnDdb/andMyPVqZQW3q38GcP0hjHUqzCxgpOe2yA4Frw2Jc0iIOn2LROkOqbAUaFWox1eW03PgvZaS1pIDgGCQsk8H8W+hWcQ+vRg2vdh8qoaQ9wDc4ILgyeERyC9zGeEVV26zGdIuaWPDhVdkXEtDGkDVhG0u5buuYIeP4KYRlXCubUAI21Z0Rxp4Qlpy71z0sBSc9oLG5uA05kLt8CqgGHqcIrVgTp4+DeAAeW671KHDHfZ+s37QrEunl4mnTZWqt2bHABsNgggniTxHs4JKVFhAaaQvy3og5gk5Ebpy4jipOkGOdiKtocchlAyy1BnP7uK5w07PaWm3LeIGsECROcE66SSl2TUPNKmYIpMgRdrBkZ5Fs68vWh1OmCXGkwggw3PMiI0Ejjr9yjqYd8tBa6XAWgiS717vqTm4aoXOZa4uEktyyBjV0w7nx9Sio6lIAFuzZdJhxHijKAQBvZTmFsfgd1X9H4rA0a9UVA97STaWBsh7hkCw8gsc2TjTNS11oMXxoTAMCZ5d30K5dE9NmnTDH4rpGmB4rMO4CmAYOUnvJKDr61PBLD4Cvgm0C87WrD3VHBzoa9gABgZbxVc6Vw7HE1C0XPxGKLjGsV8vtKTpjpOpVq4R1WriK1tWnPaDcQ41CXNpyTukCn3zPIKTpPIWSJbXxU586+WXCYQebVwtPY1HWtkaEiY3Kh08oH0Lia5pDfi2ZAS60b3q0PIc+EL0qh+Iq68NNfEq6Ly3UHizdcLog6zp43yNfWeSt6Zx3UtzLrtky3QNgRPE6So7gAW7NhJORtEtkcMoP41SDCPvLLcwAbZyHfdOevPmo20XFhdBhpguOREch5+A5qNFNQEAbNgjV1oN2XERu/jRe/4FdGUcX0nQw9WmBTeSHMaIMBpdkYy0/Gq8B1FwDXWkXRB1Jnnnl5/Wu3oxz6VcGajCACTScQ8NL2XWPByfbcAg3wdUHRfCnUE6xUOflyzXz/iaQY/FU2ZMbUe0D9UuaPPCtOM6ebubHEdLTcb78U/NuzdFpa/W+3ONLstAqpaSzEPOcPhxPNwJ85MOQenhDuN8gVl6v8A/euD/au/g1VVcM7daN/xRFoB59xVq6u3NPSmCguna1JDhEAYaoRw1m/6Arx5cj6IQkCFAFYD1zst6VO6111Ck6S97IEvbEN1zYTPf3LfnLBuu4f+5sP/AEtP+LXVl4S4y7UKpUJB3GyRAdtqroPDIjPyKHA0w7CvBmJYcjGjqvtUzdQm9GtIw1X+x/jqJbymOMx058Ngml7RL83AeMeJXM+m1rnA3ZRaQ862zvZ8134Q/GM/Xb/iC4sSDtHxnFswNBYPGyzCdHuMLG2wAbp+WbY+nX70HZ3ZNfbBkF5uJ7s9E05tnh8ojd79dP8AVKWGYggnRp1d5DH4zUaPDKe9IcdbYeeGkmfIg02W+Kbp1LnRGegn+aaGEkiDlqAMxnO93femkG27hzgWfRwKDXMB1T4J9Gk9+JrB1SlTq2hhIG0bdkZ0EFUnrH8FaWBxNCjSqPeyrSbUveCDDnWjI6QB61ZOjfC+uyg1p6VrUSwFraAwtJ7Wtbc1gD7M8gzXycyKl4YdL1MRiKNStiHYgttbtX020yBuOc21gAhrnPE8fJCA6V6PpmvUdvAve95hxGbqj5+xcmM6Pa2gXtLiQ6Ic8hv5nk+UfUvW6XyrOGm88R5KtQLi6QcOyOkjx+Ikf1eoVjOXTzXMp3CGvLQDcLzdP/Lw+n1JWU6W9IdGdvxhyhoO+Z18nMJHNMgEOkjJpGZHCDH470oYSSAHSJkAZtERmIy+9Ro7s9O2IffPynaa5NnP6fYnGhSkQH2gb2+7LejM8PoOoUBBtu4TrG5J58ypcxAzlw3RGfjAizn96Cw+A/gzQx2KfSe6pTY2k6pcHFzoYSDlOc/yKutTqpwIY808VWJbTe8AseA7ZgkiZ/1GYVB8F+lKmGrOfTruwzvFdVFNtRzWuDnRs3AzJDR9GnGz43w3xR3GdLVKzXMeHNOEpMz3Q1mdMHeBfmNLe/IKl0B0cythHMfNpxLnZHOaWGe5v+Iyuel0TTJAl2ZA8bmfIvT8FCNg/ur1vXhXew/QoMOd9v6zftCRLp5WJwlJlaox1xA8Uh4kk8/x9KazDU7QCH7TuduxBJgTPr4+ZdHSUnEVbQTpNokgRqe5cxMtmDb8r82S2N7v7u9W7MdQ92Go7sB8ZX78xOsHu8hQcPRkkh1mdu/mSCNDx48tFA9jpEzn4sjMjQbPlw9Se1plwh05yAN6MvG+36FFNqUWAEWnaSQHXm0NEeOJkGJ4rTeheq/BVsLQrVcRUY6rTvsDHOjM5Ag5nJZk4y0uExMXwLRMZEkeT1LQehfC6vToNpjpZ2GawWtojBU6wa0ab9hJ86Dh8MvAyhgsVgBRqvqivVbvkEEBtVjchJzz9S8HpLB0nnbFouq1a7nQTGVUxC9Ppfp+tisXg34jFHEbPEULajqTKVtzmOe21jWzDhEnW2RkVw4lsUqYOodWnz1Sg89+Ap7Go60AtiCSY8V5zHmC5iynu/FgaXZuh/OPLB05hei93/p6nlHf+a/gvNNNwLciLoty8b17uvrVvTOPZRTpXGaQiMmXOkHnMT+Ao9ky07gJ4OBdDRaDmOI1+kJW0H3FoaSQM28h+tOev4hIGOLbgCWg5vjQwBkNeP4hRoljMviwPlGTv5fm8vxorB4EeD1DHdI08K8OZTeHza7fFtMvkXAjhxHHzqvupEWlzSL9DA3ssvJqF6fg7jH4fFB7aj6LmxL6YBexjnNa9zZmTYXZaINl/IZ0fwrYof2qXu1hrd1ldjfFvOX6gIHqcfpWg4zw2qgt2PSmNcJdcX0WCBsyWkfF5k1A0RyJ0i52eAEtqnm94jvgIPToNIa3cYcvG2lVp56DIeZWjqvpXdL4bda2DUdIe9xyo1JEOyzBOfeq1T8Rv6o+wK1dVf8Aveh5Kv8ABetf1dMeHjzz919CtSIYkWWznLO+sTq+/wBo1qddmINFzKezcLLw5ocXN/OEEFzucyOS0QqNzEGG1Op6qP8Ajif7k+8XZgerVtIG55qTqC2GfUnPzkrX30VE7DhBlrfAOmDIYzn4n3yn/Amn83S9H960w4UJvZRyQZp8CacRs6Uctnl9qPgUzXZ0vR/etL7KEnZQgzb4Fs+bpejP+ZHwKp6bOlHLZ5f4lpPZQjsoQZx8DmfN0vR/+Sa/wLYdadL0QP2laT2UckvZRyQZp8C2fIpeiCPgWyIspxy2Yj6JWldlCOyhBmp8C2/Ip5cdmPageBbdbafowtK7KEdlHJBmnwKbEW045bJsfQlPgW35LPRNWldlCOyhBmw8DhwbT8uyanfBDuZ6Jq0fso5I7KEGbDwNaNG0h3iiyfsTPgS3kz0bVpnZQjsoQZoPAsTItBOvxVPPy5JvwIEW7kfJ2NKPotWm9kCOyjkgzM+BIy8XLT4qnl5N1A8CBJO7nr8VT/yrTOyhHZQgzQeBTYiGR+yZ/IJ48Dx8mn6MLSOyhHZQgzk+CDfkU/Rj2o+CDfkU/Rx9hWjdlCOyhBlHSXV22sZNR7I0awNtnnDgTPnXAeqw8MQ7z06Z+wBbN2UI7KOSDGD1XP8Anx6Ie1L+S1x1xB81Jg9eq2bso5I7KEGSdH9WraTw8VarjyNoB7jaAY8/AL1vgl3+qftK0bsoR2UckGcHwNadQw+Wm0/aFy47q8p1YzsI4sY1oPcWgRH0HvWpDCjknDDDkgyOl1VuP/EuH93/AOasngZ1eDB4oYk13VC1rmtYWBoBeIJmTwkedX1lBTMpoJaaErUIHFNTkiBpCaWqRIgjtSWqVEIIbUWKWEQgitRapYRCCK1FqlhEIIrEWKWEQgisRYpYRCCK1FqlhEIIrEWqWEQgisRYpYRCCK1FilhEIIrUWqWEQgisRapYRCCKxFqlhEIIrEWqWEQgisRapYRCCK1LapISwgitShqkhCBoanQhKgAhKhAIQhAJEqECISoQIhKhAiEqECISoQIhKhAiEqECISoQIhKhAiEqECISoQIhKhAiEqECISoQIhKhAiEqECISoQIhKhAIQhAIQhB//9k=;" vertex="1" parent="1">
          <mxGeometry x="650" y="640" width="155" height="72.3" as="geometry" />
        </mxCell>
        <mxCell id="ZvJXKDiQZ_GDw80UsZBy-87" style="edgeStyle=orthogonalEdgeStyle;rounded=0;orthogonalLoop=1;jettySize=auto;html=1;" edge="1" parent="1" source="ZvJXKDiQZ_GDw80UsZBy-83">
          <mxGeometry relative="1" as="geometry">
            <mxPoint x="1247.5" y="740" as="targetPoint" />
          </mxGeometry>
        </mxCell>
        <mxCell id="ZvJXKDiQZ_GDw80UsZBy-83" value="" style="fontColor=#0066CC;verticalAlign=top;verticalLabelPosition=bottom;labelPosition=center;align=center;html=1;outlineConnect=0;fillColor=#CCCCCC;strokeColor=#6881B3;gradientColor=none;gradientDirection=north;strokeWidth=2;shape=mxgraph.networks.radio_tower;" vertex="1" parent="1">
          <mxGeometry x="1220" y="582.5" width="55" height="100" as="geometry" />
        </mxCell>
        <mxCell id="ZvJXKDiQZ_GDw80UsZBy-84" value="NEC--LB" style="text;html=1;align=center;verticalAlign=middle;whiteSpace=wrap;rounded=0;" vertex="1" parent="1">
          <mxGeometry x="1211" y="538" width="60" height="30" as="geometry" />
        </mxCell>
        <mxCell id="ZvJXKDiQZ_GDw80UsZBy-85" value="Samsung--MB" style="text;html=1;align=center;verticalAlign=middle;whiteSpace=wrap;rounded=0;" vertex="1" parent="1">
          <mxGeometry x="1275" y="605" width="100" height="30" as="geometry" />
        </mxCell>
        <mxCell id="ZvJXKDiQZ_GDw80UsZBy-86" value="Maviner--HB" style="text;html=1;align=center;verticalAlign=middle;whiteSpace=wrap;rounded=0;" vertex="1" parent="1">
          <mxGeometry x="1120" y="605" width="100" height="30" as="geometry" />
        </mxCell>
        <mxCell id="ZvJXKDiQZ_GDw80UsZBy-88" value="" style="shape=image;verticalLabelPosition=bottom;labelBackgroundColor=default;verticalAlign=top;aspect=fixed;imageAspect=0;image=data:image/jpeg,/9j/4AAQSkZJRgABAQAAAQABAAD/2wCEAAkGBxISEBUSEBMVFRUXFRgWFxEVFRYWFhcWFhUWFxcYFhgYHCggGBolHRYVITEhJSkrMC4uGB81ODMtNygtLisBCgoKDQ0OFw8QFy0dHR03ListLS0uLzYtLS0tLTctLS0tKzEwKy0tKy0rLSsrLTcrKys3LS0tLS03LSstKy03K//AABEIAJkBSAMBIgACEQEDEQH/xAAcAAABBQEBAQAAAAAAAAAAAAAAAQIDBgcEBQj/xABQEAABAwIDBAQICQgHBwUAAAABAAIRAxIEITETIkFRBQcUYQYycYGTodHTFiNSU5GSseHwF0JjcnOUs8EzQ4KDstLxFTVEYmSj4iQlVKLD/8QAFgEBAQEAAAAAAAAAAAAAAAAAAAEC/8QAIREBAQACAgAHAQAAAAAAAAAAAAECMRFBEyEyQlHB8BL/2gAMAwEAAhEDEQA/ANxQhCAQhCAQhCAQhCAQhCAQhCAQhCAQhCAQhCAQhCAQhCAQhCAQhCAQhCAQhCAQhCAQhCAQhCAQhCAQhCAQhCAQhCAQhCAQhCAQhCAQhQ1MS0GNfIgmQuftjeR9XtR2scj6vag6ELn7UOR9XtS9pHI+r2oJ0KHtA5H1e1LtxyPq9qCVCi23cfV7UbbuPq9qCVCi23cfV7UbbuPq9qCVCi23cfV7UbbuPq9qCVCi23cfV7UbbuPq9qCVCi23cfV7UbbuPq9qCVCi2/cfV7UnaByPq9qCZCg7SOR9XtSdqHI+r2oOhC5u2DkfV7UnbR8k+r2oOpCgpYppMaHvjNToBCEIBCEIBCEIBCEIBCEIBCEIBCE17wBJMDmUDlFWrtbqfNxK4sR0jOTPrH+Q9q4ruJzPM6qjrrYtzu4chr5yomlRSllETBycCoAUsoqcFODlAHJweg6AU4FQB6cHoJpSyorkocgllEqO5EoJJRKjuRKCSUSo7kXIH3JJTLklyB5KaSmlyY56B5cmlyjLk0uQPLl5nTHTuHwoacTU2YdIDi15bIEkFwaQ0xnBImDyK7SVBjcNTq03U6rQ9jhDmu0PHzEHMEZghEeafC3Bf/Ib9D/8q6MJ4cYIENOJYZIAm4ETkJJGnlXiO6v+jtNlUA+SMTiQB3AbSAEjer/o4aUqn7xiCD5QakEdxV8ho1KoHAFpBB0IT1VehsIzCMFPD3Bg0a976g8kvcTHnVgwmNa/LR3yfZzUV1IQhQCEIQCEIQCEKm+FHWLhcFiRhSypVqxLmU7N2RcAbnAkkZ5TA1QXJCzIddGD+Zq/Xof501nWjhsQ1xLazGgxaGAgyDEuBzmDl3aIL/iuk2tyZvHn+aPPx8y8qrWe8y5xPIQI8whVEeH2Eki2vA47NsHyb8+pOp9YmHZ4m1HfsWkxyk1FRZhXnTaeiqeT5CZ2xsT8b6Cr7tV89ZlLnW9Cz3qB1l0R8/6Kn/OpmiLC3GNOhqegq+7SjGNOhq+gq+7Vcf1lUTqcR5BSpAfxE0dZFD/qPRUveoqzHGNGpq+gq+7S9rET8dHPs9b3SrR6zKMQe0eioz9O0TB1jUJ/4n0VCB/3EFpZjWnQ1j5MPW90nHGNGZ2wHfh63ulVR1j0Achicv0VD+dVFTrJoOO83FGP0WHj+Kgtfb2c6v7vW90nf7QYONX0Fb3Sp56xMN8jFejw/vUg6xMMNGYvzMw3vUFzGPbrNX0Fb3SkbjG86noanu1S/wApdD5GLP8AdYT3qD1mUPmsWf7rB+9QXXtredT0NT3aO3NmJqT+xq+7VIPWbQ+axmf6PBe+Th1o0fmsZ6PB++UF17c3nV9BV92nDFg6bX0FX3apQ60aMf0WM8lmE97CPyqUfmsb9TB++QXU4ofpv3er7pIcY3jtfPQqj/8ANUQdZWH+bx31cF71H5SsPxp44/2cH/KqgvHbm/pvNhqx+ykmdvadNv8Autf3KpY6zMONKOM+rgvepfym0PmsZ9XBe8QXI40fp/3Wv7lNOLH6f91r+5VO/KbR+axn1cF7xO/KhSiNji/q4P3iotpxX7f91r+5SHE/t/3at7lU78pdL5rG/Rg/eJT1mUp/osZ5bcHH+NBbnYkc637tV9ymjEg6GsfJhqvuVU/ynU/msZ9XBf50O6zmH+qxn1cD/mQWvbH9P+7VvcppxPfX/d6vuVUz1mM+RjR/ZwHtQOstvycb9XAe1Ba+0CYmtPLYVJ/hKSDkbnjiJaGn6HMBCqX5Tm/Jxn1cF7Uyp1kMdFzMWY5jB/yMoNCwXSZblUlw+VxHlA1/Gq9im8OEgyDxCyUdYlD5jEf9n3qWp1pUsOL2Ua7hIBB2YZnJzh5IMA6A6INbQsrd100BlsB6Y+7XpeC3WpQxmLZhjTsNSQxweXy4NLoIsESA7PuHNQaEhCEAvnrw8x1TD9PYyrTtJIp0y17bmlhoYdxEAg6tHHmDkSF9Cr586x302dN4k1WXtIp7ocW57CnBkdwP0zwQU/pHEVazQKry4NNw3WNzta3gMhDRkPZHR0U+MK/9tS/h4j7lzOG5n9bnopOj3jszxOtalHfuYn2IJ9qjaqG5JIQczMe+c5G4DsxF4N0TcRbHrz0yQcc+HbwMGpvwQ1tsFoIIk+Uc+MKCkx7W5NA3CBTkWyXHMPuuBgn6deCe+m66YnOpDzaHMDm5WgOhwmde/TVBMMe6W5gAuYLjo+5s7oA3c/lc+EQkHSD+WdoOykX5vtm6LY80590qKnTddpGdMucLSXw0h14Lobrw58UzYmyLBFv9CTuTtJm666YJ9vBB6GFxd1wuBhzhIBAyjLPOcwfOpajgdc4zGk+Y8DEieErz3NN4cd7OoQ82gtBG6GgOhwJ5x5tV3EERIInQEQg82MrLTIY07IGKmVTU1YzGenCRkIlLUfMu1g1gXhoa1uQydTjfOevfnMLpxFEOlpItiNmdLrriciDOvHimvpSZL5dL7XnVoeIAEGMu8ceCBLt8GID304Lt4Omn+ZAmkc9eE8IhQtaS2205U2nZXAO/pcjtozGenCe6V1kndh8QWk5ZvABDg7ODMnOPpUPZxZZc2y2NnvWXX3XePM5xrx8yBtV03OgGNsC8Nta3ITdTPjnPM9+cwpqLt4ZeM5hDvGD5pE7o1o5fbloh1OSXF8uBqWvPjMDxAAgxlnqPJCVrYNwfDiWF5Grw1pBvkkZzwA8+qCEs3bLJim07K6Hf0uR2xGYz8Xv7k59UGXwDaa4vtDQ3ISHUv6zXM9+cwnupNLbCQWkeJLrZvuuAvmdePnjJSNoFxLgS4gvteJLqYeIAaQYAHeOOUIImPAcDAF7qUOycHk0zEDWiYPry0UQALNnsxIpg7O8AxtcvjuIkzHf3LqY2N4PiXMveCRtLGkFryTBnWI8s6qLYtsskWWxspds5vvuAvuB4eN6skA9zXFz4aQ01gX2227omaX9Zrme/PRPpEBwMD4x9IB0XXk0zENmaJzy8uWQQRvXF5LpeWvJNzA8RDSCIA8nkhPpuAMh0ExcbjL4aW7+cHWdNRnKCOiLALdw7MxTyeBDzmKv5wz00Fyf0hinMeQ3g0EF+TPGg788uHr4KCgyGgXBotIsa4upglxMgOMznz8/ALVphzi5z2nKC0t3I4bt+vegHY58mBoXggiHG0SLGzv8A40TmYx8idLqY3QC6HNk3tnc8v2phoNz3xnnJEubIg2G/dBRsRlFQTIzA3nW5C83byCRmLcdXtbuTdE0Zvgb4Mz3f6LoqOcHQajc7oH5+QyAHGMyT5MlzVcJa4B9rZECk6nDCJnxC7WSM0x9IAuBeLpdNw3mE5ODZdLOUcIQSjFOkCSRLBAALxcJde0HdHf6iohjalsy2bCZ/qZvj+knWOH+iaaQy+MaIg3AQ425NvN28EoptnxqcRFlo2cTPiX6znKDo7SZIJI3ngAtAJAblZLt8TxjPLIaqM4x10ZxNMboBfvAl17Z3B3jTLVR7MZ77SXEmSJc0uyOzN26Pp0TDRbAio0RG8MnG3xbjdvR/JB29GYy+o0VdLSSKebJDiBvzMxw8nkUlKtujOctT9y89tMNdc2oxsCLQIaAf+W7WSpqL2taBeDA1kZ9+qDs2yh6RqfEOE6uE94AcRPnSMcCCRmBqRmB5SNE3EVGnDvtIO83MEGNSggHRjXS6SJJ5c1Yurro5rOlsG4OJ+NOsfNvXl0PFH44qxeAX+9cH+1P8Kog+iUIQgFg/WGao6drGgAX7OnkYiNmyTmRxA/0lbuVgPW0G/wC16pc4t+LowQCTmyDpnpKClFu5oeU+bTyrmwVMOwrw7MB9Ax/ZxQXVUDQAGuJ7jTLYHl/koejB/wClqH/mpertHtVs4SDC9H0i9oLBBIBGa4C1gLxY0xoc8suPNerhT8Y39YfaF5dVji98AmNYGgt/+33K9Mz1398hzWQAKbZnWJnyZfZyQSyZFERGbYzMnIzGX3FNINodBDScnQCOI82iU0HAhtpuOYbln5/NxWWzgGQSabTMwYMCDEaZ8PoTrG5N2TQZ1IMnUnK2PwfKmCm4l0NMibhAkZz59OHLvTbHWh2ds+NAj6Jy01jzoNz6D6oOjq2Fo1XGsHVKTHkNdTgF7ATE0zlmqB1leD1LA9J4ahRc9zHCm8uquDnSatuoAgADlxXX0d4SPbSDX47H03NuaKdONm1rS4Uw2RmLQzLLPLTMVXwm6UfVr4etXq1axbbc+qN4W7Jz2jm0OL45oOrHYGk6o4uY0l0uP6xe+fsXJ0jgKTKF7WMBuIkgxkaesfrFer0kIquHKRl3VHhcXSzowp1G+cwJ40uB1VnbOXTzyxhdc2iIAzZvZzP5xG6PvSinTAJNFsG63WGwMuEuzyn7M1GaLrgxzDLhkCAQRPOeX3pdg4l4a0ktuuyggHL7J07+ajSXs7PE2QuuzPEiJ0tgfjyp2zpneFJsAC7xjq6MzE6cvWubZus2kGy7x4ETn+bp3TCkNJ4LWlrrnDdb/andMyPVqZQW3q38GcP0hjHUqzCxgpOe2yA4Frw2Jc0iIOn2LROkOqbAUaFWox1eW03PgvZaS1pIDgGCQsk8H8W+hWcQ+vRg2vdh8qoaQ9wDc4ILgyeERyC9zGeEVV26zGdIuaWPDhVdkXEtDGkDVhG0u5buuYIeP4KYRlXCubUAI21Z0Rxp4Qlpy71z0sBSc9oLG5uA05kLt8CqgGHqcIrVgTp4+DeAAeW671KHDHfZ+s37QrEunl4mnTZWqt2bHABsNgggniTxHs4JKVFhAaaQvy3og5gk5Ebpy4jipOkGOdiKtocchlAyy1BnP7uK5w07PaWm3LeIGsECROcE66SSl2TUPNKmYIpMgRdrBkZ5Fs68vWh1OmCXGkwggw3PMiI0Ejjr9yjqYd8tBa6XAWgiS717vqTm4aoXOZa4uEktyyBjV0w7nx9Sio6lIAFuzZdJhxHijKAQBvZTmFsfgd1X9H4rA0a9UVA97STaWBsh7hkCw8gsc2TjTNS11oMXxoTAMCZ5d30K5dE9NmnTDH4rpGmB4rMO4CmAYOUnvJKDr61PBLD4Cvgm0C87WrD3VHBzoa9gABgZbxVc6Vw7HE1C0XPxGKLjGsV8vtKTpjpOpVq4R1WriK1tWnPaDcQ41CXNpyTukCn3zPIKTpPIWSJbXxU586+WXCYQebVwtPY1HWtkaEiY3Kh08oH0Lia5pDfi2ZAS60b3q0PIc+EL0qh+Iq68NNfEq6Ly3UHizdcLog6zp43yNfWeSt6Zx3UtzLrtky3QNgRPE6So7gAW7NhJORtEtkcMoP41SDCPvLLcwAbZyHfdOevPmo20XFhdBhpguOREch5+A5qNFNQEAbNgjV1oN2XERu/jRe/4FdGUcX0nQw9WmBTeSHMaIMBpdkYy0/Gq8B1FwDXWkXRB1Jnnnl5/Wu3oxz6VcGajCACTScQ8NL2XWPByfbcAg3wdUHRfCnUE6xUOflyzXz/iaQY/FU2ZMbUe0D9UuaPPCtOM6ebubHEdLTcb78U/NuzdFpa/W+3ONLstAqpaSzEPOcPhxPNwJ85MOQenhDuN8gVl6v8A/euD/au/g1VVcM7daN/xRFoB59xVq6u3NPSmCguna1JDhEAYaoRw1m/6Arx5cj6IQkCFAFYD1zst6VO6111Ck6S97IEvbEN1zYTPf3LfnLBuu4f+5sP/AEtP+LXVl4S4y7UKpUJB3GyRAdtqroPDIjPyKHA0w7CvBmJYcjGjqvtUzdQm9GtIw1X+x/jqJbymOMx058Ngml7RL83AeMeJXM+m1rnA3ZRaQ862zvZ8134Q/GM/Xb/iC4sSDtHxnFswNBYPGyzCdHuMLG2wAbp+WbY+nX70HZ3ZNfbBkF5uJ7s9E05tnh8ojd79dP8AVKWGYggnRp1d5DH4zUaPDKe9IcdbYeeGkmfIg02W+Kbp1LnRGegn+aaGEkiDlqAMxnO93femkG27hzgWfRwKDXMB1T4J9Gk9+JrB1SlTq2hhIG0bdkZ0EFUnrH8FaWBxNCjSqPeyrSbUveCDDnWjI6QB61ZOjfC+uyg1p6VrUSwFraAwtJ7Wtbc1gD7M8gzXycyKl4YdL1MRiKNStiHYgttbtX020yBuOc21gAhrnPE8fJCA6V6PpmvUdvAve95hxGbqj5+xcmM6Pa2gXtLiQ6Ic8hv5nk+UfUvW6XyrOGm88R5KtQLi6QcOyOkjx+Ikf1eoVjOXTzXMp3CGvLQDcLzdP/Lw+n1JWU6W9IdGdvxhyhoO+Z18nMJHNMgEOkjJpGZHCDH470oYSSAHSJkAZtERmIy+9Ro7s9O2IffPynaa5NnP6fYnGhSkQH2gb2+7LejM8PoOoUBBtu4TrG5J58ypcxAzlw3RGfjAizn96Cw+A/gzQx2KfSe6pTY2k6pcHFzoYSDlOc/yKutTqpwIY808VWJbTe8AseA7ZgkiZ/1GYVB8F+lKmGrOfTruwzvFdVFNtRzWuDnRs3AzJDR9GnGz43w3xR3GdLVKzXMeHNOEpMz3Q1mdMHeBfmNLe/IKl0B0cythHMfNpxLnZHOaWGe5v+Iyuel0TTJAl2ZA8bmfIvT8FCNg/ur1vXhXew/QoMOd9v6zftCRLp5WJwlJlaox1xA8Uh4kk8/x9KazDU7QCH7TuduxBJgTPr4+ZdHSUnEVbQTpNokgRqe5cxMtmDb8r82S2N7v7u9W7MdQ92Go7sB8ZX78xOsHu8hQcPRkkh1mdu/mSCNDx48tFA9jpEzn4sjMjQbPlw9Se1plwh05yAN6MvG+36FFNqUWAEWnaSQHXm0NEeOJkGJ4rTeheq/BVsLQrVcRUY6rTvsDHOjM5Ag5nJZk4y0uExMXwLRMZEkeT1LQehfC6vToNpjpZ2GawWtojBU6wa0ab9hJ86Dh8MvAyhgsVgBRqvqivVbvkEEBtVjchJzz9S8HpLB0nnbFouq1a7nQTGVUxC9Ppfp+tisXg34jFHEbPEULajqTKVtzmOe21jWzDhEnW2RkVw4lsUqYOodWnz1Sg89+Ap7Go60AtiCSY8V5zHmC5iynu/FgaXZuh/OPLB05hei93/p6nlHf+a/gvNNNwLciLoty8b17uvrVvTOPZRTpXGaQiMmXOkHnMT+Ao9ky07gJ4OBdDRaDmOI1+kJW0H3FoaSQM28h+tOev4hIGOLbgCWg5vjQwBkNeP4hRoljMviwPlGTv5fm8vxorB4EeD1DHdI08K8OZTeHza7fFtMvkXAjhxHHzqvupEWlzSL9DA3ssvJqF6fg7jH4fFB7aj6LmxL6YBexjnNa9zZmTYXZaINl/IZ0fwrYof2qXu1hrd1ldjfFvOX6gIHqcfpWg4zw2qgt2PSmNcJdcX0WCBsyWkfF5k1A0RyJ0i52eAEtqnm94jvgIPToNIa3cYcvG2lVp56DIeZWjqvpXdL4bda2DUdIe9xyo1JEOyzBOfeq1T8Rv6o+wK1dVf8Aveh5Kv8ABetf1dMeHjzz919CtSIYkWWznLO+sTq+/wBo1qddmINFzKezcLLw5ocXN/OEEFzucyOS0QqNzEGG1Op6qP8Ajif7k+8XZgerVtIG55qTqC2GfUnPzkrX30VE7DhBlrfAOmDIYzn4n3yn/Amn83S9H960w4UJvZRyQZp8CacRs6Uctnl9qPgUzXZ0vR/etL7KEnZQgzb4Fs+bpejP+ZHwKp6bOlHLZ5f4lpPZQjsoQZx8DmfN0vR/+Sa/wLYdadL0QP2laT2UckvZRyQZp8C2fIpeiCPgWyIspxy2Yj6JWldlCOyhBmp8C2/Ip5cdmPageBbdbafowtK7KEdlHJBmnwKbEW045bJsfQlPgW35LPRNWldlCOyhBmw8DhwbT8uyanfBDuZ6Jq0fso5I7KEGbDwNaNG0h3iiyfsTPgS3kz0bVpnZQjsoQZoPAsTItBOvxVPPy5JvwIEW7kfJ2NKPotWm9kCOyjkgzM+BIy8XLT4qnl5N1A8CBJO7nr8VT/yrTOyhHZQgzQeBTYiGR+yZ/IJ48Dx8mn6MLSOyhHZQgzk+CDfkU/Rj2o+CDfkU/Rx9hWjdlCOyhBlHSXV22sZNR7I0awNtnnDgTPnXAeqw8MQ7z06Z+wBbN2UI7KOSDGD1XP8Anx6Ie1L+S1x1xB81Jg9eq2bso5I7KEGSdH9WraTw8VarjyNoB7jaAY8/AL1vgl3+qftK0bsoR2UckGcHwNadQw+Wm0/aFy47q8p1YzsI4sY1oPcWgRH0HvWpDCjknDDDkgyOl1VuP/EuH93/AOasngZ1eDB4oYk13VC1rmtYWBoBeIJmTwkedX1lBTMpoJaaErUIHFNTkiBpCaWqRIgjtSWqVEIIbUWKWEQgitRapYRCCK1FqlhEIIrEWKWEQgisRYpYRCCK1FqlhEIIrEWqWEQgisRYpYRCCK1FilhEIIrUWqWEQgisRapYRCCKxFqlhEIIrEWqWEQgisRapYRCCK1LapISwgitShqkhCBoanQhKgAhKhAIQhAJEqECISoQIhKhAiEqECISoQIhKhAiEqECISoQIhKhAiEqECISoQIhKhAiEqECISoQIhKhAiEqECISoQIhKhAIQhAIQhB//9k=;" vertex="1" parent="1">
          <mxGeometry x="1180" y="746.03" width="135" height="62.97" as="geometry" />
        </mxCell>
        <mxCell id="ZvJXKDiQZ_GDw80UsZBy-90" style="edgeStyle=orthogonalEdgeStyle;rounded=0;orthogonalLoop=1;jettySize=auto;html=1;" edge="1" parent="1" source="ZvJXKDiQZ_GDw80UsZBy-89" target="ZvJXKDiQZ_GDw80UsZBy-88">
          <mxGeometry relative="1" as="geometry" />
        </mxCell>
        <mxCell id="ZvJXKDiQZ_GDw80UsZBy-91" style="edgeStyle=orthogonalEdgeStyle;rounded=0;orthogonalLoop=1;jettySize=auto;html=1;" edge="1" parent="1" source="ZvJXKDiQZ_GDw80UsZBy-92">
          <mxGeometry relative="1" as="geometry">
            <mxPoint x="1360" y="640" as="targetPoint" />
          </mxGeometry>
        </mxCell>
        <mxCell id="ZvJXKDiQZ_GDw80UsZBy-89" value="" style="shape=image;verticalLabelPosition=bottom;labelBackgroundColor=default;verticalAlign=top;aspect=fixed;imageAspect=0;image=data:image/jpeg,/9j/4AAQSkZJRgABAQAAAQABAAD/2wCEAAkGBxIPEhUQEhIQEg8QFw0QEBIQEBEVDhEQIBEWFhURFRMYHSoiGCYnJxMWIjkhJSkrLi4uFyAzODMtOCgtLisBCgoKDg0OGw8QFzclHSA3LTUvLS03MCstKys3Ny0tNS01NS0uKy01LTctKystLS0tKy0rLSsrLS0rKzcrNSstLf/AABEIAMIBAwMBIgACEQEDEQH/xAAbAAEAAgMBAQAAAAAAAAAAAAAAAgUDBgcEAf/EAEIQAAIBAgMEBAoIBQMFAAAAAAABAgMRBBIhBTFBUQYTImEHFBYjMkJxkZLRM1JTVHKBk6EVJENisaPh8BeCssHS/8QAFgEBAQEAAAAAAAAAAAAAAAAAAAEC/8QAHBEBAAICAwEAAAAAAAAAAAAAAAERIVECIjES/9oADAMBAAIRAxEAPwDuIAAAAAAAAAAAAAAAAAAAAAAAAAAAAAAAAAAAAAAAAAAAAAAAAAAAAAAAAAAAAAAAAAAAAAAAAAAAAAAAAAAAAAAAAAAAAAAAAAAAAAAAAAAAAAAAAAAAAAAAAAAAAAAAAAAAAAAAAAAAAAAAAAAAAAAAAAAAAAAAAAAAAAAAAAAAAAAAAAAAAAAGwAK7+O4X7xQ/Vh8x/HsL95ofqw+YFiCt/j+E+80P1YfMeUGE+80P1YfMCyBW+UGE+80P1YfM+eUGE+80P1I/MCzBWeUGE+8UP1Ijyhwn3ij8aAswVflFhPvFL4j55SYT7en72BagqfKTCfbw/f5Dykwn28PdL5AWwKnykwn20fdL5Dykwv2y+GfyAtgVPlJhftV8FT5Dykwv2v8Ap1P/AJAtgVPlJhftP9Op8h5R4b7R/p1PkBbAqfKPDfXf6c/kPKPD/Xl+nP5AWwKjyjw/1pfBI9eG2pRqejUjfk9Je5gewAAAAAAAAAAAAAPJtat1dCrO18tOrK3O0Wes8u0VCVOdOckozjOL7STs1YDj228K6UnJehfV8vb8ytUmbftNq7vxvfkarjKHUvMtaT386f8At/j2bkjGmySuZIx48ApQt69/wP8AyQRJ2YjNcn8MvkSU1yl8MvkASJpBTXKXwyJKa5S+FgfUiSiIyXKXwszxgBjUTIok1AmoAQUTJGJJQJxiB8SJxiSUCagwPiiSSJKm+TJqm+X7FEUiaRJU3yfuJqD5P3AQSJpElB8mfVHuAzYfHVKfozku6+nuehZ4fpHUXpxhNd3Zl8v2KfQjovW97iBt1Db1KXpZoPvV170WFHEQnrCUZfhaZz6Uo7+st3KUbHyFeEXfrVfhecbr2NWA6ODRqPSOVP8Arwa5TlF/u9f3PdR6a0VpUlS9sKsP/Fv/ANgbWDwbM2vRxN+qmpuNnJLeuXce8AAABVbawymndXv8i1MGIhcDke25yoyyyu48G/8ADKnEY2yutdUn3rkb90p2SqkXocwx1GVNuD4arvQGwdHqdNKo3F5VkcYtJ5fSuo6ablpwLuFKk3ZQ5PWmrfujW9lVstGpN5ssXRuoU5zm+00rRjq9/wDyx7oY+FOTllxMsirJqOGqtycXCMsuvHRrmk7bgj1V8bShKUPFq8srlHNDDRcHak6l4y4rTLf62hCG1aTt/KYnXq9+Fpq2ag6ut+Vsr5S0MdbD4SpNz6qnOVSVdzlKqo+cjTVGas5au0nF23cdTx7KeBqzrQeHp0lhqlGhmnPsznkdCnl/7eyudwLGltam7fymIV+p9LD0VbNRdTXXhlyvlJpd5KlteEml4pXV+o1lSoJLPTlPXterls+9rfvMeJwWCowdSNCi2lSdktXGMepi78csZSS9xS7G21s/EVVTo4aCm+pd3TcbRilSi7teqqjSXJ2Ctgp7Yi7fytVX6jesOrZ6cp/W9XLZ97VrrUU9tRbS8Wmr+L6uWH0z0pVOEuGWz73pdXZr2I25gqFbqPE6fWZ8PTTjCNs6j1dPXuU8qfBNn3AdIcFOvHDxwdONWTtFulTy3p0pqOu/SKlFck7EF/T29F28w1fxffWw3r0pVOE+GS3fe6uk2Twm241P6Sj2aMtcRh3fNRlUt2ZPdlt33utNTHXWHpScVg6XZlRgpKOGitKEnCSu79lOULb1mdtCFDG0I2y4WjDNGj62FWni83GGj1tFOHKzdtEyjNHasa1GrJ0pJUoYaralXhVqyzU1VyxVKV01uX1t6uivqbViv6W0npUejxHq0lUt9JxvlXOSa4EHXpyw+MllhTpSpYTsLxapThF4dWjlotOSV16T19V2saxgMThMXVjRpVKLqSWKtnwNS1nhVBu7nyp681Zc2BtU9qxV/M7Rdut/qVdctOM9L1eOay70z7U2rFZvM455et/qy7WVRel6vHPp+F7jVdsY7C4epOlUqU1Pz97bPzq06UIp3z6+jre11ppbXPthUaNHxidSGTE9ZOKjs+lKcethTnHOpTtJ2hrZu91fcQbDW2pGObzGKeR1V9Mu1lnGN1erxzXV+T3B7QhfL1FTe1eVenb6aNK+s/7s3sVt+hr+y+ox0a86dVRjF1c3WbOw+sqlRVIrWTzWVB6vfdN6orsJtihWxEYQnPrKk8kf5DDLLJ4qNVXad3a1u99rfYDYatd15KNGjRV1Xb61uTSjPJdOF97a04X1tqY+je3aNSvTw1XA0pKpOFFShUq5oO+Rylmk8yu1u5lhR2JCVKKzxlJutUpThTjTl2pN3WRrT/NrspcNhsLSqwqqc41sPK6cKFVxdSFSNNya1T1a7uPC5I5RPklLnE4qnTTTwdKdqSqylGM7vz3Vp+sr3adlp+Reba2fh6UaU44SglKNd1IOmndqmpdlvVbmk+JQPaVOU9yc7p5v4fBv6XJ6Tg+K92veeivt6VVRzTxMk3BRzYKNouUpRvrT09B35K3NE7L1e/ot4viarpywNBWp0al3Ti9ZdpaZVa12nfu3cavF4qlQ08Ww83GlCo31dGMpN1FTyvsXurX04LcSwm3JQ9DxyGbI31eEpwTvCUlfscMrXc2lxML2y99sbuctMLTzfRKr9Xfw/FoXOzGmw7fw1GjCnUWHw0PN4mUo9RRyzahFrVx042148TB0SqwxMpRlhcK4xhRk5KnRdpShmcdFbS7TW+77ipxe3alnf+ISydY1eFJ6pQel1xz6fhfIR23UWl8fvkrqVOKuqqp8H/dm9i/IZ2Y0jW2j1UowhSw85KGFs3GipzqSmouLsk21bM9FuJdPcbKj1cYRoUnapLKqNBuaUYWa0bi12uW/ja5Xva1ZyVp4xJuK1q01ZOpKKd839t9OD53MeIxXjFoyWKavRcnLEQnHWEn2o5nfda3G+giyabR4FNq1MTWxLnJebhRio2im79pyskvYdaOb+CvD0IVa7oxjG8Yqdm5PMpbm2dINIAAAfGj6APDi8HnW40XpN0SqVE3GnJvestm7/kdIAHFNm7FqZalDEUK6hJ03JZKsG7SbWWSs96W4VejGJnGpHq6Nqnje9Yx+nUjJXtLlF3tbW1rK52sAcxobJrcevdnVay07K0mnZ9nhay7t9zDgejUqU60owxEXXnGtO2fWak5P1dE72a5HVABzTG7DqVYu1GedqMM06NSV6edScJW1aduZU7H6AeKVZ1aVKazyg1mo1M1OKkpOnB3sk7W3bkjsIA5bW6EQniIYp0JutTslemurk/tJQtZy/u7lyRiw3QSdOtPEwpxVeopRk/F/Nxjay6uGbsPm1v13HVwKHNcR0UrzqSqZY2nKnNKWFpSkrUZU3227tu+96pXW5mKHQmvpoll6pJLC4VJZaEqWnL0r9yWXc2dPAHOJdEqvVdS6GeMo0YVZR6ilKrlSV5KLS3R4btyK/Z/g3jQkp08G1NKpFN14NZZRcXFxcmpaSa1udXBmeNjluM8HEK83UqYODk1Z3r2VuCsnZW7j14noG6tNUp4ai4RUEk625Rioxu0rysorfc6OB8wtud4HoE6ClGlh8NCM7OaVWXaajKKfoO1lOWqtvMeF8HEac1UhhsHGpFqcJdZUvGXNdj8zpAHzBbSfJXEdlWwqyJKPbqdld3m9Csl4N5ycm5w7Tm35/EW1mpu2mmsV7N246SCxxiPIS3OY+DXW7lTve/0ld69b1nP63y3aE4eDSKs81O8XBr6Z2alKUd8uc5e86GCjn0PBlTVlmoq2RLzdR2tGUY76nKcl+YXgwo2tmoWta3i8rW6vq7fSfV7PsOggDQ34M6LveVF5s2b+W33UVK958VCPwon/ANN6N75qd9XfxaO9zU2/S5pP2o3kChpEfBxQXrR0s1ahTVu05L95N+1s+x8G+HVmpyTWWzjSopqyaVuzpZNr8zdgBSdHujcMFKco1Kk3NRi8+SySbemVLffjyLsAAAAAAAAAAAAAAAAAAAAAAAAAAAAAAAAAAAAAAAAAAAAAAAAAAAAAAAAAAAAAAAAAAAAAAAAAAAAAAAAAAAAAAAAAAAAAAAAAAAAAAAAAAAAAAAAAAAAAAAAAAAAAAAAAAAAAAAAAAAAAAAAAAAAAAAAAAAAAAAAAAAAAAAAAAAAAAAAAAAAAAAAAAAAAAAAAAAAAAAAAAAAAAAAAAAAAAAAAAAAAAAAAAAAAAA//2Q==;" vertex="1" parent="1">
          <mxGeometry x="1193.38" y="834" width="108.24" height="81.08" as="geometry" />
        </mxCell>
        <mxCell id="ZvJXKDiQZ_GDw80UsZBy-93" value="" style="edgeStyle=orthogonalEdgeStyle;rounded=0;orthogonalLoop=1;jettySize=auto;html=1;" edge="1" parent="1" source="ZvJXKDiQZ_GDw80UsZBy-89" target="ZvJXKDiQZ_GDw80UsZBy-92">
          <mxGeometry relative="1" as="geometry">
            <mxPoint x="1360" y="640" as="targetPoint" />
            <mxPoint x="1302" y="875" as="sourcePoint" />
          </mxGeometry>
        </mxCell>
        <mxCell id="ZvJXKDiQZ_GDw80UsZBy-92" value="" style="shape=image;verticalLabelPosition=bottom;labelBackgroundColor=default;verticalAlign=top;aspect=fixed;imageAspect=0;image=data:image/jpeg,/9j/4AAQSkZJRgABAQAAAQABAAD/2wCEAAkGBxISEhURExQWFhUVFRgYFhcYFxkYFxcVFxgYGBcYFhgaHiggGBslGxcYITEhJykrLi4uFx8zODMsNygtLisBCgoKDg0OGhAQGy4lICYrLy0tLS0rLS0rLS0yLS0tKy0rLS0tLS4tLS0tLS0tKy0tLS0tLS0tLS0tLS0tKy0tLf/AABEIAOgA2QMBIgACEQEDEQH/xAAcAAEAAgMBAQEAAAAAAAAAAAAABgcBBAUIAwL/xABOEAABAwIDAwgECgUKBQUAAAABAAIDBBESITEFBkEHEyJRYXGBkRQyobEjMzRCcnN0ssHRUmJjktIVJCVTorPDxOHwQ0R1gsIINVS00//EABoBAQEBAAMBAAAAAAAAAAAAAAABAgMEBQb/xAAmEQEBAAIBBAECBwAAAAAAAAAAAQIRAwQSITFBBbEiIzIzYXGB/9oADAMBAAIRAxEAPwC8V+XOAzK+NTUWyGvuWoXE6oNmSs6h5rWdVOPHyC0qraUEfryxtPUXC/lquRU74UTNZb9zHn3NsgkPPE8Xeay1x7VDpOUSiHGQ9zPzIX5bylUfVN+6z+NNIm7b9Z819Wl3WVD6flCo3f1g72t/By6tPvbSO+e4d7HfgCmhIGyO42K+jZAVzIds07tJWeJw/est1rgRcEEdYzCK2UXxD7L6goMoiICIiAiIgIiICIiAiIgIiICIiCCb4b3tppDFG3HLxv6req/WezJQ2q21UTZySkN6gbN8sh7F9OUuidDWOP8AX9Np7LAEd4I9o61GWw59K571uRluzzx/p37if/HJcXalZGxpcR7BcldGVoAUU2xHJMXua083DbEbXsXAkEjqsDnwzS2T2Py7bjODHexG7eb+g7zC5sk55oNAGAm5yzD+/uWorlJNaSb+Ung3qY3VjvMKT7B3ngnODCQ7qcGns99h4hVxSVT4nYmGxsR4ZH3gHwW3s2mlLhJHm4dLLU5kHzsR4rG2pLbqRbpqIvo+bfcvj6e+M4opS0/qn8rE+K5mydotqYg8a6O7HdqxOwXVRLdkb/yxkNqG42fpiwcO06A/7zVl7PqGyRtkYbtcLg9YKoF12EcQTbt8FeG6uzjT0sULvWaCT2Fzi7D4Xt4LLTrIiICIiAiIgIiICIiAiIgIiICIiDib07tRV0Ya+7XsJMcg1YTrlxabC47BoQCqf3m2W+kmMT7EgAgjRwOhHkfIq+1WXLBQEugnAyIdGT2jpNHkX+S1KlV2YzIDnqLdyim0p5GSPDS8YwMbQTYmxabgai1/B3apM+dwybay5FTWS3II/tfkFqzabRyNrxcYSQdQWmy/QY/+r/sldlkzyRfDa/bdbhBU0I06GQ/8MjuaV19k1HNRuvzsb7Obk2wex2dici3VwuL5FbVRUvZbDxv1r90+3J26E+BI/NNG3Y3WoHRxOldcGZ2IN0s0XsbcCbnwAXRxXK51PtOZwu/26+yy62yKQzTRsHz3tb3XIB/EqCf7sbki8dTOb2AeyLgDq1zzx68PdfqU9WAFlZaEREBERARfKWcN7T1LVkq3cMkG+sErkulJ4k+KC6Jt1rrK5jWr6tYit5FrMLhx819Gy9YQfVEBRAREQFp7W2bHUxOhlF2u8weDmngQtxEFA70btzUEp5xpdDfoygHA4HTER6juwnzC4c5bqPeCvTLhfI6Li1m6NBLcvpISTqRG1pPi2xWu5NPPVPI0usS1oH6jXOPcDa58V8aitZh5wFwaZCwN5qPFcNa4m4dpmrzqOS7ZTzfmHN+jLKPZjsqEq8oiB/8AIf8Adam006lbPC4uEdxzZLTjbHZxGRLHN4ZdQWvE/s9inHJhudSV8M8lQx7nMncwYZHsGGwNjhIvmVYFJyc7Lj0pWn6b5JPvuKbXSk6drnuEbGuc92TWgEuJ7GjNXHuHuj6M0TzD4Y3s3URgi3i63leylFBsyCAWhijiHUxjWfdC21LTQiIooiIgLSqpjfCNFuqot/d4pjPJA1xjiY4tNsi88bnq7NFZNic1m26eK4fI241A6RHeG3t4rhVm/lO31GPf+6B7yfYq7bWt4NLz7PM6eC+c9W8/NA8bq9rO0tquUsj1abzkPuwLTPKdNwgj8S4/kqx2tteQyYI7ZZHK9yf9+1aNVWzsdhLxfLQAjPPI2zV7Lrfwnd50uOn5S5z/AMGP+1/Eu1Rb/SO1gHg4j8CvP42vOPn+xv5Lqx7w1UDm3kY8EYrNwno99slnwu3oGDfRnz4nt7jf3gLoU29NI/LnMP0hYeYuB5qr9n7WMsTZG4SCOojPzXyqqzF6zPxTS7XZFMHAOY4OB0IIIPiFsMdcXVEbN2rNA/FDIWni06H6QOvtVy7s7S9Jpo5sOEuvcdTmuLXW7LgqK6iIiAiwiDKLCIMryhWfFn7Q/wC61ergvKNcPg3faH/darBcfIX8nqvtJ+6FZirLkL+T1X2k/dCsxQZRYRBlFhEGUWEQZVVcqmwnNmZVNaTE4WlI0bJoHO6gRYX0uOsq1AjmgixzB1HYrLoedmjCSFqV8xLcuOXsJ/BSPlB2eIK17GDCxwa9oGQAcMwBwGIHJR2omjwYSc+zgevzW2UQrOZDInxucXkDnWub863SIcNWm9rWuLX45aUkPFty05j8j2hdOo2fDe/OHM/qhfmPZUbsw8nuI/JZk0e3M5p3UVsbPiBcQRoL9drPbcnsDbroN2PFxc/+z+S2KGjp2OD2zSNcNCC3K4sg6mwKoRVJgjJfFI27TYixDbk2OjSQ63eOtSGoddcrYwp43PfzjnyPyLnDMC9yBa+ptfuC3nSZ3GYTS27u2zDs2SZ8ccTbyOOXYOLndTRxKvLZ1EyGJkTBZrBYdvEk9pNz4rQ3U2cyGmjs0BzmNc82zLiL2J7L2XYWVEREGEREBERBleUNo+o77RJ91q9XryhtP1X/AGmT7rVYLi5Cvk9V9pP3QrNVY8hPyeq+0n7oVnKUYREQEREBERACysBZQQjlK3afUMFRCMUkbSHNGrmajD1kEnLjiPcacEIfcZePFemlF9ubhUVS8yFropHZufEQ3EetzSC0nttftWpUsefpKBgOtvIrZp6CzC8YyLj5oF+7pdLwVn1/JDi+LrCPpxB/tDm+5Q/fXcibZ0DJXzslBmYxlmFpabPdfMnLo6K7TTi0+zy8OtcWFs8DScjo0vuT2C65v8nNvYk+IsfJbew6J9TUtpmuDXSzOs4i4D8LrE28VYcfI9OTd9ZGO6FzvfIFNiv6SlYzQZnjxUv3K2E+sksB8G0gvdwA6h+sR+al2z+SimZbnZpZLahuGNp77Au8nKc7PoIoGCKJgYwaAe89Z7Slq6bACyiLKiIiDCIiAiIgyvKG1fVk+0y+5q9UVtSImOkIJDRewtf2rzhtPdqYse7FGCZ3vsSfUc0WzAOdwcvam5PbOWeOPurI5Cfk9V9pP3QrNVUci9YIXTUjs3yvdKHD1QAGixvnfPq4K2E3sxymU3GEREaEREBERACysBZQEREBVvy7/IYftTP7qVRna3LBWCaRsMdPzbXuDMTXlxaDYFxEgFza+nG3avzv9vfHX7OpIw9rql0jJJI2A4W9CVhzJIabkHCXEgEd6uk2im51QItoQSFzGhs5u57sLGjCRdzuAF/wV+7tRztxmWbnWSvc+EYcOBl8gCSS4OBxC5yvZecqNvw2JzcTGS3kBAIwAjFcHXIHJXgeU/Zl2PEr8AY/PmZPm4b5YeAurSJ2i/EEoe1r25hwDh3EXC/ayoiIgIiIMIiICIiDkb01QZAQb9Mhotw4/gqv2iGYSMTx/wBjT/5hT/f+fDDH0S4mQacBYgnwuqr29tARgEhzgbiwsBe2RJIJy6slwcnnJ0Op85ab+4tbFBtCMlz3GT4IDm2ts6QtAJPOHK/YruXnDYMp9NpXa2qIibdQe0k+S9HYguTC+F6HPu47/YiBZW3eFhZRBhERACysBZQEREHk3adK+GaSFxcHRvcw6atJHX2LcZst0DqMuc1wna2RthawMkjLE/OPQvfqIXpGr3ZoZXuklpKd73es98LHOdYAC5IucgB4KquV+mEdfRBrAyMRsa2wwsFpH9FtshYEZdoWtppBGPDfSSTYYyPE3su5Dyc7UdEy1N8yTIyRA/CAYdXefUo/U/8AM/Xt+8V6O3Kp3R0NOx7S1wjF2kWIuSRccDYhLR0dlwuZDEx3rNjY094aAfatpEWVEREBERBgIiIC15q6JhIdIxpGt3AW77lbCrXewYpJwNTiA8rLOWWnHyZ9k27e+9Q17YwxwdbETYggaanhxVc7UoS4WsP3m/msCF5zs0dhcbjyaV+JS8avH77/AOFcFu7t5fNneS7v3aNLsaYSNdgIAvnqNOy62TE/jl3uaCO8E3C0tqukcy0cjGvuDiJechqPUXJELsADyHO6RcRe2bicrgHQrWtsTilnh+9ub41TgKR0p5qCR2FosMwejdzc3WGmfapjuDyl1M1TTURDcLpHNeXFz3uDg5w6ROVvcu1u1yfUNdsyHnWYJA57uejDWynpnoucWnE21hY3tYWspvsPdKjpY4WRwtJgx81I9rXyt5xxc+zyLi5cfBc8ezhPwx3UWFlGmEREALKwFlAREQFVvLv8TS/Wu9zVaSq3l4+JpfrXe5qsFc7dd8JWf9Rb/m16YXmPb5s+s/6gP80vTiVBUNvjv/tL0+WngmjiYyXmmh1mgZ2xOdqBmLknr0V8qCbjvs7adg4/0lJ6oufioSoqqH70ba19Mb65Zk+Q9IXyBaCDkL5HTNfVu8m3Bc+lsya92ZkHxZAI6TRcm+Q7DovQkjjYWa7MA5YQR2EOIWJ5iAOg7Pqsbdh4eKCC8kW8tXVioiq3Ne+FzQHNt869xcajTPv8LEUG3O/912v9bB/cMU5QYREQRvf3bc9LTF9K1j57tsx5ywE9Jx6TcgAc7qDu2sKprpWte65s4hoa3Hliw4iLgE8LqU74xY5sJ0Mdj3HFf3qOPoGwU7Io7loL3Zm56bi43t2lcWd34dTmyt3NOU6OQnKJ/nH/ABqL7eFc2bosaIcQ1dEHYcsXz731U62WMj9L8FH95he/0ne9YldW6xm9bcKBrnZDDf6yL+NZNFJ+pmf6yP29LJaFHEec0PHgtySA3OSvpx4YzGzUS2l35qdmsgpY4Ip2nN72Sc4GFzyCLxEjJoB8VcVLtCGU2jljeRmQ17XG3gV5hoZA4F7Q4jsab5dQtdWFyQPvXOGF4tA/1mOaD049CRYrl7q9HDly3JpcqIi07AiIgBZWAsoCIiAqu5ePiKb64+4K0VUXLptKJwhp2uvLG/G9ufRa8Wbc6XNjl/orBXu8B6dZ9vH+aXp9eW94n9Os+2g//Y/NXftDlDbFWeg+h1LpMVm4RH0259NgL822DjfLJpSomqgm4T3YtpFov/SUnHCfioSNQpPtTeKjpg0z1MMWK+HHI1uK2RwgnOx6lFeT+Rsn8ova5hjdtB7g46FroYSCDfQg+1SqmVQXFregSdSA61vG2evUsVhdlZl+PrAG/UcisVWLC31T152Btpa7gv3Vk9HIHvNs+oZhQQ7c4/0vtW+uOHS5HxMd81PFWWy94KWj2rtR1TK2Jr5YGtLr5nmGE6DIAanQXHWrL5wdY81RlERB595Wd8m1zWxiHAKeeVpLiHFzmgtuAMg3j1r48kG+zNnudRSROf6RUR4XtIGFz8LOkDw0OXarK3z2FRSY4TSwguz5xsbWvDnWJcCAM+1fDY27VLSQMIpqeV7A087JEHyuc03Di46OGWnUp3Ri54707W8O0aXZETp20/xrumGWBcWMyJLuwALzPtiSOWQvzGJxdbCCG4g0Yb3zth1sLq+9v7wekMwS08MgF7CRhe3PLTEFVe0tlxtma9tPHhaTeL4Z0b8iADeTEM88ncOpScmLjvUcc+Um/wDTzTE1VVIPVZAxpOQze8luXdG7yVkb17GkgpambZcIbWy4LOYG4nfCtL74+j6pec+tV3u1vkaQOENHTRF+EO5qNzC7DfDiu4k2xHzKkLOUWsIuKa/g/wDJO6E5+O+qpXb9BtAVTvS45xUTOJGJrg6V9w34PDk/gBhy0AV1cjjNrMJjrWStpmwAQCVjGua4OADdOc9W+TupRXbe+bqqrpZ3sa11I8uY0OycSR69xf5vAhXPu3tN1TCJXNAJPC9rWGl1Zdt4ZzL06iLKwq5BERACysBZQEREFR8uO3qqmkpmwTPja5jy4NNg4gttdVttSpdNDHNI4ukc8AuJJJHC6vbfvcKLahjc+WSN0QcBgDSCHEE4g4X4cCFWfKFuQNnU0JExkBmDbFmEjok3uHHq6lqVER2+67qo9dX/APutTaW2KiSRs75XmUAgPLiXADEAA4m4FiR4lfrbEnx5/bYvLnPzVsN5EIS0B1ZKSL5tjY0Zm+hLvertFJEk+F8uA8OCvjkdt6JUEkBvpDL3F/8AlaftFl828iNKGOb6TOXE5OtHYC2hbhz8wv3yfSMpW1tKZCDHWFuLm8WJscELL20BOHTNZyvg3J7WFVMfh1abC5uCNL5i1/JfWRslhbCTxvcDstkVpuqcYYWyW6IJ+Dve4yIvotmKrbhzcSeJw2ue5ZaeduVdhdX1oAuefbp9miVo/wAtv/Rd5H8lo7N3fpq3a+0vSGYxHJE5oxOaLmCIG9iLi3BWhzY6h5LW0ZXM25K5obhJFydCR7l01y94G3YOq+ZGoFuvULrdV+1lpy8P64rHaO9NPM/4WlkmMZLQ58ccmHrDS92V7DTsXd3N2lTTy80yCWF2EuDiGsbYWBAwPJvn1aAr90+z42NADR2mwFydTbvWxRc0yeNpdzZeHWcCGkWF9TpdeDwdT+bMde7816nJxTstbW8sWF/N3ux8RxNf0w7OxBD73FuChMtDAMhBT2+zw/wKWbzRsdK20zn9A/PBsbjLLu9ii1QAL9L2qdZnlOXKY2yb+E6fDG4Tcfl205o24IpHRta24bH8G0dIaNZYDUrkV+9tTFa89Qb3taR3C363avvOxpvdxHR4HU3Fhn/vJa2zqNshcHZ4Rcce9a48+3Huytv+t5YTepHNn30ld6z6l3e8n3uUq3D2zK6Wna2SQRF7WiPEQwN6sANgOxaR2RH+iF1tx6J0NYzm2kscbO6OINBz1t0Mxrkuxw8+Oeck37cPLx3HG2reRYRe68tlYWVhACysBZQEREBVly9fI4T1T/4b1Zqr/lhoxNDSwuNg+pw3Fr3McmEC+WbrDxVgrvf7YlPFA9zI3Me6YPx2kDHNlfUERi/Q6DBGLt6zqvQYVAcpzS1kAuSS+TnDcXxBsTgx+GNmPDiuHEE9M5q/wlSMqiuULY1TT10pp6mSJkx51wbbNz9b3c3PokccgFeqq7lQb/OWm9vg4/vSjI8O9Qqu21u1QbNrqo2AHRZisLZC4ceCyys2oQR6fUCxza5obwB9Uu6iPNdaCZoYWEvGJ4eDE9rD8WGEG+Vswe+3UlRI17i69rgAYrOd6rGgu69NBrdUT3kj2PIyOarmldLNO8BznakMAFz7BbqYOuwsFRnk8H8zb9N/vUmUVhcfeSezGs/SNz3D/W3kuwoNvdt+CB5dO/m2jotLmut4G3E3XS+oZZThswm7fHhz9NJeSW/BdcbeEMLDiaDlrxHcdQvvsuuZM0yRvDmkXyN8vwXH3lqbiwK+Vkz7pLLHtY6QlzSHjpHC1zSSScmhwuT2dq41LvhUNoTThkJDXMGMxkykOxvzkxcHNGS7m0Y7Qzn9jJ54fyuoZTD+azfWxe1k/wCS+r6XGXDbyeqysz06O7EzjjxOd8ZEdSej07kDxHmFa2zoQ1mQFzqeJ8epVFuqPhHD9n/ixK2dhy4ox2Cx8P8AReb9Wxs1p2uhy3jZWJHkFdfdHaBiqWX9WQ4HdXS9U/vW8yubLII3XJwg8TcC3fouEN5KVzy2OUEg8AevgbZ59S6XT48uOUyxxvj+HPy3C43G2PQCLR2JXc/BHKQQXNGIEWIcMnCxzGYK3l9VLt4YiLCoLKwsoCIiAqy5fPkUJ/b/AOG9Waqy5fBehiH7f/DkVhUQ5UWvfHC8YTGx7hYEXZjDcLT8K4n1TngZpmFfYXnTlB2xFUshMbiS2aUPa8uEjHlseJvNuJwMuOBIuHdRXotqVIyqz5UB8Ow/s4/ZJJwOuunFWYoHyhbGnklbKxjpYzGGFrAC5jg5zg62rmkOt2Ye1SFVzhytn16C/wAz5t8hnr2j9JftjhlmcrdRFjh1de4z7OPat9+xJtDT1PcIJbexi/UexKgkEQVJI64Xj2uaFpFlcnw/mTPpP+8VJFw9zdnywUrWTWDy5zsIscAcbhpI1I4nrJ1C7iy0+c77NJ7FXm/YxCOMC5OVusmwAU62g/RvioFtCqLq6EtidKGyMu1vAYgMROgDb4s/0bcUHT3R2IKSBuKCOGYtPOYOIDnFl8yAbG5tlcnuEX2hFz9Tj5ovaHWfa4DQQ7pOI6rZDUlTrb1Vhje7r0XE3dDTRzkXxc8A82sPUa5oB+dk6/YSQpZL7WWz0gdVuxUSNkgjAfJJzuAYgOhZ1m4jYaWOnEjOwJj7OTrarYJo/Q5MTpYi0B0ZuGsnDiDi0u9vmrL3NfOa5vPNAGKQMsLHDzbtbOcNQc76WyVopJJ6LbfbzfujuHtCnfLNU0pZEKWcYnFhs7BdnRDidQLG2oUy3K2aY5ZHPILSccY1wgZHXQm4/dPXYWZvIP5pUfUyfcKq3ZlRPHMXSACJpGC2uHMOJzN+jnoM7ixtcrjL7hLZ6SraWzoJZoxURslic4AteLi7smnPqJGfeoLtjdz0Wq+IZCx0jixsfqYQ4hhB6yADnxJyGisSujxR9oTb1R6RBCMDjjY8l4HRa9lgWntJxW+iqjZ3NqfXiPY8eNg72281J1X+xKrBJFJoL4Xdx6Jv3Gx8FYCAsLKwgBZREBERAVZcvnyGL68a6fFyaqzVWXL9f0CK2vpAt381KrBCN8Z5JKZ7n0b6YiWJvOPwF9QA2wxvLQ9zgM7tuNblegwvO28zIDTT8xOJYo5ohHE443QvOIPMchu4xPaGkWNvWGoXoluiVIyiIooiIgIiIOJtWotid1CwXK3QgIjmqDrK/C36LLj3l3kiINPedxe6OBurnAeLjb8VJdq0zY6bA0WDQAPAWv3oiCKbE+Wwd7/7p6sFEQc/eH5LUfUS/ccq5az4s9rfeFlFRNq+Gz3N4OzC+e7ZuJad2nrDudk7yNj/ANyIoI/NTlrpIzlncfj7VN9jVXOQsedbWd9JuR9ov4oiDcRZRAREQEREBVpy9/IIvtLf7uVYRWCiH6+K9hN0RFckjKIiyoiIgIiIP//Z;" vertex="1" parent="1">
          <mxGeometry x="1320" y="765" width="90" height="96.22" as="geometry" />
        </mxCell>
        <mxCell id="ZvJXKDiQZ_GDw80UsZBy-96" value="" style="edgeStyle=orthogonalEdgeStyle;rounded=0;orthogonalLoop=1;jettySize=auto;html=1;" edge="1" parent="1" source="ZvJXKDiQZ_GDw80UsZBy-94" target="ZvJXKDiQZ_GDw80UsZBy-95">
          <mxGeometry relative="1" as="geometry" />
        </mxCell>
        <mxCell id="ZvJXKDiQZ_GDw80UsZBy-94" value="DATA Center&amp;nbsp;&amp;nbsp;" style="rounded=1;whiteSpace=wrap;html=1;" vertex="1" parent="1">
          <mxGeometry x="294" y="980" width="120" height="60" as="geometry" />
        </mxCell>
        <mxCell id="ZvJXKDiQZ_GDw80UsZBy-102" value="" style="edgeStyle=orthogonalEdgeStyle;rounded=0;orthogonalLoop=1;jettySize=auto;html=1;" edge="1" parent="1" source="ZvJXKDiQZ_GDw80UsZBy-95" target="ZvJXKDiQZ_GDw80UsZBy-101">
          <mxGeometry relative="1" as="geometry" />
        </mxCell>
        <mxCell id="ZvJXKDiQZ_GDw80UsZBy-95" value="" style="whiteSpace=wrap;html=1;rounded=1;" vertex="1" parent="1">
          <mxGeometry x="480" y="890" width="160" height="310" as="geometry" />
        </mxCell>
        <mxCell id="ZvJXKDiQZ_GDw80UsZBy-97" value="" style="shape=image;verticalLabelPosition=bottom;labelBackgroundColor=default;verticalAlign=top;aspect=fixed;imageAspect=0;image=data:image/jpeg,/9j/4AAQSkZJRgABAQAAAQABAAD/2wCEAAkGBxISEBUSEBMVFRUXFRgWFxEVFRYWFhcWFhUWFxcYFhgYHCggGBolHRYVITEhJSkrMC4uGB81ODMtNygtLisBCgoKDQ0OFw8QFy0dHR03ListLS0uLzYtLS0tLTctLS0tKzEwKy0tKy0rLSsrLTcrKys3LS0tLS03LSstKy03K//AABEIAJkBSAMBIgACEQEDEQH/xAAcAAABBQEBAQAAAAAAAAAAAAAAAQIDBgcEBQj/xABQEAABAwIDBAQICQgHBwUAAAABAAIRAxIEITETIkFRBQcUYQYycYGTodHTFiNSU5GSseHwF0JjcnOUs8EzQ4KDstLxFTVEYmSj4iQlVKLD/8QAFgEBAQEAAAAAAAAAAAAAAAAAAAEC/8QAIREBAQACAgAHAQAAAAAAAAAAAAECMRFBEyEyQlHB8BL/2gAMAwEAAhEDEQA/ANxQhCAQhCAQhCAQhCAQhCAQhCAQhCAQhCAQhCAQhCAQhCAQhCAQhCAQhCAQhCAQhCAQhCAQhCAQhCAQhCAQhCAQhCAQhCAQhCAQhCAQhQ1MS0GNfIgmQuftjeR9XtR2scj6vag6ELn7UOR9XtS9pHI+r2oJ0KHtA5H1e1LtxyPq9qCVCi23cfV7UbbuPq9qCVCi23cfV7UbbuPq9qCVCi23cfV7UbbuPq9qCVCi23cfV7UbbuPq9qCVCi23cfV7UbbuPq9qCVCi2/cfV7UnaByPq9qCZCg7SOR9XtSdqHI+r2oOhC5u2DkfV7UnbR8k+r2oOpCgpYppMaHvjNToBCEIBCEIBCEIBCEIBCEIBCEIBCE17wBJMDmUDlFWrtbqfNxK4sR0jOTPrH+Q9q4ruJzPM6qjrrYtzu4chr5yomlRSllETBycCoAUsoqcFODlAHJweg6AU4FQB6cHoJpSyorkocgllEqO5EoJJRKjuRKCSUSo7kXIH3JJTLklyB5KaSmlyY56B5cmlyjLk0uQPLl5nTHTuHwoacTU2YdIDi15bIEkFwaQ0xnBImDyK7SVBjcNTq03U6rQ9jhDmu0PHzEHMEZghEeafC3Bf/Ib9D/8q6MJ4cYIENOJYZIAm4ETkJJGnlXiO6v+jtNlUA+SMTiQB3AbSAEjer/o4aUqn7xiCD5QakEdxV8ho1KoHAFpBB0IT1VehsIzCMFPD3Bg0a976g8kvcTHnVgwmNa/LR3yfZzUV1IQhQCEIQCEIQCEKm+FHWLhcFiRhSypVqxLmU7N2RcAbnAkkZ5TA1QXJCzIddGD+Zq/Xof501nWjhsQ1xLazGgxaGAgyDEuBzmDl3aIL/iuk2tyZvHn+aPPx8y8qrWe8y5xPIQI8whVEeH2Eki2vA47NsHyb8+pOp9YmHZ4m1HfsWkxyk1FRZhXnTaeiqeT5CZ2xsT8b6Cr7tV89ZlLnW9Cz3qB1l0R8/6Kn/OpmiLC3GNOhqegq+7SjGNOhq+gq+7Vcf1lUTqcR5BSpAfxE0dZFD/qPRUveoqzHGNGpq+gq+7S9rET8dHPs9b3SrR6zKMQe0eioz9O0TB1jUJ/4n0VCB/3EFpZjWnQ1j5MPW90nHGNGZ2wHfh63ulVR1j0Achicv0VD+dVFTrJoOO83FGP0WHj+Kgtfb2c6v7vW90nf7QYONX0Fb3Sp56xMN8jFejw/vUg6xMMNGYvzMw3vUFzGPbrNX0Fb3SkbjG86noanu1S/wApdD5GLP8AdYT3qD1mUPmsWf7rB+9QXXtredT0NT3aO3NmJqT+xq+7VIPWbQ+axmf6PBe+Th1o0fmsZ6PB++UF17c3nV9BV92nDFg6bX0FX3apQ60aMf0WM8lmE97CPyqUfmsb9TB++QXU4ofpv3er7pIcY3jtfPQqj/8ANUQdZWH+bx31cF71H5SsPxp44/2cH/KqgvHbm/pvNhqx+ykmdvadNv8Autf3KpY6zMONKOM+rgvepfym0PmsZ9XBe8QXI40fp/3Wv7lNOLH6f91r+5VO/KbR+axn1cF7xO/KhSiNji/q4P3iotpxX7f91r+5SHE/t/3at7lU78pdL5rG/Rg/eJT1mUp/osZ5bcHH+NBbnYkc637tV9ymjEg6GsfJhqvuVU/ynU/msZ9XBf50O6zmH+qxn1cD/mQWvbH9P+7VvcppxPfX/d6vuVUz1mM+RjR/ZwHtQOstvycb9XAe1Ba+0CYmtPLYVJ/hKSDkbnjiJaGn6HMBCqX5Tm/Jxn1cF7Uyp1kMdFzMWY5jB/yMoNCwXSZblUlw+VxHlA1/Gq9im8OEgyDxCyUdYlD5jEf9n3qWp1pUsOL2Ua7hIBB2YZnJzh5IMA6A6INbQsrd100BlsB6Y+7XpeC3WpQxmLZhjTsNSQxweXy4NLoIsESA7PuHNQaEhCEAvnrw8x1TD9PYyrTtJIp0y17bmlhoYdxEAg6tHHmDkSF9Cr586x302dN4k1WXtIp7ocW57CnBkdwP0zwQU/pHEVazQKry4NNw3WNzta3gMhDRkPZHR0U+MK/9tS/h4j7lzOG5n9bnopOj3jszxOtalHfuYn2IJ9qjaqG5JIQczMe+c5G4DsxF4N0TcRbHrz0yQcc+HbwMGpvwQ1tsFoIIk+Uc+MKCkx7W5NA3CBTkWyXHMPuuBgn6deCe+m66YnOpDzaHMDm5WgOhwmde/TVBMMe6W5gAuYLjo+5s7oA3c/lc+EQkHSD+WdoOykX5vtm6LY80590qKnTddpGdMucLSXw0h14Lobrw58UzYmyLBFv9CTuTtJm666YJ9vBB6GFxd1wuBhzhIBAyjLPOcwfOpajgdc4zGk+Y8DEieErz3NN4cd7OoQ82gtBG6GgOhwJ5x5tV3EERIInQEQg82MrLTIY07IGKmVTU1YzGenCRkIlLUfMu1g1gXhoa1uQydTjfOevfnMLpxFEOlpItiNmdLrriciDOvHimvpSZL5dL7XnVoeIAEGMu8ceCBLt8GID304Lt4Omn+ZAmkc9eE8IhQtaS2205U2nZXAO/pcjtozGenCe6V1kndh8QWk5ZvABDg7ODMnOPpUPZxZZc2y2NnvWXX3XePM5xrx8yBtV03OgGNsC8Nta3ITdTPjnPM9+cwpqLt4ZeM5hDvGD5pE7o1o5fbloh1OSXF8uBqWvPjMDxAAgxlnqPJCVrYNwfDiWF5Grw1pBvkkZzwA8+qCEs3bLJim07K6Hf0uR2xGYz8Xv7k59UGXwDaa4vtDQ3ISHUv6zXM9+cwnupNLbCQWkeJLrZvuuAvmdePnjJSNoFxLgS4gvteJLqYeIAaQYAHeOOUIImPAcDAF7qUOycHk0zEDWiYPry0UQALNnsxIpg7O8AxtcvjuIkzHf3LqY2N4PiXMveCRtLGkFryTBnWI8s6qLYtsskWWxspds5vvuAvuB4eN6skA9zXFz4aQ01gX2227omaX9Zrme/PRPpEBwMD4x9IB0XXk0zENmaJzy8uWQQRvXF5LpeWvJNzA8RDSCIA8nkhPpuAMh0ExcbjL4aW7+cHWdNRnKCOiLALdw7MxTyeBDzmKv5wz00Fyf0hinMeQ3g0EF+TPGg788uHr4KCgyGgXBotIsa4upglxMgOMznz8/ALVphzi5z2nKC0t3I4bt+vegHY58mBoXggiHG0SLGzv8A40TmYx8idLqY3QC6HNk3tnc8v2phoNz3xnnJEubIg2G/dBRsRlFQTIzA3nW5C83byCRmLcdXtbuTdE0Zvgb4Mz3f6LoqOcHQajc7oH5+QyAHGMyT5MlzVcJa4B9rZECk6nDCJnxC7WSM0x9IAuBeLpdNw3mE5ODZdLOUcIQSjFOkCSRLBAALxcJde0HdHf6iohjalsy2bCZ/qZvj+knWOH+iaaQy+MaIg3AQ425NvN28EoptnxqcRFlo2cTPiX6znKDo7SZIJI3ngAtAJAblZLt8TxjPLIaqM4x10ZxNMboBfvAl17Z3B3jTLVR7MZ77SXEmSJc0uyOzN26Pp0TDRbAio0RG8MnG3xbjdvR/JB29GYy+o0VdLSSKebJDiBvzMxw8nkUlKtujOctT9y89tMNdc2oxsCLQIaAf+W7WSpqL2taBeDA1kZ9+qDs2yh6RqfEOE6uE94AcRPnSMcCCRmBqRmB5SNE3EVGnDvtIO83MEGNSggHRjXS6SJJ5c1Yurro5rOlsG4OJ+NOsfNvXl0PFH44qxeAX+9cH+1P8Kog+iUIQgFg/WGao6drGgAX7OnkYiNmyTmRxA/0lbuVgPW0G/wC16pc4t+LowQCTmyDpnpKClFu5oeU+bTyrmwVMOwrw7MB9Ax/ZxQXVUDQAGuJ7jTLYHl/koejB/wClqH/mpertHtVs4SDC9H0i9oLBBIBGa4C1gLxY0xoc8suPNerhT8Y39YfaF5dVji98AmNYGgt/+33K9Mz1398hzWQAKbZnWJnyZfZyQSyZFERGbYzMnIzGX3FNINodBDScnQCOI82iU0HAhtpuOYbln5/NxWWzgGQSabTMwYMCDEaZ8PoTrG5N2TQZ1IMnUnK2PwfKmCm4l0NMibhAkZz59OHLvTbHWh2ds+NAj6Jy01jzoNz6D6oOjq2Fo1XGsHVKTHkNdTgF7ATE0zlmqB1leD1LA9J4ahRc9zHCm8uquDnSatuoAgADlxXX0d4SPbSDX47H03NuaKdONm1rS4Uw2RmLQzLLPLTMVXwm6UfVr4etXq1axbbc+qN4W7Jz2jm0OL45oOrHYGk6o4uY0l0uP6xe+fsXJ0jgKTKF7WMBuIkgxkaesfrFer0kIquHKRl3VHhcXSzowp1G+cwJ40uB1VnbOXTzyxhdc2iIAzZvZzP5xG6PvSinTAJNFsG63WGwMuEuzyn7M1GaLrgxzDLhkCAQRPOeX3pdg4l4a0ktuuyggHL7J07+ajSXs7PE2QuuzPEiJ0tgfjyp2zpneFJsAC7xjq6MzE6cvWubZus2kGy7x4ETn+bp3TCkNJ4LWlrrnDdb/andMyPVqZQW3q38GcP0hjHUqzCxgpOe2yA4Frw2Jc0iIOn2LROkOqbAUaFWox1eW03PgvZaS1pIDgGCQsk8H8W+hWcQ+vRg2vdh8qoaQ9wDc4ILgyeERyC9zGeEVV26zGdIuaWPDhVdkXEtDGkDVhG0u5buuYIeP4KYRlXCubUAI21Z0Rxp4Qlpy71z0sBSc9oLG5uA05kLt8CqgGHqcIrVgTp4+DeAAeW671KHDHfZ+s37QrEunl4mnTZWqt2bHABsNgggniTxHs4JKVFhAaaQvy3og5gk5Ebpy4jipOkGOdiKtocchlAyy1BnP7uK5w07PaWm3LeIGsECROcE66SSl2TUPNKmYIpMgRdrBkZ5Fs68vWh1OmCXGkwggw3PMiI0Ejjr9yjqYd8tBa6XAWgiS717vqTm4aoXOZa4uEktyyBjV0w7nx9Sio6lIAFuzZdJhxHijKAQBvZTmFsfgd1X9H4rA0a9UVA97STaWBsh7hkCw8gsc2TjTNS11oMXxoTAMCZ5d30K5dE9NmnTDH4rpGmB4rMO4CmAYOUnvJKDr61PBLD4Cvgm0C87WrD3VHBzoa9gABgZbxVc6Vw7HE1C0XPxGKLjGsV8vtKTpjpOpVq4R1WriK1tWnPaDcQ41CXNpyTukCn3zPIKTpPIWSJbXxU586+WXCYQebVwtPY1HWtkaEiY3Kh08oH0Lia5pDfi2ZAS60b3q0PIc+EL0qh+Iq68NNfEq6Ly3UHizdcLog6zp43yNfWeSt6Zx3UtzLrtky3QNgRPE6So7gAW7NhJORtEtkcMoP41SDCPvLLcwAbZyHfdOevPmo20XFhdBhpguOREch5+A5qNFNQEAbNgjV1oN2XERu/jRe/4FdGUcX0nQw9WmBTeSHMaIMBpdkYy0/Gq8B1FwDXWkXRB1Jnnnl5/Wu3oxz6VcGajCACTScQ8NL2XWPByfbcAg3wdUHRfCnUE6xUOflyzXz/iaQY/FU2ZMbUe0D9UuaPPCtOM6ebubHEdLTcb78U/NuzdFpa/W+3ONLstAqpaSzEPOcPhxPNwJ85MOQenhDuN8gVl6v8A/euD/au/g1VVcM7daN/xRFoB59xVq6u3NPSmCguna1JDhEAYaoRw1m/6Arx5cj6IQkCFAFYD1zst6VO6111Ck6S97IEvbEN1zYTPf3LfnLBuu4f+5sP/AEtP+LXVl4S4y7UKpUJB3GyRAdtqroPDIjPyKHA0w7CvBmJYcjGjqvtUzdQm9GtIw1X+x/jqJbymOMx058Ngml7RL83AeMeJXM+m1rnA3ZRaQ862zvZ8134Q/GM/Xb/iC4sSDtHxnFswNBYPGyzCdHuMLG2wAbp+WbY+nX70HZ3ZNfbBkF5uJ7s9E05tnh8ojd79dP8AVKWGYggnRp1d5DH4zUaPDKe9IcdbYeeGkmfIg02W+Kbp1LnRGegn+aaGEkiDlqAMxnO93femkG27hzgWfRwKDXMB1T4J9Gk9+JrB1SlTq2hhIG0bdkZ0EFUnrH8FaWBxNCjSqPeyrSbUveCDDnWjI6QB61ZOjfC+uyg1p6VrUSwFraAwtJ7Wtbc1gD7M8gzXycyKl4YdL1MRiKNStiHYgttbtX020yBuOc21gAhrnPE8fJCA6V6PpmvUdvAve95hxGbqj5+xcmM6Pa2gXtLiQ6Ic8hv5nk+UfUvW6XyrOGm88R5KtQLi6QcOyOkjx+Ikf1eoVjOXTzXMp3CGvLQDcLzdP/Lw+n1JWU6W9IdGdvxhyhoO+Z18nMJHNMgEOkjJpGZHCDH470oYSSAHSJkAZtERmIy+9Ro7s9O2IffPynaa5NnP6fYnGhSkQH2gb2+7LejM8PoOoUBBtu4TrG5J58ypcxAzlw3RGfjAizn96Cw+A/gzQx2KfSe6pTY2k6pcHFzoYSDlOc/yKutTqpwIY808VWJbTe8AseA7ZgkiZ/1GYVB8F+lKmGrOfTruwzvFdVFNtRzWuDnRs3AzJDR9GnGz43w3xR3GdLVKzXMeHNOEpMz3Q1mdMHeBfmNLe/IKl0B0cythHMfNpxLnZHOaWGe5v+Iyuel0TTJAl2ZA8bmfIvT8FCNg/ur1vXhXew/QoMOd9v6zftCRLp5WJwlJlaox1xA8Uh4kk8/x9KazDU7QCH7TuduxBJgTPr4+ZdHSUnEVbQTpNokgRqe5cxMtmDb8r82S2N7v7u9W7MdQ92Go7sB8ZX78xOsHu8hQcPRkkh1mdu/mSCNDx48tFA9jpEzn4sjMjQbPlw9Se1plwh05yAN6MvG+36FFNqUWAEWnaSQHXm0NEeOJkGJ4rTeheq/BVsLQrVcRUY6rTvsDHOjM5Ag5nJZk4y0uExMXwLRMZEkeT1LQehfC6vToNpjpZ2GawWtojBU6wa0ab9hJ86Dh8MvAyhgsVgBRqvqivVbvkEEBtVjchJzz9S8HpLB0nnbFouq1a7nQTGVUxC9Ppfp+tisXg34jFHEbPEULajqTKVtzmOe21jWzDhEnW2RkVw4lsUqYOodWnz1Sg89+Ap7Go60AtiCSY8V5zHmC5iynu/FgaXZuh/OPLB05hei93/p6nlHf+a/gvNNNwLciLoty8b17uvrVvTOPZRTpXGaQiMmXOkHnMT+Ao9ky07gJ4OBdDRaDmOI1+kJW0H3FoaSQM28h+tOev4hIGOLbgCWg5vjQwBkNeP4hRoljMviwPlGTv5fm8vxorB4EeD1DHdI08K8OZTeHza7fFtMvkXAjhxHHzqvupEWlzSL9DA3ssvJqF6fg7jH4fFB7aj6LmxL6YBexjnNa9zZmTYXZaINl/IZ0fwrYof2qXu1hrd1ldjfFvOX6gIHqcfpWg4zw2qgt2PSmNcJdcX0WCBsyWkfF5k1A0RyJ0i52eAEtqnm94jvgIPToNIa3cYcvG2lVp56DIeZWjqvpXdL4bda2DUdIe9xyo1JEOyzBOfeq1T8Rv6o+wK1dVf8Aveh5Kv8ABetf1dMeHjzz919CtSIYkWWznLO+sTq+/wBo1qddmINFzKezcLLw5ocXN/OEEFzucyOS0QqNzEGG1Op6qP8Ajif7k+8XZgerVtIG55qTqC2GfUnPzkrX30VE7DhBlrfAOmDIYzn4n3yn/Amn83S9H960w4UJvZRyQZp8CacRs6Uctnl9qPgUzXZ0vR/etL7KEnZQgzb4Fs+bpejP+ZHwKp6bOlHLZ5f4lpPZQjsoQZx8DmfN0vR/+Sa/wLYdadL0QP2laT2UckvZRyQZp8C2fIpeiCPgWyIspxy2Yj6JWldlCOyhBmp8C2/Ip5cdmPageBbdbafowtK7KEdlHJBmnwKbEW045bJsfQlPgW35LPRNWldlCOyhBmw8DhwbT8uyanfBDuZ6Jq0fso5I7KEGbDwNaNG0h3iiyfsTPgS3kz0bVpnZQjsoQZoPAsTItBOvxVPPy5JvwIEW7kfJ2NKPotWm9kCOyjkgzM+BIy8XLT4qnl5N1A8CBJO7nr8VT/yrTOyhHZQgzQeBTYiGR+yZ/IJ48Dx8mn6MLSOyhHZQgzk+CDfkU/Rj2o+CDfkU/Rx9hWjdlCOyhBlHSXV22sZNR7I0awNtnnDgTPnXAeqw8MQ7z06Z+wBbN2UI7KOSDGD1XP8Anx6Ie1L+S1x1xB81Jg9eq2bso5I7KEGSdH9WraTw8VarjyNoB7jaAY8/AL1vgl3+qftK0bsoR2UckGcHwNadQw+Wm0/aFy47q8p1YzsI4sY1oPcWgRH0HvWpDCjknDDDkgyOl1VuP/EuH93/AOasngZ1eDB4oYk13VC1rmtYWBoBeIJmTwkedX1lBTMpoJaaErUIHFNTkiBpCaWqRIgjtSWqVEIIbUWKWEQgitRapYRCCK1FqlhEIIrEWKWEQgisRYpYRCCK1FqlhEIIrEWqWEQgisRYpYRCCK1FilhEIIrUWqWEQgisRapYRCCKxFqlhEIIrEWqWEQgisRapYRCCK1LapISwgitShqkhCBoanQhKgAhKhAIQhAJEqECISoQIhKhAiEqECISoQIhKhAiEqECISoQIhKhAiEqECISoQIhKhAiEqECISoQIhKhAiEqECISoQIhKhAIQhAIQhB//9k=;" vertex="1" parent="1">
          <mxGeometry x="492.5" y="900" width="135" height="62.97" as="geometry" />
        </mxCell>
        <mxCell id="ZvJXKDiQZ_GDw80UsZBy-98" value="" style="shape=image;verticalLabelPosition=bottom;labelBackgroundColor=default;verticalAlign=top;aspect=fixed;imageAspect=0;image=data:image/jpeg,/9j/4AAQSkZJRgABAQAAAQABAAD/2wCEAAkGBxISEBUSEBMVFRUXFRgWFxEVFRYWFhcWFhUWFxcYFhgYHCggGBolHRYVITEhJSkrMC4uGB81ODMtNygtLisBCgoKDQ0OFw8QFy0dHR03ListLS0uLzYtLS0tLTctLS0tKzEwKy0tKy0rLSsrLTcrKys3LS0tLS03LSstKy03K//AABEIAJkBSAMBIgACEQEDEQH/xAAcAAABBQEBAQAAAAAAAAAAAAAAAQIDBgcEBQj/xABQEAABAwIDBAQICQgHBwUAAAABAAIRAxIEITETIkFRBQcUYQYycYGTodHTFiNSU5GSseHwF0JjcnOUs8EzQ4KDstLxFTVEYmSj4iQlVKLD/8QAFgEBAQEAAAAAAAAAAAAAAAAAAAEC/8QAIREBAQACAgAHAQAAAAAAAAAAAAECMRFBEyEyQlHB8BL/2gAMAwEAAhEDEQA/ANxQhCAQhCAQhCAQhCAQhCAQhCAQhCAQhCAQhCAQhCAQhCAQhCAQhCAQhCAQhCAQhCAQhCAQhCAQhCAQhCAQhCAQhCAQhCAQhCAQhCAQhQ1MS0GNfIgmQuftjeR9XtR2scj6vag6ELn7UOR9XtS9pHI+r2oJ0KHtA5H1e1LtxyPq9qCVCi23cfV7UbbuPq9qCVCi23cfV7UbbuPq9qCVCi23cfV7UbbuPq9qCVCi23cfV7UbbuPq9qCVCi23cfV7UbbuPq9qCVCi2/cfV7UnaByPq9qCZCg7SOR9XtSdqHI+r2oOhC5u2DkfV7UnbR8k+r2oOpCgpYppMaHvjNToBCEIBCEIBCEIBCEIBCEIBCEIBCE17wBJMDmUDlFWrtbqfNxK4sR0jOTPrH+Q9q4ruJzPM6qjrrYtzu4chr5yomlRSllETBycCoAUsoqcFODlAHJweg6AU4FQB6cHoJpSyorkocgllEqO5EoJJRKjuRKCSUSo7kXIH3JJTLklyB5KaSmlyY56B5cmlyjLk0uQPLl5nTHTuHwoacTU2YdIDi15bIEkFwaQ0xnBImDyK7SVBjcNTq03U6rQ9jhDmu0PHzEHMEZghEeafC3Bf/Ib9D/8q6MJ4cYIENOJYZIAm4ETkJJGnlXiO6v+jtNlUA+SMTiQB3AbSAEjer/o4aUqn7xiCD5QakEdxV8ho1KoHAFpBB0IT1VehsIzCMFPD3Bg0a976g8kvcTHnVgwmNa/LR3yfZzUV1IQhQCEIQCEIQCEKm+FHWLhcFiRhSypVqxLmU7N2RcAbnAkkZ5TA1QXJCzIddGD+Zq/Xof501nWjhsQ1xLazGgxaGAgyDEuBzmDl3aIL/iuk2tyZvHn+aPPx8y8qrWe8y5xPIQI8whVEeH2Eki2vA47NsHyb8+pOp9YmHZ4m1HfsWkxyk1FRZhXnTaeiqeT5CZ2xsT8b6Cr7tV89ZlLnW9Cz3qB1l0R8/6Kn/OpmiLC3GNOhqegq+7SjGNOhq+gq+7Vcf1lUTqcR5BSpAfxE0dZFD/qPRUveoqzHGNGpq+gq+7S9rET8dHPs9b3SrR6zKMQe0eioz9O0TB1jUJ/4n0VCB/3EFpZjWnQ1j5MPW90nHGNGZ2wHfh63ulVR1j0Achicv0VD+dVFTrJoOO83FGP0WHj+Kgtfb2c6v7vW90nf7QYONX0Fb3Sp56xMN8jFejw/vUg6xMMNGYvzMw3vUFzGPbrNX0Fb3SkbjG86noanu1S/wApdD5GLP8AdYT3qD1mUPmsWf7rB+9QXXtredT0NT3aO3NmJqT+xq+7VIPWbQ+axmf6PBe+Th1o0fmsZ6PB++UF17c3nV9BV92nDFg6bX0FX3apQ60aMf0WM8lmE97CPyqUfmsb9TB++QXU4ofpv3er7pIcY3jtfPQqj/8ANUQdZWH+bx31cF71H5SsPxp44/2cH/KqgvHbm/pvNhqx+ykmdvadNv8Autf3KpY6zMONKOM+rgvepfym0PmsZ9XBe8QXI40fp/3Wv7lNOLH6f91r+5VO/KbR+axn1cF7xO/KhSiNji/q4P3iotpxX7f91r+5SHE/t/3at7lU78pdL5rG/Rg/eJT1mUp/osZ5bcHH+NBbnYkc637tV9ymjEg6GsfJhqvuVU/ynU/msZ9XBf50O6zmH+qxn1cD/mQWvbH9P+7VvcppxPfX/d6vuVUz1mM+RjR/ZwHtQOstvycb9XAe1Ba+0CYmtPLYVJ/hKSDkbnjiJaGn6HMBCqX5Tm/Jxn1cF7Uyp1kMdFzMWY5jB/yMoNCwXSZblUlw+VxHlA1/Gq9im8OEgyDxCyUdYlD5jEf9n3qWp1pUsOL2Ua7hIBB2YZnJzh5IMA6A6INbQsrd100BlsB6Y+7XpeC3WpQxmLZhjTsNSQxweXy4NLoIsESA7PuHNQaEhCEAvnrw8x1TD9PYyrTtJIp0y17bmlhoYdxEAg6tHHmDkSF9Cr586x302dN4k1WXtIp7ocW57CnBkdwP0zwQU/pHEVazQKry4NNw3WNzta3gMhDRkPZHR0U+MK/9tS/h4j7lzOG5n9bnopOj3jszxOtalHfuYn2IJ9qjaqG5JIQczMe+c5G4DsxF4N0TcRbHrz0yQcc+HbwMGpvwQ1tsFoIIk+Uc+MKCkx7W5NA3CBTkWyXHMPuuBgn6deCe+m66YnOpDzaHMDm5WgOhwmde/TVBMMe6W5gAuYLjo+5s7oA3c/lc+EQkHSD+WdoOykX5vtm6LY80590qKnTddpGdMucLSXw0h14Lobrw58UzYmyLBFv9CTuTtJm666YJ9vBB6GFxd1wuBhzhIBAyjLPOcwfOpajgdc4zGk+Y8DEieErz3NN4cd7OoQ82gtBG6GgOhwJ5x5tV3EERIInQEQg82MrLTIY07IGKmVTU1YzGenCRkIlLUfMu1g1gXhoa1uQydTjfOevfnMLpxFEOlpItiNmdLrriciDOvHimvpSZL5dL7XnVoeIAEGMu8ceCBLt8GID304Lt4Omn+ZAmkc9eE8IhQtaS2205U2nZXAO/pcjtozGenCe6V1kndh8QWk5ZvABDg7ODMnOPpUPZxZZc2y2NnvWXX3XePM5xrx8yBtV03OgGNsC8Nta3ITdTPjnPM9+cwpqLt4ZeM5hDvGD5pE7o1o5fbloh1OSXF8uBqWvPjMDxAAgxlnqPJCVrYNwfDiWF5Grw1pBvkkZzwA8+qCEs3bLJim07K6Hf0uR2xGYz8Xv7k59UGXwDaa4vtDQ3ISHUv6zXM9+cwnupNLbCQWkeJLrZvuuAvmdePnjJSNoFxLgS4gvteJLqYeIAaQYAHeOOUIImPAcDAF7qUOycHk0zEDWiYPry0UQALNnsxIpg7O8AxtcvjuIkzHf3LqY2N4PiXMveCRtLGkFryTBnWI8s6qLYtsskWWxspds5vvuAvuB4eN6skA9zXFz4aQ01gX2227omaX9Zrme/PRPpEBwMD4x9IB0XXk0zENmaJzy8uWQQRvXF5LpeWvJNzA8RDSCIA8nkhPpuAMh0ExcbjL4aW7+cHWdNRnKCOiLALdw7MxTyeBDzmKv5wz00Fyf0hinMeQ3g0EF+TPGg788uHr4KCgyGgXBotIsa4upglxMgOMznz8/ALVphzi5z2nKC0t3I4bt+vegHY58mBoXggiHG0SLGzv8A40TmYx8idLqY3QC6HNk3tnc8v2phoNz3xnnJEubIg2G/dBRsRlFQTIzA3nW5C83byCRmLcdXtbuTdE0Zvgb4Mz3f6LoqOcHQajc7oH5+QyAHGMyT5MlzVcJa4B9rZECk6nDCJnxC7WSM0x9IAuBeLpdNw3mE5ODZdLOUcIQSjFOkCSRLBAALxcJde0HdHf6iohjalsy2bCZ/qZvj+knWOH+iaaQy+MaIg3AQ425NvN28EoptnxqcRFlo2cTPiX6znKDo7SZIJI3ngAtAJAblZLt8TxjPLIaqM4x10ZxNMboBfvAl17Z3B3jTLVR7MZ77SXEmSJc0uyOzN26Pp0TDRbAio0RG8MnG3xbjdvR/JB29GYy+o0VdLSSKebJDiBvzMxw8nkUlKtujOctT9y89tMNdc2oxsCLQIaAf+W7WSpqL2taBeDA1kZ9+qDs2yh6RqfEOE6uE94AcRPnSMcCCRmBqRmB5SNE3EVGnDvtIO83MEGNSggHRjXS6SJJ5c1Yurro5rOlsG4OJ+NOsfNvXl0PFH44qxeAX+9cH+1P8Kog+iUIQgFg/WGao6drGgAX7OnkYiNmyTmRxA/0lbuVgPW0G/wC16pc4t+LowQCTmyDpnpKClFu5oeU+bTyrmwVMOwrw7MB9Ax/ZxQXVUDQAGuJ7jTLYHl/koejB/wClqH/mpertHtVs4SDC9H0i9oLBBIBGa4C1gLxY0xoc8suPNerhT8Y39YfaF5dVji98AmNYGgt/+33K9Mz1398hzWQAKbZnWJnyZfZyQSyZFERGbYzMnIzGX3FNINodBDScnQCOI82iU0HAhtpuOYbln5/NxWWzgGQSabTMwYMCDEaZ8PoTrG5N2TQZ1IMnUnK2PwfKmCm4l0NMibhAkZz59OHLvTbHWh2ds+NAj6Jy01jzoNz6D6oOjq2Fo1XGsHVKTHkNdTgF7ATE0zlmqB1leD1LA9J4ahRc9zHCm8uquDnSatuoAgADlxXX0d4SPbSDX47H03NuaKdONm1rS4Uw2RmLQzLLPLTMVXwm6UfVr4etXq1axbbc+qN4W7Jz2jm0OL45oOrHYGk6o4uY0l0uP6xe+fsXJ0jgKTKF7WMBuIkgxkaesfrFer0kIquHKRl3VHhcXSzowp1G+cwJ40uB1VnbOXTzyxhdc2iIAzZvZzP5xG6PvSinTAJNFsG63WGwMuEuzyn7M1GaLrgxzDLhkCAQRPOeX3pdg4l4a0ktuuyggHL7J07+ajSXs7PE2QuuzPEiJ0tgfjyp2zpneFJsAC7xjq6MzE6cvWubZus2kGy7x4ETn+bp3TCkNJ4LWlrrnDdb/andMyPVqZQW3q38GcP0hjHUqzCxgpOe2yA4Frw2Jc0iIOn2LROkOqbAUaFWox1eW03PgvZaS1pIDgGCQsk8H8W+hWcQ+vRg2vdh8qoaQ9wDc4ILgyeERyC9zGeEVV26zGdIuaWPDhVdkXEtDGkDVhG0u5buuYIeP4KYRlXCubUAI21Z0Rxp4Qlpy71z0sBSc9oLG5uA05kLt8CqgGHqcIrVgTp4+DeAAeW671KHDHfZ+s37QrEunl4mnTZWqt2bHABsNgggniTxHs4JKVFhAaaQvy3og5gk5Ebpy4jipOkGOdiKtocchlAyy1BnP7uK5w07PaWm3LeIGsECROcE66SSl2TUPNKmYIpMgRdrBkZ5Fs68vWh1OmCXGkwggw3PMiI0Ejjr9yjqYd8tBa6XAWgiS717vqTm4aoXOZa4uEktyyBjV0w7nx9Sio6lIAFuzZdJhxHijKAQBvZTmFsfgd1X9H4rA0a9UVA97STaWBsh7hkCw8gsc2TjTNS11oMXxoTAMCZ5d30K5dE9NmnTDH4rpGmB4rMO4CmAYOUnvJKDr61PBLD4Cvgm0C87WrD3VHBzoa9gABgZbxVc6Vw7HE1C0XPxGKLjGsV8vtKTpjpOpVq4R1WriK1tWnPaDcQ41CXNpyTukCn3zPIKTpPIWSJbXxU586+WXCYQebVwtPY1HWtkaEiY3Kh08oH0Lia5pDfi2ZAS60b3q0PIc+EL0qh+Iq68NNfEq6Ly3UHizdcLog6zp43yNfWeSt6Zx3UtzLrtky3QNgRPE6So7gAW7NhJORtEtkcMoP41SDCPvLLcwAbZyHfdOevPmo20XFhdBhpguOREch5+A5qNFNQEAbNgjV1oN2XERu/jRe/4FdGUcX0nQw9WmBTeSHMaIMBpdkYy0/Gq8B1FwDXWkXRB1Jnnnl5/Wu3oxz6VcGajCACTScQ8NL2XWPByfbcAg3wdUHRfCnUE6xUOflyzXz/iaQY/FU2ZMbUe0D9UuaPPCtOM6ebubHEdLTcb78U/NuzdFpa/W+3ONLstAqpaSzEPOcPhxPNwJ85MOQenhDuN8gVl6v8A/euD/au/g1VVcM7daN/xRFoB59xVq6u3NPSmCguna1JDhEAYaoRw1m/6Arx5cj6IQkCFAFYD1zst6VO6111Ck6S97IEvbEN1zYTPf3LfnLBuu4f+5sP/AEtP+LXVl4S4y7UKpUJB3GyRAdtqroPDIjPyKHA0w7CvBmJYcjGjqvtUzdQm9GtIw1X+x/jqJbymOMx058Ngml7RL83AeMeJXM+m1rnA3ZRaQ862zvZ8134Q/GM/Xb/iC4sSDtHxnFswNBYPGyzCdHuMLG2wAbp+WbY+nX70HZ3ZNfbBkF5uJ7s9E05tnh8ojd79dP8AVKWGYggnRp1d5DH4zUaPDKe9IcdbYeeGkmfIg02W+Kbp1LnRGegn+aaGEkiDlqAMxnO93femkG27hzgWfRwKDXMB1T4J9Gk9+JrB1SlTq2hhIG0bdkZ0EFUnrH8FaWBxNCjSqPeyrSbUveCDDnWjI6QB61ZOjfC+uyg1p6VrUSwFraAwtJ7Wtbc1gD7M8gzXycyKl4YdL1MRiKNStiHYgttbtX020yBuOc21gAhrnPE8fJCA6V6PpmvUdvAve95hxGbqj5+xcmM6Pa2gXtLiQ6Ic8hv5nk+UfUvW6XyrOGm88R5KtQLi6QcOyOkjx+Ikf1eoVjOXTzXMp3CGvLQDcLzdP/Lw+n1JWU6W9IdGdvxhyhoO+Z18nMJHNMgEOkjJpGZHCDH470oYSSAHSJkAZtERmIy+9Ro7s9O2IffPynaa5NnP6fYnGhSkQH2gb2+7LejM8PoOoUBBtu4TrG5J58ypcxAzlw3RGfjAizn96Cw+A/gzQx2KfSe6pTY2k6pcHFzoYSDlOc/yKutTqpwIY808VWJbTe8AseA7ZgkiZ/1GYVB8F+lKmGrOfTruwzvFdVFNtRzWuDnRs3AzJDR9GnGz43w3xR3GdLVKzXMeHNOEpMz3Q1mdMHeBfmNLe/IKl0B0cythHMfNpxLnZHOaWGe5v+Iyuel0TTJAl2ZA8bmfIvT8FCNg/ur1vXhXew/QoMOd9v6zftCRLp5WJwlJlaox1xA8Uh4kk8/x9KazDU7QCH7TuduxBJgTPr4+ZdHSUnEVbQTpNokgRqe5cxMtmDb8r82S2N7v7u9W7MdQ92Go7sB8ZX78xOsHu8hQcPRkkh1mdu/mSCNDx48tFA9jpEzn4sjMjQbPlw9Se1plwh05yAN6MvG+36FFNqUWAEWnaSQHXm0NEeOJkGJ4rTeheq/BVsLQrVcRUY6rTvsDHOjM5Ag5nJZk4y0uExMXwLRMZEkeT1LQehfC6vToNpjpZ2GawWtojBU6wa0ab9hJ86Dh8MvAyhgsVgBRqvqivVbvkEEBtVjchJzz9S8HpLB0nnbFouq1a7nQTGVUxC9Ppfp+tisXg34jFHEbPEULajqTKVtzmOe21jWzDhEnW2RkVw4lsUqYOodWnz1Sg89+Ap7Go60AtiCSY8V5zHmC5iynu/FgaXZuh/OPLB05hei93/p6nlHf+a/gvNNNwLciLoty8b17uvrVvTOPZRTpXGaQiMmXOkHnMT+Ao9ky07gJ4OBdDRaDmOI1+kJW0H3FoaSQM28h+tOev4hIGOLbgCWg5vjQwBkNeP4hRoljMviwPlGTv5fm8vxorB4EeD1DHdI08K8OZTeHza7fFtMvkXAjhxHHzqvupEWlzSL9DA3ssvJqF6fg7jH4fFB7aj6LmxL6YBexjnNa9zZmTYXZaINl/IZ0fwrYof2qXu1hrd1ldjfFvOX6gIHqcfpWg4zw2qgt2PSmNcJdcX0WCBsyWkfF5k1A0RyJ0i52eAEtqnm94jvgIPToNIa3cYcvG2lVp56DIeZWjqvpXdL4bda2DUdIe9xyo1JEOyzBOfeq1T8Rv6o+wK1dVf8Aveh5Kv8ABetf1dMeHjzz919CtSIYkWWznLO+sTq+/wBo1qddmINFzKezcLLw5ocXN/OEEFzucyOS0QqNzEGG1Op6qP8Ajif7k+8XZgerVtIG55qTqC2GfUnPzkrX30VE7DhBlrfAOmDIYzn4n3yn/Amn83S9H960w4UJvZRyQZp8CacRs6Uctnl9qPgUzXZ0vR/etL7KEnZQgzb4Fs+bpejP+ZHwKp6bOlHLZ5f4lpPZQjsoQZx8DmfN0vR/+Sa/wLYdadL0QP2laT2UckvZRyQZp8C2fIpeiCPgWyIspxy2Yj6JWldlCOyhBmp8C2/Ip5cdmPageBbdbafowtK7KEdlHJBmnwKbEW045bJsfQlPgW35LPRNWldlCOyhBmw8DhwbT8uyanfBDuZ6Jq0fso5I7KEGbDwNaNG0h3iiyfsTPgS3kz0bVpnZQjsoQZoPAsTItBOvxVPPy5JvwIEW7kfJ2NKPotWm9kCOyjkgzM+BIy8XLT4qnl5N1A8CBJO7nr8VT/yrTOyhHZQgzQeBTYiGR+yZ/IJ48Dx8mn6MLSOyhHZQgzk+CDfkU/Rj2o+CDfkU/Rx9hWjdlCOyhBlHSXV22sZNR7I0awNtnnDgTPnXAeqw8MQ7z06Z+wBbN2UI7KOSDGD1XP8Anx6Ie1L+S1x1xB81Jg9eq2bso5I7KEGSdH9WraTw8VarjyNoB7jaAY8/AL1vgl3+qftK0bsoR2UckGcHwNadQw+Wm0/aFy47q8p1YzsI4sY1oPcWgRH0HvWpDCjknDDDkgyOl1VuP/EuH93/AOasngZ1eDB4oYk13VC1rmtYWBoBeIJmTwkedX1lBTMpoJaaErUIHFNTkiBpCaWqRIgjtSWqVEIIbUWKWEQgitRapYRCCK1FqlhEIIrEWKWEQgisRYpYRCCK1FqlhEIIrEWqWEQgisRYpYRCCK1FilhEIIrUWqWEQgisRapYRCCKxFqlhEIIrEWqWEQgisRapYRCCK1LapISwgitShqkhCBoanQhKgAhKhAIQhAJEqECISoQIhKhAiEqECISoQIhKhAiEqECISoQIhKhAiEqECISoQIhKhAiEqECISoQIhKhAiEqECISoQIhKhAIQhAIQhB//9k=;" vertex="1" parent="1">
          <mxGeometry x="490" y="970" width="135" height="62.97" as="geometry" />
        </mxCell>
        <mxCell id="ZvJXKDiQZ_GDw80UsZBy-99" value="" style="shape=image;verticalLabelPosition=bottom;labelBackgroundColor=default;verticalAlign=top;aspect=fixed;imageAspect=0;image=data:image/jpeg,/9j/4AAQSkZJRgABAQAAAQABAAD/2wCEAAkGBxISEBUSEBMVFRUXFRgWFxEVFRYWFhcWFhUWFxcYFhgYHCggGBolHRYVITEhJSkrMC4uGB81ODMtNygtLisBCgoKDQ0OFw8QFy0dHR03ListLS0uLzYtLS0tLTctLS0tKzEwKy0tKy0rLSsrLTcrKys3LS0tLS03LSstKy03K//AABEIAJkBSAMBIgACEQEDEQH/xAAcAAABBQEBAQAAAAAAAAAAAAAAAQIDBgcEBQj/xABQEAABAwIDBAQICQgHBwUAAAABAAIRAxIEITETIkFRBQcUYQYycYGTodHTFiNSU5GSseHwF0JjcnOUs8EzQ4KDstLxFTVEYmSj4iQlVKLD/8QAFgEBAQEAAAAAAAAAAAAAAAAAAAEC/8QAIREBAQACAgAHAQAAAAAAAAAAAAECMRFBEyEyQlHB8BL/2gAMAwEAAhEDEQA/ANxQhCAQhCAQhCAQhCAQhCAQhCAQhCAQhCAQhCAQhCAQhCAQhCAQhCAQhCAQhCAQhCAQhCAQhCAQhCAQhCAQhCAQhCAQhCAQhCAQhCAQhQ1MS0GNfIgmQuftjeR9XtR2scj6vag6ELn7UOR9XtS9pHI+r2oJ0KHtA5H1e1LtxyPq9qCVCi23cfV7UbbuPq9qCVCi23cfV7UbbuPq9qCVCi23cfV7UbbuPq9qCVCi23cfV7UbbuPq9qCVCi23cfV7UbbuPq9qCVCi2/cfV7UnaByPq9qCZCg7SOR9XtSdqHI+r2oOhC5u2DkfV7UnbR8k+r2oOpCgpYppMaHvjNToBCEIBCEIBCEIBCEIBCEIBCEIBCE17wBJMDmUDlFWrtbqfNxK4sR0jOTPrH+Q9q4ruJzPM6qjrrYtzu4chr5yomlRSllETBycCoAUsoqcFODlAHJweg6AU4FQB6cHoJpSyorkocgllEqO5EoJJRKjuRKCSUSo7kXIH3JJTLklyB5KaSmlyY56B5cmlyjLk0uQPLl5nTHTuHwoacTU2YdIDi15bIEkFwaQ0xnBImDyK7SVBjcNTq03U6rQ9jhDmu0PHzEHMEZghEeafC3Bf/Ib9D/8q6MJ4cYIENOJYZIAm4ETkJJGnlXiO6v+jtNlUA+SMTiQB3AbSAEjer/o4aUqn7xiCD5QakEdxV8ho1KoHAFpBB0IT1VehsIzCMFPD3Bg0a976g8kvcTHnVgwmNa/LR3yfZzUV1IQhQCEIQCEIQCEKm+FHWLhcFiRhSypVqxLmU7N2RcAbnAkkZ5TA1QXJCzIddGD+Zq/Xof501nWjhsQ1xLazGgxaGAgyDEuBzmDl3aIL/iuk2tyZvHn+aPPx8y8qrWe8y5xPIQI8whVEeH2Eki2vA47NsHyb8+pOp9YmHZ4m1HfsWkxyk1FRZhXnTaeiqeT5CZ2xsT8b6Cr7tV89ZlLnW9Cz3qB1l0R8/6Kn/OpmiLC3GNOhqegq+7SjGNOhq+gq+7Vcf1lUTqcR5BSpAfxE0dZFD/qPRUveoqzHGNGpq+gq+7S9rET8dHPs9b3SrR6zKMQe0eioz9O0TB1jUJ/4n0VCB/3EFpZjWnQ1j5MPW90nHGNGZ2wHfh63ulVR1j0Achicv0VD+dVFTrJoOO83FGP0WHj+Kgtfb2c6v7vW90nf7QYONX0Fb3Sp56xMN8jFejw/vUg6xMMNGYvzMw3vUFzGPbrNX0Fb3SkbjG86noanu1S/wApdD5GLP8AdYT3qD1mUPmsWf7rB+9QXXtredT0NT3aO3NmJqT+xq+7VIPWbQ+axmf6PBe+Th1o0fmsZ6PB++UF17c3nV9BV92nDFg6bX0FX3apQ60aMf0WM8lmE97CPyqUfmsb9TB++QXU4ofpv3er7pIcY3jtfPQqj/8ANUQdZWH+bx31cF71H5SsPxp44/2cH/KqgvHbm/pvNhqx+ykmdvadNv8Autf3KpY6zMONKOM+rgvepfym0PmsZ9XBe8QXI40fp/3Wv7lNOLH6f91r+5VO/KbR+axn1cF7xO/KhSiNji/q4P3iotpxX7f91r+5SHE/t/3at7lU78pdL5rG/Rg/eJT1mUp/osZ5bcHH+NBbnYkc637tV9ymjEg6GsfJhqvuVU/ynU/msZ9XBf50O6zmH+qxn1cD/mQWvbH9P+7VvcppxPfX/d6vuVUz1mM+RjR/ZwHtQOstvycb9XAe1Ba+0CYmtPLYVJ/hKSDkbnjiJaGn6HMBCqX5Tm/Jxn1cF7Uyp1kMdFzMWY5jB/yMoNCwXSZblUlw+VxHlA1/Gq9im8OEgyDxCyUdYlD5jEf9n3qWp1pUsOL2Ua7hIBB2YZnJzh5IMA6A6INbQsrd100BlsB6Y+7XpeC3WpQxmLZhjTsNSQxweXy4NLoIsESA7PuHNQaEhCEAvnrw8x1TD9PYyrTtJIp0y17bmlhoYdxEAg6tHHmDkSF9Cr586x302dN4k1WXtIp7ocW57CnBkdwP0zwQU/pHEVazQKry4NNw3WNzta3gMhDRkPZHR0U+MK/9tS/h4j7lzOG5n9bnopOj3jszxOtalHfuYn2IJ9qjaqG5JIQczMe+c5G4DsxF4N0TcRbHrz0yQcc+HbwMGpvwQ1tsFoIIk+Uc+MKCkx7W5NA3CBTkWyXHMPuuBgn6deCe+m66YnOpDzaHMDm5WgOhwmde/TVBMMe6W5gAuYLjo+5s7oA3c/lc+EQkHSD+WdoOykX5vtm6LY80590qKnTddpGdMucLSXw0h14Lobrw58UzYmyLBFv9CTuTtJm666YJ9vBB6GFxd1wuBhzhIBAyjLPOcwfOpajgdc4zGk+Y8DEieErz3NN4cd7OoQ82gtBG6GgOhwJ5x5tV3EERIInQEQg82MrLTIY07IGKmVTU1YzGenCRkIlLUfMu1g1gXhoa1uQydTjfOevfnMLpxFEOlpItiNmdLrriciDOvHimvpSZL5dL7XnVoeIAEGMu8ceCBLt8GID304Lt4Omn+ZAmkc9eE8IhQtaS2205U2nZXAO/pcjtozGenCe6V1kndh8QWk5ZvABDg7ODMnOPpUPZxZZc2y2NnvWXX3XePM5xrx8yBtV03OgGNsC8Nta3ITdTPjnPM9+cwpqLt4ZeM5hDvGD5pE7o1o5fbloh1OSXF8uBqWvPjMDxAAgxlnqPJCVrYNwfDiWF5Grw1pBvkkZzwA8+qCEs3bLJim07K6Hf0uR2xGYz8Xv7k59UGXwDaa4vtDQ3ISHUv6zXM9+cwnupNLbCQWkeJLrZvuuAvmdePnjJSNoFxLgS4gvteJLqYeIAaQYAHeOOUIImPAcDAF7qUOycHk0zEDWiYPry0UQALNnsxIpg7O8AxtcvjuIkzHf3LqY2N4PiXMveCRtLGkFryTBnWI8s6qLYtsskWWxspds5vvuAvuB4eN6skA9zXFz4aQ01gX2227omaX9Zrme/PRPpEBwMD4x9IB0XXk0zENmaJzy8uWQQRvXF5LpeWvJNzA8RDSCIA8nkhPpuAMh0ExcbjL4aW7+cHWdNRnKCOiLALdw7MxTyeBDzmKv5wz00Fyf0hinMeQ3g0EF+TPGg788uHr4KCgyGgXBotIsa4upglxMgOMznz8/ALVphzi5z2nKC0t3I4bt+vegHY58mBoXggiHG0SLGzv8A40TmYx8idLqY3QC6HNk3tnc8v2phoNz3xnnJEubIg2G/dBRsRlFQTIzA3nW5C83byCRmLcdXtbuTdE0Zvgb4Mz3f6LoqOcHQajc7oH5+QyAHGMyT5MlzVcJa4B9rZECk6nDCJnxC7WSM0x9IAuBeLpdNw3mE5ODZdLOUcIQSjFOkCSRLBAALxcJde0HdHf6iohjalsy2bCZ/qZvj+knWOH+iaaQy+MaIg3AQ425NvN28EoptnxqcRFlo2cTPiX6znKDo7SZIJI3ngAtAJAblZLt8TxjPLIaqM4x10ZxNMboBfvAl17Z3B3jTLVR7MZ77SXEmSJc0uyOzN26Pp0TDRbAio0RG8MnG3xbjdvR/JB29GYy+o0VdLSSKebJDiBvzMxw8nkUlKtujOctT9y89tMNdc2oxsCLQIaAf+W7WSpqL2taBeDA1kZ9+qDs2yh6RqfEOE6uE94AcRPnSMcCCRmBqRmB5SNE3EVGnDvtIO83MEGNSggHRjXS6SJJ5c1Yurro5rOlsG4OJ+NOsfNvXl0PFH44qxeAX+9cH+1P8Kog+iUIQgFg/WGao6drGgAX7OnkYiNmyTmRxA/0lbuVgPW0G/wC16pc4t+LowQCTmyDpnpKClFu5oeU+bTyrmwVMOwrw7MB9Ax/ZxQXVUDQAGuJ7jTLYHl/koejB/wClqH/mpertHtVs4SDC9H0i9oLBBIBGa4C1gLxY0xoc8suPNerhT8Y39YfaF5dVji98AmNYGgt/+33K9Mz1398hzWQAKbZnWJnyZfZyQSyZFERGbYzMnIzGX3FNINodBDScnQCOI82iU0HAhtpuOYbln5/NxWWzgGQSabTMwYMCDEaZ8PoTrG5N2TQZ1IMnUnK2PwfKmCm4l0NMibhAkZz59OHLvTbHWh2ds+NAj6Jy01jzoNz6D6oOjq2Fo1XGsHVKTHkNdTgF7ATE0zlmqB1leD1LA9J4ahRc9zHCm8uquDnSatuoAgADlxXX0d4SPbSDX47H03NuaKdONm1rS4Uw2RmLQzLLPLTMVXwm6UfVr4etXq1axbbc+qN4W7Jz2jm0OL45oOrHYGk6o4uY0l0uP6xe+fsXJ0jgKTKF7WMBuIkgxkaesfrFer0kIquHKRl3VHhcXSzowp1G+cwJ40uB1VnbOXTzyxhdc2iIAzZvZzP5xG6PvSinTAJNFsG63WGwMuEuzyn7M1GaLrgxzDLhkCAQRPOeX3pdg4l4a0ktuuyggHL7J07+ajSXs7PE2QuuzPEiJ0tgfjyp2zpneFJsAC7xjq6MzE6cvWubZus2kGy7x4ETn+bp3TCkNJ4LWlrrnDdb/andMyPVqZQW3q38GcP0hjHUqzCxgpOe2yA4Frw2Jc0iIOn2LROkOqbAUaFWox1eW03PgvZaS1pIDgGCQsk8H8W+hWcQ+vRg2vdh8qoaQ9wDc4ILgyeERyC9zGeEVV26zGdIuaWPDhVdkXEtDGkDVhG0u5buuYIeP4KYRlXCubUAI21Z0Rxp4Qlpy71z0sBSc9oLG5uA05kLt8CqgGHqcIrVgTp4+DeAAeW671KHDHfZ+s37QrEunl4mnTZWqt2bHABsNgggniTxHs4JKVFhAaaQvy3og5gk5Ebpy4jipOkGOdiKtocchlAyy1BnP7uK5w07PaWm3LeIGsECROcE66SSl2TUPNKmYIpMgRdrBkZ5Fs68vWh1OmCXGkwggw3PMiI0Ejjr9yjqYd8tBa6XAWgiS717vqTm4aoXOZa4uEktyyBjV0w7nx9Sio6lIAFuzZdJhxHijKAQBvZTmFsfgd1X9H4rA0a9UVA97STaWBsh7hkCw8gsc2TjTNS11oMXxoTAMCZ5d30K5dE9NmnTDH4rpGmB4rMO4CmAYOUnvJKDr61PBLD4Cvgm0C87WrD3VHBzoa9gABgZbxVc6Vw7HE1C0XPxGKLjGsV8vtKTpjpOpVq4R1WriK1tWnPaDcQ41CXNpyTukCn3zPIKTpPIWSJbXxU586+WXCYQebVwtPY1HWtkaEiY3Kh08oH0Lia5pDfi2ZAS60b3q0PIc+EL0qh+Iq68NNfEq6Ly3UHizdcLog6zp43yNfWeSt6Zx3UtzLrtky3QNgRPE6So7gAW7NhJORtEtkcMoP41SDCPvLLcwAbZyHfdOevPmo20XFhdBhpguOREch5+A5qNFNQEAbNgjV1oN2XERu/jRe/4FdGUcX0nQw9WmBTeSHMaIMBpdkYy0/Gq8B1FwDXWkXRB1Jnnnl5/Wu3oxz6VcGajCACTScQ8NL2XWPByfbcAg3wdUHRfCnUE6xUOflyzXz/iaQY/FU2ZMbUe0D9UuaPPCtOM6ebubHEdLTcb78U/NuzdFpa/W+3ONLstAqpaSzEPOcPhxPNwJ85MOQenhDuN8gVl6v8A/euD/au/g1VVcM7daN/xRFoB59xVq6u3NPSmCguna1JDhEAYaoRw1m/6Arx5cj6IQkCFAFYD1zst6VO6111Ck6S97IEvbEN1zYTPf3LfnLBuu4f+5sP/AEtP+LXVl4S4y7UKpUJB3GyRAdtqroPDIjPyKHA0w7CvBmJYcjGjqvtUzdQm9GtIw1X+x/jqJbymOMx058Ngml7RL83AeMeJXM+m1rnA3ZRaQ862zvZ8134Q/GM/Xb/iC4sSDtHxnFswNBYPGyzCdHuMLG2wAbp+WbY+nX70HZ3ZNfbBkF5uJ7s9E05tnh8ojd79dP8AVKWGYggnRp1d5DH4zUaPDKe9IcdbYeeGkmfIg02W+Kbp1LnRGegn+aaGEkiDlqAMxnO93femkG27hzgWfRwKDXMB1T4J9Gk9+JrB1SlTq2hhIG0bdkZ0EFUnrH8FaWBxNCjSqPeyrSbUveCDDnWjI6QB61ZOjfC+uyg1p6VrUSwFraAwtJ7Wtbc1gD7M8gzXycyKl4YdL1MRiKNStiHYgttbtX020yBuOc21gAhrnPE8fJCA6V6PpmvUdvAve95hxGbqj5+xcmM6Pa2gXtLiQ6Ic8hv5nk+UfUvW6XyrOGm88R5KtQLi6QcOyOkjx+Ikf1eoVjOXTzXMp3CGvLQDcLzdP/Lw+n1JWU6W9IdGdvxhyhoO+Z18nMJHNMgEOkjJpGZHCDH470oYSSAHSJkAZtERmIy+9Ro7s9O2IffPynaa5NnP6fYnGhSkQH2gb2+7LejM8PoOoUBBtu4TrG5J58ypcxAzlw3RGfjAizn96Cw+A/gzQx2KfSe6pTY2k6pcHFzoYSDlOc/yKutTqpwIY808VWJbTe8AseA7ZgkiZ/1GYVB8F+lKmGrOfTruwzvFdVFNtRzWuDnRs3AzJDR9GnGz43w3xR3GdLVKzXMeHNOEpMz3Q1mdMHeBfmNLe/IKl0B0cythHMfNpxLnZHOaWGe5v+Iyuel0TTJAl2ZA8bmfIvT8FCNg/ur1vXhXew/QoMOd9v6zftCRLp5WJwlJlaox1xA8Uh4kk8/x9KazDU7QCH7TuduxBJgTPr4+ZdHSUnEVbQTpNokgRqe5cxMtmDb8r82S2N7v7u9W7MdQ92Go7sB8ZX78xOsHu8hQcPRkkh1mdu/mSCNDx48tFA9jpEzn4sjMjQbPlw9Se1plwh05yAN6MvG+36FFNqUWAEWnaSQHXm0NEeOJkGJ4rTeheq/BVsLQrVcRUY6rTvsDHOjM5Ag5nJZk4y0uExMXwLRMZEkeT1LQehfC6vToNpjpZ2GawWtojBU6wa0ab9hJ86Dh8MvAyhgsVgBRqvqivVbvkEEBtVjchJzz9S8HpLB0nnbFouq1a7nQTGVUxC9Ppfp+tisXg34jFHEbPEULajqTKVtzmOe21jWzDhEnW2RkVw4lsUqYOodWnz1Sg89+Ap7Go60AtiCSY8V5zHmC5iynu/FgaXZuh/OPLB05hei93/p6nlHf+a/gvNNNwLciLoty8b17uvrVvTOPZRTpXGaQiMmXOkHnMT+Ao9ky07gJ4OBdDRaDmOI1+kJW0H3FoaSQM28h+tOev4hIGOLbgCWg5vjQwBkNeP4hRoljMviwPlGTv5fm8vxorB4EeD1DHdI08K8OZTeHza7fFtMvkXAjhxHHzqvupEWlzSL9DA3ssvJqF6fg7jH4fFB7aj6LmxL6YBexjnNa9zZmTYXZaINl/IZ0fwrYof2qXu1hrd1ldjfFvOX6gIHqcfpWg4zw2qgt2PSmNcJdcX0WCBsyWkfF5k1A0RyJ0i52eAEtqnm94jvgIPToNIa3cYcvG2lVp56DIeZWjqvpXdL4bda2DUdIe9xyo1JEOyzBOfeq1T8Rv6o+wK1dVf8Aveh5Kv8ABetf1dMeHjzz919CtSIYkWWznLO+sTq+/wBo1qddmINFzKezcLLw5ocXN/OEEFzucyOS0QqNzEGG1Op6qP8Ajif7k+8XZgerVtIG55qTqC2GfUnPzkrX30VE7DhBlrfAOmDIYzn4n3yn/Amn83S9H960w4UJvZRyQZp8CacRs6Uctnl9qPgUzXZ0vR/etL7KEnZQgzb4Fs+bpejP+ZHwKp6bOlHLZ5f4lpPZQjsoQZx8DmfN0vR/+Sa/wLYdadL0QP2laT2UckvZRyQZp8C2fIpeiCPgWyIspxy2Yj6JWldlCOyhBmp8C2/Ip5cdmPageBbdbafowtK7KEdlHJBmnwKbEW045bJsfQlPgW35LPRNWldlCOyhBmw8DhwbT8uyanfBDuZ6Jq0fso5I7KEGbDwNaNG0h3iiyfsTPgS3kz0bVpnZQjsoQZoPAsTItBOvxVPPy5JvwIEW7kfJ2NKPotWm9kCOyjkgzM+BIy8XLT4qnl5N1A8CBJO7nr8VT/yrTOyhHZQgzQeBTYiGR+yZ/IJ48Dx8mn6MLSOyhHZQgzk+CDfkU/Rj2o+CDfkU/Rx9hWjdlCOyhBlHSXV22sZNR7I0awNtnnDgTPnXAeqw8MQ7z06Z+wBbN2UI7KOSDGD1XP8Anx6Ie1L+S1x1xB81Jg9eq2bso5I7KEGSdH9WraTw8VarjyNoB7jaAY8/AL1vgl3+qftK0bsoR2UckGcHwNadQw+Wm0/aFy47q8p1YzsI4sY1oPcWgRH0HvWpDCjknDDDkgyOl1VuP/EuH93/AOasngZ1eDB4oYk13VC1rmtYWBoBeIJmTwkedX1lBTMpoJaaErUIHFNTkiBpCaWqRIgjtSWqVEIIbUWKWEQgitRapYRCCK1FqlhEIIrEWKWEQgisRYpYRCCK1FqlhEIIrEWqWEQgisRYpYRCCK1FilhEIIrUWqWEQgisRapYRCCKxFqlhEIIrEWqWEQgisRapYRCCK1LapISwgitShqkhCBoanQhKgAhKhAIQhAJEqECISoQIhKhAiEqECISoQIhKhAiEqECISoQIhKhAiEqECISoQIhKhAiEqECISoQIhKhAiEqECISoQIhKhAIQhAIQhB//9k=;" vertex="1" parent="1">
          <mxGeometry x="490" y="1040" width="135" height="62.97" as="geometry" />
        </mxCell>
        <mxCell id="ZvJXKDiQZ_GDw80UsZBy-100" value="" style="shape=image;verticalLabelPosition=bottom;labelBackgroundColor=default;verticalAlign=top;aspect=fixed;imageAspect=0;image=data:image/jpeg,/9j/4AAQSkZJRgABAQAAAQABAAD/2wCEAAkGBxISEBUSEBMVFRUXFRgWFxEVFRYWFhcWFhUWFxcYFhgYHCggGBolHRYVITEhJSkrMC4uGB81ODMtNygtLisBCgoKDQ0OFw8QFy0dHR03ListLS0uLzYtLS0tLTctLS0tKzEwKy0tKy0rLSsrLTcrKys3LS0tLS03LSstKy03K//AABEIAJkBSAMBIgACEQEDEQH/xAAcAAABBQEBAQAAAAAAAAAAAAAAAQIDBgcEBQj/xABQEAABAwIDBAQICQgHBwUAAAABAAIRAxIEITETIkFRBQcUYQYycYGTodHTFiNSU5GSseHwF0JjcnOUs8EzQ4KDstLxFTVEYmSj4iQlVKLD/8QAFgEBAQEAAAAAAAAAAAAAAAAAAAEC/8QAIREBAQACAgAHAQAAAAAAAAAAAAECMRFBEyEyQlHB8BL/2gAMAwEAAhEDEQA/ANxQhCAQhCAQhCAQhCAQhCAQhCAQhCAQhCAQhCAQhCAQhCAQhCAQhCAQhCAQhCAQhCAQhCAQhCAQhCAQhCAQhCAQhCAQhCAQhCAQhCAQhQ1MS0GNfIgmQuftjeR9XtR2scj6vag6ELn7UOR9XtS9pHI+r2oJ0KHtA5H1e1LtxyPq9qCVCi23cfV7UbbuPq9qCVCi23cfV7UbbuPq9qCVCi23cfV7UbbuPq9qCVCi23cfV7UbbuPq9qCVCi23cfV7UbbuPq9qCVCi2/cfV7UnaByPq9qCZCg7SOR9XtSdqHI+r2oOhC5u2DkfV7UnbR8k+r2oOpCgpYppMaHvjNToBCEIBCEIBCEIBCEIBCEIBCEIBCE17wBJMDmUDlFWrtbqfNxK4sR0jOTPrH+Q9q4ruJzPM6qjrrYtzu4chr5yomlRSllETBycCoAUsoqcFODlAHJweg6AU4FQB6cHoJpSyorkocgllEqO5EoJJRKjuRKCSUSo7kXIH3JJTLklyB5KaSmlyY56B5cmlyjLk0uQPLl5nTHTuHwoacTU2YdIDi15bIEkFwaQ0xnBImDyK7SVBjcNTq03U6rQ9jhDmu0PHzEHMEZghEeafC3Bf/Ib9D/8q6MJ4cYIENOJYZIAm4ETkJJGnlXiO6v+jtNlUA+SMTiQB3AbSAEjer/o4aUqn7xiCD5QakEdxV8ho1KoHAFpBB0IT1VehsIzCMFPD3Bg0a976g8kvcTHnVgwmNa/LR3yfZzUV1IQhQCEIQCEIQCEKm+FHWLhcFiRhSypVqxLmU7N2RcAbnAkkZ5TA1QXJCzIddGD+Zq/Xof501nWjhsQ1xLazGgxaGAgyDEuBzmDl3aIL/iuk2tyZvHn+aPPx8y8qrWe8y5xPIQI8whVEeH2Eki2vA47NsHyb8+pOp9YmHZ4m1HfsWkxyk1FRZhXnTaeiqeT5CZ2xsT8b6Cr7tV89ZlLnW9Cz3qB1l0R8/6Kn/OpmiLC3GNOhqegq+7SjGNOhq+gq+7Vcf1lUTqcR5BSpAfxE0dZFD/qPRUveoqzHGNGpq+gq+7S9rET8dHPs9b3SrR6zKMQe0eioz9O0TB1jUJ/4n0VCB/3EFpZjWnQ1j5MPW90nHGNGZ2wHfh63ulVR1j0Achicv0VD+dVFTrJoOO83FGP0WHj+Kgtfb2c6v7vW90nf7QYONX0Fb3Sp56xMN8jFejw/vUg6xMMNGYvzMw3vUFzGPbrNX0Fb3SkbjG86noanu1S/wApdD5GLP8AdYT3qD1mUPmsWf7rB+9QXXtredT0NT3aO3NmJqT+xq+7VIPWbQ+axmf6PBe+Th1o0fmsZ6PB++UF17c3nV9BV92nDFg6bX0FX3apQ60aMf0WM8lmE97CPyqUfmsb9TB++QXU4ofpv3er7pIcY3jtfPQqj/8ANUQdZWH+bx31cF71H5SsPxp44/2cH/KqgvHbm/pvNhqx+ykmdvadNv8Autf3KpY6zMONKOM+rgvepfym0PmsZ9XBe8QXI40fp/3Wv7lNOLH6f91r+5VO/KbR+axn1cF7xO/KhSiNji/q4P3iotpxX7f91r+5SHE/t/3at7lU78pdL5rG/Rg/eJT1mUp/osZ5bcHH+NBbnYkc637tV9ymjEg6GsfJhqvuVU/ynU/msZ9XBf50O6zmH+qxn1cD/mQWvbH9P+7VvcppxPfX/d6vuVUz1mM+RjR/ZwHtQOstvycb9XAe1Ba+0CYmtPLYVJ/hKSDkbnjiJaGn6HMBCqX5Tm/Jxn1cF7Uyp1kMdFzMWY5jB/yMoNCwXSZblUlw+VxHlA1/Gq9im8OEgyDxCyUdYlD5jEf9n3qWp1pUsOL2Ua7hIBB2YZnJzh5IMA6A6INbQsrd100BlsB6Y+7XpeC3WpQxmLZhjTsNSQxweXy4NLoIsESA7PuHNQaEhCEAvnrw8x1TD9PYyrTtJIp0y17bmlhoYdxEAg6tHHmDkSF9Cr586x302dN4k1WXtIp7ocW57CnBkdwP0zwQU/pHEVazQKry4NNw3WNzta3gMhDRkPZHR0U+MK/9tS/h4j7lzOG5n9bnopOj3jszxOtalHfuYn2IJ9qjaqG5JIQczMe+c5G4DsxF4N0TcRbHrz0yQcc+HbwMGpvwQ1tsFoIIk+Uc+MKCkx7W5NA3CBTkWyXHMPuuBgn6deCe+m66YnOpDzaHMDm5WgOhwmde/TVBMMe6W5gAuYLjo+5s7oA3c/lc+EQkHSD+WdoOykX5vtm6LY80590qKnTddpGdMucLSXw0h14Lobrw58UzYmyLBFv9CTuTtJm666YJ9vBB6GFxd1wuBhzhIBAyjLPOcwfOpajgdc4zGk+Y8DEieErz3NN4cd7OoQ82gtBG6GgOhwJ5x5tV3EERIInQEQg82MrLTIY07IGKmVTU1YzGenCRkIlLUfMu1g1gXhoa1uQydTjfOevfnMLpxFEOlpItiNmdLrriciDOvHimvpSZL5dL7XnVoeIAEGMu8ceCBLt8GID304Lt4Omn+ZAmkc9eE8IhQtaS2205U2nZXAO/pcjtozGenCe6V1kndh8QWk5ZvABDg7ODMnOPpUPZxZZc2y2NnvWXX3XePM5xrx8yBtV03OgGNsC8Nta3ITdTPjnPM9+cwpqLt4ZeM5hDvGD5pE7o1o5fbloh1OSXF8uBqWvPjMDxAAgxlnqPJCVrYNwfDiWF5Grw1pBvkkZzwA8+qCEs3bLJim07K6Hf0uR2xGYz8Xv7k59UGXwDaa4vtDQ3ISHUv6zXM9+cwnupNLbCQWkeJLrZvuuAvmdePnjJSNoFxLgS4gvteJLqYeIAaQYAHeOOUIImPAcDAF7qUOycHk0zEDWiYPry0UQALNnsxIpg7O8AxtcvjuIkzHf3LqY2N4PiXMveCRtLGkFryTBnWI8s6qLYtsskWWxspds5vvuAvuB4eN6skA9zXFz4aQ01gX2227omaX9Zrme/PRPpEBwMD4x9IB0XXk0zENmaJzy8uWQQRvXF5LpeWvJNzA8RDSCIA8nkhPpuAMh0ExcbjL4aW7+cHWdNRnKCOiLALdw7MxTyeBDzmKv5wz00Fyf0hinMeQ3g0EF+TPGg788uHr4KCgyGgXBotIsa4upglxMgOMznz8/ALVphzi5z2nKC0t3I4bt+vegHY58mBoXggiHG0SLGzv8A40TmYx8idLqY3QC6HNk3tnc8v2phoNz3xnnJEubIg2G/dBRsRlFQTIzA3nW5C83byCRmLcdXtbuTdE0Zvgb4Mz3f6LoqOcHQajc7oH5+QyAHGMyT5MlzVcJa4B9rZECk6nDCJnxC7WSM0x9IAuBeLpdNw3mE5ODZdLOUcIQSjFOkCSRLBAALxcJde0HdHf6iohjalsy2bCZ/qZvj+knWOH+iaaQy+MaIg3AQ425NvN28EoptnxqcRFlo2cTPiX6znKDo7SZIJI3ngAtAJAblZLt8TxjPLIaqM4x10ZxNMboBfvAl17Z3B3jTLVR7MZ77SXEmSJc0uyOzN26Pp0TDRbAio0RG8MnG3xbjdvR/JB29GYy+o0VdLSSKebJDiBvzMxw8nkUlKtujOctT9y89tMNdc2oxsCLQIaAf+W7WSpqL2taBeDA1kZ9+qDs2yh6RqfEOE6uE94AcRPnSMcCCRmBqRmB5SNE3EVGnDvtIO83MEGNSggHRjXS6SJJ5c1Yurro5rOlsG4OJ+NOsfNvXl0PFH44qxeAX+9cH+1P8Kog+iUIQgFg/WGao6drGgAX7OnkYiNmyTmRxA/0lbuVgPW0G/wC16pc4t+LowQCTmyDpnpKClFu5oeU+bTyrmwVMOwrw7MB9Ax/ZxQXVUDQAGuJ7jTLYHl/koejB/wClqH/mpertHtVs4SDC9H0i9oLBBIBGa4C1gLxY0xoc8suPNerhT8Y39YfaF5dVji98AmNYGgt/+33K9Mz1398hzWQAKbZnWJnyZfZyQSyZFERGbYzMnIzGX3FNINodBDScnQCOI82iU0HAhtpuOYbln5/NxWWzgGQSabTMwYMCDEaZ8PoTrG5N2TQZ1IMnUnK2PwfKmCm4l0NMibhAkZz59OHLvTbHWh2ds+NAj6Jy01jzoNz6D6oOjq2Fo1XGsHVKTHkNdTgF7ATE0zlmqB1leD1LA9J4ahRc9zHCm8uquDnSatuoAgADlxXX0d4SPbSDX47H03NuaKdONm1rS4Uw2RmLQzLLPLTMVXwm6UfVr4etXq1axbbc+qN4W7Jz2jm0OL45oOrHYGk6o4uY0l0uP6xe+fsXJ0jgKTKF7WMBuIkgxkaesfrFer0kIquHKRl3VHhcXSzowp1G+cwJ40uB1VnbOXTzyxhdc2iIAzZvZzP5xG6PvSinTAJNFsG63WGwMuEuzyn7M1GaLrgxzDLhkCAQRPOeX3pdg4l4a0ktuuyggHL7J07+ajSXs7PE2QuuzPEiJ0tgfjyp2zpneFJsAC7xjq6MzE6cvWubZus2kGy7x4ETn+bp3TCkNJ4LWlrrnDdb/andMyPVqZQW3q38GcP0hjHUqzCxgpOe2yA4Frw2Jc0iIOn2LROkOqbAUaFWox1eW03PgvZaS1pIDgGCQsk8H8W+hWcQ+vRg2vdh8qoaQ9wDc4ILgyeERyC9zGeEVV26zGdIuaWPDhVdkXEtDGkDVhG0u5buuYIeP4KYRlXCubUAI21Z0Rxp4Qlpy71z0sBSc9oLG5uA05kLt8CqgGHqcIrVgTp4+DeAAeW671KHDHfZ+s37QrEunl4mnTZWqt2bHABsNgggniTxHs4JKVFhAaaQvy3og5gk5Ebpy4jipOkGOdiKtocchlAyy1BnP7uK5w07PaWm3LeIGsECROcE66SSl2TUPNKmYIpMgRdrBkZ5Fs68vWh1OmCXGkwggw3PMiI0Ejjr9yjqYd8tBa6XAWgiS717vqTm4aoXOZa4uEktyyBjV0w7nx9Sio6lIAFuzZdJhxHijKAQBvZTmFsfgd1X9H4rA0a9UVA97STaWBsh7hkCw8gsc2TjTNS11oMXxoTAMCZ5d30K5dE9NmnTDH4rpGmB4rMO4CmAYOUnvJKDr61PBLD4Cvgm0C87WrD3VHBzoa9gABgZbxVc6Vw7HE1C0XPxGKLjGsV8vtKTpjpOpVq4R1WriK1tWnPaDcQ41CXNpyTukCn3zPIKTpPIWSJbXxU586+WXCYQebVwtPY1HWtkaEiY3Kh08oH0Lia5pDfi2ZAS60b3q0PIc+EL0qh+Iq68NNfEq6Ly3UHizdcLog6zp43yNfWeSt6Zx3UtzLrtky3QNgRPE6So7gAW7NhJORtEtkcMoP41SDCPvLLcwAbZyHfdOevPmo20XFhdBhpguOREch5+A5qNFNQEAbNgjV1oN2XERu/jRe/4FdGUcX0nQw9WmBTeSHMaIMBpdkYy0/Gq8B1FwDXWkXRB1Jnnnl5/Wu3oxz6VcGajCACTScQ8NL2XWPByfbcAg3wdUHRfCnUE6xUOflyzXz/iaQY/FU2ZMbUe0D9UuaPPCtOM6ebubHEdLTcb78U/NuzdFpa/W+3ONLstAqpaSzEPOcPhxPNwJ85MOQenhDuN8gVl6v8A/euD/au/g1VVcM7daN/xRFoB59xVq6u3NPSmCguna1JDhEAYaoRw1m/6Arx5cj6IQkCFAFYD1zst6VO6111Ck6S97IEvbEN1zYTPf3LfnLBuu4f+5sP/AEtP+LXVl4S4y7UKpUJB3GyRAdtqroPDIjPyKHA0w7CvBmJYcjGjqvtUzdQm9GtIw1X+x/jqJbymOMx058Ngml7RL83AeMeJXM+m1rnA3ZRaQ862zvZ8134Q/GM/Xb/iC4sSDtHxnFswNBYPGyzCdHuMLG2wAbp+WbY+nX70HZ3ZNfbBkF5uJ7s9E05tnh8ojd79dP8AVKWGYggnRp1d5DH4zUaPDKe9IcdbYeeGkmfIg02W+Kbp1LnRGegn+aaGEkiDlqAMxnO93femkG27hzgWfRwKDXMB1T4J9Gk9+JrB1SlTq2hhIG0bdkZ0EFUnrH8FaWBxNCjSqPeyrSbUveCDDnWjI6QB61ZOjfC+uyg1p6VrUSwFraAwtJ7Wtbc1gD7M8gzXycyKl4YdL1MRiKNStiHYgttbtX020yBuOc21gAhrnPE8fJCA6V6PpmvUdvAve95hxGbqj5+xcmM6Pa2gXtLiQ6Ic8hv5nk+UfUvW6XyrOGm88R5KtQLi6QcOyOkjx+Ikf1eoVjOXTzXMp3CGvLQDcLzdP/Lw+n1JWU6W9IdGdvxhyhoO+Z18nMJHNMgEOkjJpGZHCDH470oYSSAHSJkAZtERmIy+9Ro7s9O2IffPynaa5NnP6fYnGhSkQH2gb2+7LejM8PoOoUBBtu4TrG5J58ypcxAzlw3RGfjAizn96Cw+A/gzQx2KfSe6pTY2k6pcHFzoYSDlOc/yKutTqpwIY808VWJbTe8AseA7ZgkiZ/1GYVB8F+lKmGrOfTruwzvFdVFNtRzWuDnRs3AzJDR9GnGz43w3xR3GdLVKzXMeHNOEpMz3Q1mdMHeBfmNLe/IKl0B0cythHMfNpxLnZHOaWGe5v+Iyuel0TTJAl2ZA8bmfIvT8FCNg/ur1vXhXew/QoMOd9v6zftCRLp5WJwlJlaox1xA8Uh4kk8/x9KazDU7QCH7TuduxBJgTPr4+ZdHSUnEVbQTpNokgRqe5cxMtmDb8r82S2N7v7u9W7MdQ92Go7sB8ZX78xOsHu8hQcPRkkh1mdu/mSCNDx48tFA9jpEzn4sjMjQbPlw9Se1plwh05yAN6MvG+36FFNqUWAEWnaSQHXm0NEeOJkGJ4rTeheq/BVsLQrVcRUY6rTvsDHOjM5Ag5nJZk4y0uExMXwLRMZEkeT1LQehfC6vToNpjpZ2GawWtojBU6wa0ab9hJ86Dh8MvAyhgsVgBRqvqivVbvkEEBtVjchJzz9S8HpLB0nnbFouq1a7nQTGVUxC9Ppfp+tisXg34jFHEbPEULajqTKVtzmOe21jWzDhEnW2RkVw4lsUqYOodWnz1Sg89+Ap7Go60AtiCSY8V5zHmC5iynu/FgaXZuh/OPLB05hei93/p6nlHf+a/gvNNNwLciLoty8b17uvrVvTOPZRTpXGaQiMmXOkHnMT+Ao9ky07gJ4OBdDRaDmOI1+kJW0H3FoaSQM28h+tOev4hIGOLbgCWg5vjQwBkNeP4hRoljMviwPlGTv5fm8vxorB4EeD1DHdI08K8OZTeHza7fFtMvkXAjhxHHzqvupEWlzSL9DA3ssvJqF6fg7jH4fFB7aj6LmxL6YBexjnNa9zZmTYXZaINl/IZ0fwrYof2qXu1hrd1ldjfFvOX6gIHqcfpWg4zw2qgt2PSmNcJdcX0WCBsyWkfF5k1A0RyJ0i52eAEtqnm94jvgIPToNIa3cYcvG2lVp56DIeZWjqvpXdL4bda2DUdIe9xyo1JEOyzBOfeq1T8Rv6o+wK1dVf8Aveh5Kv8ABetf1dMeHjzz919CtSIYkWWznLO+sTq+/wBo1qddmINFzKezcLLw5ocXN/OEEFzucyOS0QqNzEGG1Op6qP8Ajif7k+8XZgerVtIG55qTqC2GfUnPzkrX30VE7DhBlrfAOmDIYzn4n3yn/Amn83S9H960w4UJvZRyQZp8CacRs6Uctnl9qPgUzXZ0vR/etL7KEnZQgzb4Fs+bpejP+ZHwKp6bOlHLZ5f4lpPZQjsoQZx8DmfN0vR/+Sa/wLYdadL0QP2laT2UckvZRyQZp8C2fIpeiCPgWyIspxy2Yj6JWldlCOyhBmp8C2/Ip5cdmPageBbdbafowtK7KEdlHJBmnwKbEW045bJsfQlPgW35LPRNWldlCOyhBmw8DhwbT8uyanfBDuZ6Jq0fso5I7KEGbDwNaNG0h3iiyfsTPgS3kz0bVpnZQjsoQZoPAsTItBOvxVPPy5JvwIEW7kfJ2NKPotWm9kCOyjkgzM+BIy8XLT4qnl5N1A8CBJO7nr8VT/yrTOyhHZQgzQeBTYiGR+yZ/IJ48Dx8mn6MLSOyhHZQgzk+CDfkU/Rj2o+CDfkU/Rx9hWjdlCOyhBlHSXV22sZNR7I0awNtnnDgTPnXAeqw8MQ7z06Z+wBbN2UI7KOSDGD1XP8Anx6Ie1L+S1x1xB81Jg9eq2bso5I7KEGSdH9WraTw8VarjyNoB7jaAY8/AL1vgl3+qftK0bsoR2UckGcHwNadQw+Wm0/aFy47q8p1YzsI4sY1oPcWgRH0HvWpDCjknDDDkgyOl1VuP/EuH93/AOasngZ1eDB4oYk13VC1rmtYWBoBeIJmTwkedX1lBTMpoJaaErUIHFNTkiBpCaWqRIgjtSWqVEIIbUWKWEQgitRapYRCCK1FqlhEIIrEWKWEQgisRYpYRCCK1FqlhEIIrEWqWEQgisRYpYRCCK1FilhEIIrUWqWEQgisRapYRCCKxFqlhEIIrEWqWEQgisRapYRCCK1LapISwgitShqkhCBoanQhKgAhKhAIQhAJEqECISoQIhKhAiEqECISoQIhKhAiEqECISoQIhKhAiEqECISoQIhKhAiEqECISoQIhKhAiEqECISoQIhKhAIQhAIQhB//9k=;" vertex="1" parent="1">
          <mxGeometry x="492.5" y="1120" width="135" height="62.97" as="geometry" />
        </mxCell>
        <mxCell id="ZvJXKDiQZ_GDw80UsZBy-101" value="" style="whiteSpace=wrap;html=1;rounded=1;" vertex="1" parent="1">
          <mxGeometry x="730" y="892.97" width="120" height="307.03" as="geometry" />
        </mxCell>
        <mxCell id="ZvJXKDiQZ_GDw80UsZBy-103" value="ADMIN" style="text;html=1;align=center;verticalAlign=middle;whiteSpace=wrap;rounded=0;" vertex="1" parent="1">
          <mxGeometry x="760" y="932.97" width="60" height="30" as="geometry" />
        </mxCell>
        <mxCell id="ZvJXKDiQZ_GDw80UsZBy-104" value="Operations&amp;nbsp;" style="text;html=1;align=center;verticalAlign=middle;whiteSpace=wrap;rounded=0;" vertex="1" parent="1">
          <mxGeometry x="760" y="986.49" width="60" height="30" as="geometry" />
        </mxCell>
        <mxCell id="ZvJXKDiQZ_GDw80UsZBy-105" value="Devlopment" style="text;html=1;align=center;verticalAlign=middle;whiteSpace=wrap;rounded=0;" vertex="1" parent="1">
          <mxGeometry x="760" y="1030" width="60" height="30" as="geometry" />
        </mxCell>
        <mxCell id="ZvJXKDiQZ_GDw80UsZBy-106" value="Testing&amp;nbsp;" style="text;html=1;align=center;verticalAlign=middle;whiteSpace=wrap;rounded=0;" vertex="1" parent="1">
          <mxGeometry x="760" y="1080" width="60" height="30" as="geometry" />
        </mxCell>
        <mxCell id="ZvJXKDiQZ_GDw80UsZBy-107" value="Monitoring&amp;nbsp;" style="text;html=1;align=center;verticalAlign=middle;whiteSpace=wrap;rounded=0;" vertex="1" parent="1">
          <mxGeometry x="760" y="1136.49" width="60" height="30" as="geometry" />
        </mxCell>
        <mxCell id="ZvJXKDiQZ_GDw80UsZBy-111" style="edgeStyle=orthogonalEdgeStyle;rounded=0;orthogonalLoop=1;jettySize=auto;html=1;" edge="1" parent="1" source="ZvJXKDiQZ_GDw80UsZBy-108" target="ZvJXKDiQZ_GDw80UsZBy-110">
          <mxGeometry relative="1" as="geometry" />
        </mxCell>
        <mxCell id="ZvJXKDiQZ_GDw80UsZBy-108" value="" style="shape=image;verticalLabelPosition=bottom;labelBackgroundColor=default;verticalAlign=top;aspect=fixed;imageAspect=0;image=data:image/jpeg,/9j/4AAQSkZJRgABAQAAAQABAAD/2wCEAAkGBxESEhUSERMRFhIVFRUXFRUYEhsYHhUYFxcWGBcWFRcdHSggGBolHxgXLTEhJSkrLi4vGSAzOTMsNygtLi4BCgoKDg0OGhAQGyslHiYrNy4tLS02Mi0vLTUtLS01Ly0tLTc1NS81LS41LS0wNS0tLS0tLS0tLS0tNi0rLSstLf/AABEIAKcBLgMBIgACEQEDEQH/xAAcAAEAAQUBAQAAAAAAAAAAAAAABwIEBQYIAwH/xABPEAABAwIDBAQHCwkFCAMAAAABAAIDBBEFEiEGBzFBE1FhcSIyQoGRsdEIFBU1VHJzk6GywTM0Q1JidIKSsxgjJMLDFmODlLTT4fBFU9L/xAAbAQEAAgMBAQAAAAAAAAAAAAAAAwQBBQYCB//EADARAAIBAwICCAYCAwAAAAAAAAABAgMEESExBRIGQVFhcYGR0RMyQqGxweHwIlJT/9oADAMBAAIRAxEAPwCcUREAREQBERAEREAREQBERAEREAREQBERAEREAREQBERAEREAREQBERAEREAREQBERAEREAREQBERAEREAREQBERAEREAREQBERAEREAREQBERAEREAREQBERAEVvX1sUEbpZnsjjYLue5waAO0lRZj2/eiiJbSwy1FvKJ6Jp7rgu9LQgJbRQZH7oM3GbDxbnaq18391qt52P3qYdXvETXOhndo2OUAZz1MeCWk9mhPUgN6REQBERAEREBitqsZFFSTVRZnELM2TNlzagWzWNuPUoo/tBR/IH/wDMj/tqbCoW90hRxiClkaxgf0r25g0AkFt7E8xcICj+0FH8gf8A8yP+2ts3dbzW4tPJCKYw9HH0mYzB9/Ca21so6+K562DgZJiVGx7WuY6phDmuFw4Z23BB0I7F2FHE1os1oA6gLICtERAapvRxuWiwyong0lAY1rreJ0j2szd4DjbtsuWKPHKqKb3xHPM2e4Jk6QlziP1ifGHYbgrsfFcOiqYZIJ2h8UjS17esHqI1B6iOBUZ0e4nD2TCR81RJEDcREtF/2XPAuR3WPagJG2cr3VFJTzvGV0sEUjm9RexriB5ysiqY2BoDWgAAAAAWAA4ABVIAiIgCIiAIiIAiIgCIiAIiIAiIgCIrWvr44QHSZgHOa0WY52rnBrQcoNrlwGvWgLpFi4NoaZ7msa92d8r4mtMTwekYwyOaQW6WaL3OnbdZRAc079tqpKmudSNcfe9KQ0NB0dLl8N7u0XLR1WPWVGS3DaPBaisxishp2F7zUzm1wLDpDcucdAFitptnZKJ+SS4dza4AEcbEWJD2Gxs4HiCCG6XAwi3ba6tw11PEynaPfDGs8NjbDQDRx0v9qxOy2x1ZiBPvdgyN0dI85Wg9V7Ek9gBVzthsdJh7WCYgSu10OZjxzMbrAgjS7SPKBBOtgJw3Jbbur6Z0FQ7NU04ALidZYzo1563DgT808SpKXKe5jEjBi9NY2bKXRPH6we05Qf4ww+ZdWIAiIgCIiAKHfdKfmtL9O/7imJQ77pT81pfp3/cQEQbu/jSh/eoPvtXYK4+3d/GlD+9QffauwUAREQEVbYb66ekllp4KeSWaJ7o3FxEbA5hLXW4udYg8h3qOKjfHjE0zck0cLC4DJHCwixPXIHOv51Mu9XDIBhdbIIYRJ0ZOfo25rlzbnNa9+1ctUP5Rnz2+sIDtxRJtXvwgp5JIaanklkje5jnPcGMDmkg2Au5wuOxS2o83zYZA3CaqRsMLX3iOcRtDrmaO5zWvc3KAicb48WlqGEzxwxF7A5jIWZQ3MMxu8Odw7Vu+1m/aGMmPD4ulcNOmku1ne1mjnDvyqC8Jia+eJjhdrpI2kdYLgCF2Bh+ytBALQ0lMwdkLbnvJFz50BzdU73sac7MKoMHJrYIrDs1YSfOSpK3Ub2JKyYUdcGdM8HopWtyh5AuWPbwDrA2IsDwte12/TYqkFE6uhijimhczOWNDRIx7hHZwGhcC5uvHQhQdszUmKsppBxZUQu/lkaUB2bNKGtc48Ggk9wFyoQ2h3+cW0NL3STn/AE2H/MpxIvoVDnuiqOJlFTlkcbSai12sA/Rv6ggNd3dbxMUrMVp4p6kuike/NGI2NbYRvcALNvYEDnfRdA1U4jY57r5WNc426mi5t6Fypud+OaP58n9KRdXuAIsdQeIQEG7Q7/Dq2hprdUk5/wBNh/zLH7s94eJ1mLU8VRUl0MhlzRiNjW6QyOaBZt7Agc+SzXujKSNlLSlkbGkzOvlYBfwOwKPNyvx1Sd839CVAdIbaVFbHSSPw+NslUCzIwgEEZxm4keTfmoRxfe1j1LIYqmKCKQAHK+nINjwI8LUaHUdS6KWhb3diBiVLnib/AIuAF0X+8HlRHv5dRA4AlARvgG9PH62XoKWKmklyl2Xow3QWubukAHEc1NWNzVzaBz6ZjXVwiYWsOWxk8HONXAW8bmuR8GxSajqI6iE5ZoX3FxzFw5rh1EXBHUSukca3o00eEtr4SDLMCyKI6ls4HhNeOOVnEnS4y/rBARtie9zHaeZ1PPHTsmaQHM6G5BIBA0eeII9KkbYepxmtMjcWgEMIEb4y1gY4yMka8AguJ8kaELUdy+xL6mU4vXguJeXwB/GR5NzO4dQPi9uvIXnNAYluz0AmE/h9I1+cHNpe044cOE8g6z4Nz4ItlkRAc9yYjNQ1GPzwAdOyaItcWh2Rkk78zw0gjg5vEEahXu20ZxmgpZ4WvnkjqXxmRjGh5hLA8lzfBbmByA8BcG1gbK5gw97toMSddvQloimjcMwlbNE3wSOoWvfu6ypBw+jjiY1kbGtY0AANFgAOQC1N/wAUVvL4cFmX2RPTo8yy9iN8RxyowjAqVlM0wzunfHI50YDgA6RxIBuAXeDrroTbkV57VYq3Fdn5qyVjmyU9TG2J7rZn36JrrloAcB0rxw8gE63Un1tHDIwxyRxuYfGa5oIPXcHRR3vfpAMMYyB4ip6eRp6FjA1smY5QbjW7S4nqNyTc2IxbcWjOapzWG+zVf31MSotLKIm2Gky4jRHqq6f+qxdjrinBaroqiGU6dHLG+/zXg/gu1WuBFxwPBbchPqIiAIiIAod90p+a0v07/uKYlDvulPzWl+nf9xARBu7+NKH96g++1dgrj7d38aUP71B99q7BQBF4V9QI4pJDwYxzj/C0n8FAe6DbTEarE4oaiqlkiLJSWOtYkRuIvp1oCV96/wAUVn0X+Zq5PofyjPnt9YXWG9f4orPov8zVyfQ/lGfPb6wgO3Fo2+v4mqv+D/WjW8rRt9fxNVf8H+tGgOY8D/OYPpovvtXaq4qwP85g+mi++1dqoDSN9XxLV90P/URLl7CPy8X0sf3guod9XxLV90P/AFES5ewj8vF9LH94IDthRF7pL8ypv3n/AE3qXVEfukW/4GnPL3z645PYgIr3O/HNH8+T+lIusFyRuqq2xYtRvebN6XLftka5jftcF1ugId90p+a0v0z/ALijXcr8dUnfN/QlUle6U/NaX6Z/3FGu5X46pO+b+hKgOrERWWMYpDSwyVE7gyKNuZzj9gA5kmwA5khAQLv+2QjppmV0JY1tS4iSO9j0tsxkaOYcPG6na+UoywN8HTw++85phI0ytabHISM1vMBw1NuSkXC4p9psWMk2ZtHDYubfSOG5yxi3lvI1PzjwaAtc3pbHHDKxzGg+9pbvgdx8G/hRk9bSbdxaeaA6roTGY2GHL0WRvR5bZclhly20ta1l7qDdwe3P/wAZUO63UrifO6H1lv8AEOoKckARFG2+Xb0UEBpoHf4yduhH6GM3BkPU46hvnPLUDXKCNlTtHiLoZCWtiaLtOnSMEDD32LXj0rcxXSMux5aHDmWnXt4rB7idizS0xrJwRNVNGVh8iG9237XaHsGXndSFPhxJ0sR28lr7zh8LlqWcS7SWnVcNOo1mFrpTxJHWRYeYKy3hbGmqw+RrcxlYOlj18pgPg5edwXDXmQVvlNRhup1Kuli04ZRt3zJZl2v9GalaUtNkcf8AvuikoS2RpZWRWETmN0laT5dtLjXU66DjwU/blNrPf1CI5CDPTZY366uZb+7ee8AgnraTzUIb2tnfeOJTMaLRS/30XY2Qklo7GuDgOwBWGwO1L8NrI6ltyzxZmDy43eMB2jQjtaOS2JCdgIrbDq6KeJk0Lw+KRocxw4EH/wB4clcoAiIgMdtFjDKOmlqpGucyJuZwba5FwNLkDn1rnXexvHixVkMUEMkbInOeXSEXJIsAA0kAWvzXS88LXtLHta5p4tcAQe8HQqy+AKP5LTfUM9iA4/2axMUtXBUlpcIZY5C0G2bI4GwPLgpo/tAw/IZPrx/+FLHwBR/Jab6hnsT4Ao/ktN9Qz2ICFdpN+Tailnp46R7HzRPjDzMCGh4LSbBupsStY3E/HEPzJv6bl0j8AUfyWm+oZ7F6U2EU0bg+OCBjhezmxNaRfQ2IF0BEe9LenSPgrMOjiqDPmfA5zmsDAWSZXkEPLj4ptp1cFBEMmVzXdRB9Buu0ZMEpHEudTU5c4kkmFhJJNySbaklU/AFH8lpvqGexAarsVvSo8SmFPFFUMlyF5ztZlGW1wHB5J49QWlb3N5tJPTVWGxR1HTCXo3Pc1oYDFKC4ghxJ1ZpoOKmSlwqnjdmjghY61szYmtNjxFwLrzkwSkcS51NTlxJJJhYSSdSSbalAcZ0NR0cjJLXyPa617XykG1/Mur9g9v6bFel97xzsMIjLxI1o8fNbKWuN/EPG3JZz4Ao/ktN9Qz2K4o8Phiv0UUUea18kbW3te17DXifSgIh307wqYwVWFNjn98Xia55DQwWdHLcHNmOgtwHFQRSTZHsfa+VzXW67EGy7Qnwale4vfTwOceLnRNJPeSLlUfAFH8lpvqGexAa7sNvIpMUkdFBHUMkZHnd0jWgWu1uha831cOQVe9bZp2IYdJDELzMLZYh1vZfwR2lpcB2kLZaTDIIiXRQwxuIsSyNrSRxsSBwV2gOIJGOY4tcHNe0kEEEFrgdQRxBBUi4LvgxlrWwM6Oof4rS6Evkd1DwCMx7SCT2roPFtl6GqdmqKWnlf+s6Jpd3ZrXsvbCsBpKX82p4Ir8SyJrSe8gXKA513mtxp9NBUYq9rWvkIipw1rSzwblzg0aXHIknjwWr7A48ygr4KuRrnsiL8zW2uQ+N7NL6XGa9uxdd1dDFKAJY45ANQHsDrd1xorb4Ao/ktN9Qz2IDVqfenQvoJcQbHVdDFKInNLGZy5waRYZ7W8Ia361C29LeQ7FHMjia+OkZ4WR1sz36+E+xIsBoB3nnp0s3CaYMMYgg6MnMWdE3KSOZbaxOg1Xl8A0fyWm+oZ7EBHm4bGqF1OaOmjmbNG0SzyPa0CR7jYlpa4mw0ABA0A53Xvv7rqFtCIaoSGaTM6lLGg5ZI8ty4k2DfDAPYdBcKQ6TDoIiTFFDGSLEsja0kdRIC+1lBDLbpYopMt8udjXWva9rjTgPQgOKoJnMc17HFr2kOa4Gxa4G4IPIgrpHd9vchrnwUksUzat7SHODW9G5zGlziDmzNuGk2t2LfPgCj+S031DPYvSnwemY4PZBA1w4ObE0EctCBcIDz2jxmOippaqXxImF1r+MeDWDtc4gDtK5Wwky4rirHTnM+eYPk00yN8ItA5NDG2HYApW90Njgy02Hh4Z0jummOvgsaS1lwOIJzG3WwKncLs415mxJ0Ya0kw0zbWsxtszv2jo0ZuN2v60BMFETkALctgBbu7F6km/YqkQBW8szh5H2q4RAQ9v8AsENRSR1jB4dM4iQf7qQgZv4XBvmcSoEmpHNa15sWO4OaQRe18pt4ruw6rtKvoI5mOY9oLHtcx7Twc1ws5p7wVytimBNoamugkmblhcGiJ3GdjvCZbqcGlpDgNCepAbLuM24dS1AoZ3H3tO60dz+SlPC3U15sCOux01XRy4lrqcxSFoNxo5jhpdrgHNcPMQuuN32Pe/sPp6gm73Myycv7xngv05XIJ84QGxIiIAiL45wGpIHesNpLLB9RWsmIRjnfuCtn4wOTT5zZa+rxazpfNUXlr+MksaM3sjJosJJi7+QaPtVu/EZT5XoAVCp0ks4/LzPwXu0Sq0m+w2NfCVqz6mQ8Xu/mK8HFVZ9KIfTTfm8fpkqsX1s2t9VGOL2D+ILydiUI8sfaVq5VJVaXSas/lgl45fsSKxj1tmyuxmEcyf4SvJ2PRDgHnzD2rXSqSoZdIrt7cq8v5JVY0u8zztom8mO9IXi/aQ8ox533/BYUqgqJ8cvX9ePJexKrKj2fky79o5eTYx33P4rxdtDP+wP4f/KxhVBUb4pePeoyVWtFfSjIPx2o/Xt3Nb7F4PxeoP6V3msPUrQqgqN3tzLepL1ZNGhSW0V6Fw/EZj+lk/nK8HVcn/2Sfzn2qi1+Gq9mYfM7xY5D/CfWsxlXqbOT9WSYpx3wi2dM48XO9JXi4rLx7PVLvIt3uHtV1HslKfGfGO65/AK1Cwu6n0S89PyYd3QhvJGtEKkrc4dj4/LkefmgN9d1fwbN0rf0eY/tOJ+zgrlPglzL5sLz9iKXFaEdsv8AveR5G517MLs3INJv5rLbtm2Vcd5Kh7m07WuLhI7WwF766tA53WzwU7GCzGtaOprQPUo490HXyRYW1sbi0S1DI5LeUwxyvLe4ljfUtxZ8L+BJSlNvuWiNfdcT+NFwUF4vVkG7b447E8RkmYCRI8RwN55BZkYtyJ4kdbiurdncJZSUsNMzxYo2sv1kDwnHtJuT2lcpbvae+K0THgj/ABMRIItwcHD1BdfLbmpCojPHvKrVEXDzn1oCtERAFzP7oKlazFcwGstPE93aQXx39EY9C6YXOvuh4HPxWBjGlznUkYDQLknpqjkgI2xP8nTE8ehd6BPMB6vsCmf3NuM3ZU0bj4pbOwX5O8CTzAiP+YqKtoMCqmW/w83RQxtZnEZLfBu57iQLAF7nm561t/udQfhOS17e9ZL/AFkPHz2QHSSIiA8qmXK0u6vXyWAkkLjckkrNYn+TPm9YWDXD9KK0/jxpZ/x5c47237F61S5WykqkqoqkrmUXEUlfCvpXwrJ6RSVSVVZXEWHyu4NPn09anpUKlV4pxb8Fky5KO7LMqkrMR4G7ynAdwv7Fdx4LEOOZ3ebepbajwG8qbxUfF+2WRSu6UevJrRVTKd7vFa49zStuipI2+Kxo7bfivdbSl0Z/6VPRfv8AghlxD/WJqTMInPkW7yB+K9mbPSni5g85P4LZ0Wwh0etI78z8X7ETv6vVg19mzX60nob/AOV7s2ci5uefOB+CzKK3DhNnDamvPL/JG7ys/qMazAqceRfvcfariPD4W8I4/wCUetXSK1C1oQ+WEV5IilWqS3k/U+NaBwAC+oinIwiIgCIqZX2aT1An0I3gFSwG0ohlyRvYyQseJBmAORwBDSOp1ifSvOSvmf5WUHk0D18VbMjsucvuLwnB06WdesuUqGHmRZ1+CwTSwTvYOlp5WSRvA1GUglpPNpHJbuxwIBHArWFksIqbHIeB8Xv5hR8IveSfwZvR7dz7PP8AIr08rmRllTGNPOfWqkXTlMIiIC0xKpMbQRxJt61z3v2qXCrY4XDpYQHu62scbRt6m63I5kjqU445JY6/rAD0LUtpNnoKwZZ2B4Go1ILT2EahaG8v5W14uZvlxt6lqnSU6em5zjhtbNDI18DntkBGXKTcm+g049y6Q3U7NmnfLVztayqqmgujY0NbCLlxYB1nwSe0LG7P7AUVNIJWReG3xXOcXZe0A6A9vFbxRTZHA+nuXmpxlSqwUNI51bCt8J53NjRUseCLjUFVLfpprKKpb17bxu7r+jVYFbK9twR1iy1yVhaSDxC4zpTQaqU6vU1j01/ZdtJaNFBVIaSbDUrI0mHF2rtB1cz7FlIYGsFmgD/3rVSw6P17hKdT/CP3fl7kk7mMdFqzCw4ZI7jZo7fYr2HCGDxiXH0BZFF09twKzo68vM+2Wv22+xVlc1JdeDziha3xWgdwXoiLbRiorEVhELbe4REXowEREAREQBERAEREAREQBERAFTJwPcVUvKpByOy8cpt320WJPCZlbmsQHQKtWvT5DldcHqIsvRs4618/mmnqjaHugNtVS14KEhec42GDYqGpEjb8xoR2q4UX7XYzUUsL56WTJJGC6xGZrw0ElrmnjcX14haMzf3iFhenoyeZtIL+bOu14fdO4oqUt1o/c19WnySOiVi9otoaWhiM1VK2NnIHVzz+qxvFx7lz9iO/HFZARGKaG/lMiLnD+dzh9ij/ABjGKiqkMtTLJLIfKe69h1NHBo7BorxETRs5ttNi2ITPsY6aNgEUV+t3jyHm85e4DQcyZBjCh7cmwATP5lzR6Bf8VMEb1xvF5Zun3exsaCxTR6WX0LzfKBzV7Q0T5BmPgt6yNT3Dq7VUoW9StLFNZZ6lJRWWVUE7muDRqCdR6ys6vCmpWs8Ua8yeJXuuv4fbTt6fLOWfwijVmpPKC8n07CcxAJC9UVudOE1iaTXfqRptbBERezAREQBERAEREAREQBERAEREAREQBERAEREAREQFEkTXCzgCOoi6x1RgEDuDSw9bTb7OH2LKIo50oT+ZJ+J6UmtmatVbNzN1hlDv2X6H+YaX8wWCqpqhhLXwzB3ZGXA9zmgg+YqRkVCrwmhN5WhLG4mt9SOINjpK5rhVGWGA6ZRYPeOY1ByNI01F9eXFZai3XYNEABRxutze5779+ZxW4orlvbwoQ5Ykc5ubyzW/9gcJ+QUn1LU/2Bwn5BSfUt9i2RFOeCPMW2Njo3dLh9PaNxJljYSbHSzmNJ4W4gejiraDEySGhshefJyOv6LXUmItbc8Mp1587bRPCu4rBreB4K8kS1AtzbHe9u1/K/YtkRFcoW8KEeWCIpzc3lhERTHkIiIAiIgCIiAIiIAiIgCIiAIiIAiIgCIiAIiIAiIgCIiAIiIAiIgCIiAIiIAiIgCIiAIiID//2Q==;" vertex="1" parent="1">
          <mxGeometry x="960" y="900" width="102" height="56.4" as="geometry" />
        </mxCell>
        <mxCell id="ZvJXKDiQZ_GDw80UsZBy-109" value="ADMIN" style="text;html=1;align=center;verticalAlign=middle;whiteSpace=wrap;rounded=0;" vertex="1" parent="1">
          <mxGeometry x="981" y="870" width="60" height="30" as="geometry" />
        </mxCell>
        <mxCell id="ZvJXKDiQZ_GDw80UsZBy-110" value="" style="shape=image;verticalLabelPosition=bottom;labelBackgroundColor=default;verticalAlign=top;aspect=fixed;imageAspect=0;image=data:image/png,iVBORw0KGgoAAAANSUhEUgAAAQMAAADCCAMAAAB6zFdcAAAAxlBMVEX////eTDYvJwctJQAZCwAXCADBwLkrIgAdEgDh4NzeSjQQAACtqqPcPiLdRCzcOx7Rz8rqlownHgD32NUjGQC8urNwbF4pIAAgFgAdEQAhFAAAAAAYCgDuqqH++fgiGADhW0gxKAD0x8Ly8e/pkIX65OHg39vW1dD1zsnuqJ/hYlCHhHjywLqdmpDkcGBTTTmmpJtsZ1h7d2rt7Ok/OB798fBcV0VIQiw6MhPjaFfmfG6EgXWTkIXgVkHng3bxubLbMw/ldWcxVJrJAAAI6klEQVR4nO2ca3eiOhRA0UBR8FUEFWuxHdo6M46DQn10aqf3/v8/dUF5JCE8tALetc7+CLGYbUjOyYFyHAAAAAAAAAAAAAAAAAAAAAAAAAAAAAAAAAAAAAAAAAAAAAAAAAAAAAAAAJADwzSq/gox7t+kj6fnki7m7C21oVr7ZknXy4Xx1pYkqdP+VsrVNGEkojoSR0KrlOvlwvjZqXlI3TIk9GRUP4Lubkq4Xi4CBSVJ2A7rAeKu+MvlIlJQioSmUI+QZ0VfLhe4gjIkaDzmQL+KGYFUUIKElo45aCyLvVguaAXFSyAdUOPAHtgug1KnSuOBVlC4hB4+H0yo3vKq4iKXe4c8tWMOCpZgqihyIJvEOUdmjo6iKV/CvBEqGNnkqRuhEgflSzC2I1/BdEcOA24xKtnB2k8PSpdgDuSGqqgNeUUp4CyxXAfudFiVBK65nNvz5Qt92J8OSnPgLoqSVJkENvNpqQ4OcUEkocuS8KuUbxIRDIOSHPhxQSjhtuvmzlLFEsJkqhQHYWgkdUIJb2+dtlShBHOjJkWPRYBFh6EEj+8PdO5QnoTWUInChuKzCCJAJiRwfy4gwWy+NJv0qhfgNEkO7WaarfJY9FhXxwG6fPoXyMGa/LVJCQ9fuh1my8FuJB8Y7QZLjcRrsbqTce68gy93Oh4/E6DxJbsesKbTJKm9js5+o5bJEySYi1d5rIjht1fGPI6ge40skegi7+VMTTnW9YjRxQUwFLgDAT/fPnd1WEwbYkpf6ujRbWQ8kj94JQ7iCmrSb7zBh0SfziXBtCZJwxl34PDkwSocMPcL0h3kkuA8Kin9iBzMBPJgBQ5YCsh7wfgn5iCHBOM1U8HRgXY3JA4eHdx5Gyf4jSQqIUIZCmq17nesDTt3yJBgj/AOqA19TEz06qjBC7LXG1NbyTp26uDAWQ1cNpEE0RqErEpRUJN+4q3OkDDDBvNQ3u6XreX7Toi6ul+0tN6Lc2zstHaIdHCkGU0VxcWJSQpqtc5fvN3pElZYiGcFFQNNDX7YMbVpeMMzHUyKd5CswJXw0MdanirBiXaKVWzoNhX/90YKGTViu6rlOmAsihjtJ69NP3U/IVFCVDVBjwbr+HhPtK/KQbqCWufWa9TvniVhHiZ8owVxIgiISDVVOchQEDpI3177ZP/xTbjeCWT50A7mCbmHH67GQZaCwEFbiiR0Op1Y2MyWsA1XtYZDnFhMg+NEMlyJg0wFoQNsZ+nP7dNbbFOFKSF0QE9+iyBsUOf44SocrD+yFEQOIgkez7/p/QSWhGgc6OQ42AcThULUUipwkEMB5oCUwP3NISHKh6n5IJRT+Tj4na0Ad0BKMKgcSvqnH7tAOPVRfZ2Fa+a44vmgz9g3T3VQkz6wj3/Smyo/Y1eIqumogddNontEICLF8h38yDEMSAedP9jH1/Qq2V3TV8CerhEfw7vBsdSoq8RcWb6D29Md3GIfN+iyQzf+FGMUINSRvNKapunc2HJ0UCGTv/Id0IM5h4Mn3AEdJXTjD5j28E0Qhfc2Syf4hgIZIlXgYN2N74qkO5DesI/3KYWd34xr2ON6CtMB2bqCdeE+x6RIOKi1sbn/iV4cmQ/0blVW548M6acMqoiRfmRLIB1gA6FPhopS+zvzEqals7p/uDcQ/VhyJbFytgTSgbsy+Dd9X8qlgMOTRwLEWw7dtJqcKVMC5aDW+fh8Noz+U75RkChBbFDZ9IFMB+NC6o1ZEmgHbnfdHLLdya9gfwwKka4OvYfSERqquvy6YNUdMx2Q4ebFyJAQc+B1mU6dU0fBcXlEO22+en1UVHG3eW/FHrY5kuAg2mUUrYv2PSRdAssBRaqCd79bspbjq7Ad4CUoOcHeV0mVkO0gXYE/jpVc1QC2AwMrSaBHX4LRs5Oq+GeRIkHqHh0wikyhgni+GLL340Qk5vrCbAccVnZwQ27rfbEfbGXhwq95JEqQ2v6uwD1ddc6lIAyVRWu59KopTSfVBVZf0LF7Z0DU60R1OvXqb4qd/IfOIUlCVGz7xW6RqoCzwuxIHDV0XnDTBUF8tTb2fqm9kDbMmbZ4x35wtLMX2uzYRqNq0n4L/bIOEiTgeeITK8tMV8AsGyNRHCrTMS/z2/ebyMPyjh8RpUikjPi7Y/nB5JnVeyrhKkgCviPwzHpSMVUB+TB+HFEVxH1gocUKqYM4asEcCJcPFhgJlPSAN6CjgkwFRMWVDRqjXg4HnDWNn0RT9dIOGBKkf/HzD7HnUDIUcKaS8QSKi+iP6HQHxkYmH+dBCt+wC3jtKyaB3CGsxaLDDAXu0jhhdIyWoByysBaP4jSinKK1k6dD5DlFojKSx6vWRcODkJgEfGdo3T1ZAcetMu8GdxU8dLQ1EePoeF7V2692qs7r4tZe9Ip7J5qW0LmPzlG7j7kUuMta9qM4J73OaRT/QjglAdsbojbicyoIKwwiSp4a5GJG9dnQEjp+kPSd3i/IqcBf1JTtDo35iTDhG+PpIYfGHVx6nf8qsZHw59dz//Pf7lkKlv50IHiBr+k0Zz2ttdzbm62CRz30a3zVE5sT2t0uXWXOqaDp91QZ0GdM7ZH5+NW1kLnbnFcB9+5HNjwj6e9Fy6ZwbfcClykhtwLu9RjXoDrjnBOtmvJV/dcLn1QJ+RUET6UhkbGg4VsFF/3ylyJFQn4FnBN0k7UjHqXV8dniOkiUcIICbB8w9iL/DCs9X93SGJAg4RQF+B5YQ7RbvZnjmI7z0tPm2wlWet4U1omvwpRwmgLOjn5spDQmwvGtlYmuYjkg4mPVpuuBtZ9wmgKuKWfmzuhq74QD93Rp/lQFXpyYIUFRr1pBTMLpCjwJaXnjUN5c8Y1whLgdzlHgLgAbOeHtPFGVresLkuNgEs5T4DJ7fxX0KZ4qInGo6sLr/Dr+A1ImoYSzFXg0tf3Kqk/1ieDibQRt5q1rjI8T8OeELyk4YrixgfcOr2Ne2ZZJNp/ddqfTrn1Zwf+a9f3fp8/r+7eOAAAAAAAAAAAAAAAAAAAAAAAAAAAAAAAAAAAAAAAAAAAAAAAAAAAAAAAA18l/+XfK4fMM2zsAAAAASUVORK5CYII=;" vertex="1" parent="1">
          <mxGeometry x="962" y="986.4899999999999" width="79" height="59.17" as="geometry" />
        </mxCell>
        <mxCell id="ZvJXKDiQZ_GDw80UsZBy-115" style="edgeStyle=orthogonalEdgeStyle;rounded=0;orthogonalLoop=1;jettySize=auto;html=1;" edge="1" parent="1" source="ZvJXKDiQZ_GDw80UsZBy-112">
          <mxGeometry relative="1" as="geometry">
            <mxPoint x="1130" y="1121.83" as="targetPoint" />
          </mxGeometry>
        </mxCell>
        <mxCell id="ZvJXKDiQZ_GDw80UsZBy-112" value="" style="shape=image;verticalLabelPosition=bottom;labelBackgroundColor=default;verticalAlign=top;aspect=fixed;imageAspect=0;image=data:image/jpeg,/9j/4AAQSkZJRgABAQAAAQABAAD/2wCEAAkGBxAQEBUSEBIVFhUVFRAQDxAQEBgPFQ8PFRIWFhUWFRUYHSggGBolGxUVITIhJSkrLi4uFx8zODMtNygtLisBCgoKDg0OGhAQGi0lHSUtLS0tLS4tLS01LS0tLS0tLS0tLS0tLS0tKy0tLS0tLS0tLS0tLS0tLS0tLS0tLS0tLf/AABEIAOwA1gMBEQACEQEDEQH/xAAbAAABBQEBAAAAAAAAAAAAAAAAAgMEBQYBB//EAEoQAAEDAgIGBwMJBAgFBQAAAAEAAgMEEQUhBhIxQXGBEyIyUWGRsQdyoRQjNEJSYnOCwTOys9EWJDVjkqLh8RVDVdLwJVOTwsP/xAAbAQEAAQUBAAAAAAAAAAAAAAAAAQIDBAUGB//EADoRAAICAQIEBAMGBAUFAQAAAAABAgMEBREGITEyEkFhcRMzgSIjNFGRsUJScqEkJTXB0RVDguHxFP/aAAwDAQACEQMRAD8A9xQAgBACAEAIDhKArMTxuKAXc4KqEJTe0VuUTnGC3k9jGYnpw8m0Tebjqjy2raVaTOXOb2NVdq9ceUFuUNTpDWP/AOY0eDf9VnQ0umPXmYM9Vul05EU4lWf+67kQrn/4cf8AlLX/AFC/+YWzGq1v13cxdUvT8d+RXHUshfxEiPSurbtcDxFlael0vo2XY6tcuqRMh04qBtaDwJCsy0leUi9HWJecSfDp84dph5EFWXpM/KSL0dXg+sWT4NPoz2g4clZlptyL0dTofmWEOmtOdrgOOSsyw749YsvxzaJdJInw6S07tj2+asuqa6pl6NsJdGiZHi0R2OHmqNivcfbWMP1ghI6JWnegFAoDqAEAIAQAgBACAEAIAQHCUBlNK9JBA3Vbm47AsvExJZEtl0MTLy448N318kea1lbJM7We4k+i6ejGrpW0UctfkWXS3myOr5ZFBQBYUAcaSqdgOB5UNIbist4HkqWidzvRMP1fI2UE7h8lZ4jmo3Y3O/Im7neYUbsk58hO4j0TxL8iRbaeVuwn8rlbca31SLkbbF0kx1lRUt2Of8SrUsWiX8KL0cy+PSTJEWO1Lfr8iFZenUvoX46neupb0OmErT1xfxH8li2aY12MzKtXT5TRrcK0gimGRz7lrbKp1vaSNpVdC1bwe5ctdfYrZdOoAQAgBACAEAIAQFdjdaIYnOO4EqqMXJpLzKZSUYts8ZxCrdNI57jtOXgNy7DGoVNaijjsm93WObI4V8sCggFBUgWEAsKALCpAsKAONCpAtoUEjgCgCwFBIoBUgcaSN6gncebMfrAOHc4XVDhv05FyNjXUkRYZTz5MPRv3NJu1x8FZlbZV15oyIQqt6cmQKuhmpX9YEfZeNh5qtSryI7FLVuNLdcjVaM6R61mSbfVabKxXS910N/h5qvWz7jYMdcXCwzOFIAQAgBACA4SgIFdi0cQ6xCplOMVvJ7ImMXJ7IxGleNPqIy2NjrHK4aVGnaniSyoxc1+e/kUalh3xxZSS9NvMxLo3Da0ji0hdtDJpn2zT+qOLlTZHui19GJBV4tCghIsKkCggHAqWBYUAWFAHGqkkcCpAsBQSOAKALAVJIsBQSdsm4AZKOoNPhFYypYaeoFzbqk7/APVa3IqlTL4lZtsa6N0fhWGYxSgfSzFt9nWY7vG5Ztc4318zCsjPHt5eRt9FcV6VljtGRWhvpdU3FnS416urUkaFWTIBACAEAEoDP45i2r1WHPee5YOfnQxYbvm30RkY+PK6WyMnPVkm+0/aOZ5dy43IyrsmW9j+h0dGHCtDPTOO9Y3hRk+CP5HRK7v81Um4809iiVUJdUccxru0xp4tCy6tRy6uy2S+ph26Zi2d1a/Qadh8B/5dvdJC2VXFGp1/9zf3W5rreG8Gf8O3sxt2DRHYXjmHLZVca5ke+EX/AGNdbwlQ+ybQ27A/syDg5tviFsquOK38ypr2Zr7OE7V2TT90Idgso2ap4Ot6rZVcX6dPubj7o19nDmbDok/qNuw6YbY3chf0Wyq1zT7e21frsYNmmZdfdWxoxuG0EcQQs+GRVZ2ST9mjElVOPdFr6Cmq4WxwKkkcCpJFtUAcCgkUAqSRQCA6QoARvLSHNNiDcHxRpNbMqUmnui8x8ippWzDtMyd6FYGOnVa4eTNlkNXUqzzRUaN1nRzjudlzVWo1eKHj/InS7vDZ4PJnpsTrgFaQ6EWgBACAhYrVdHGSqZSUU2+hKW72R5/XVBc4+Z4rg8vJlk3Ox9PL2OqwsdVVr8yKFjGaKCgpFBCBQUFLFhCGLAUFLFhCkWEKWONKbFLQsPKqjOUe1tFqVUJdUcdCw7WNP5QPis2rU8yvstl+ph2abiz7oL9Bs4fAfqW91xC2dPE+o19Zp+6NfZw/hy6R29hqTBWu/ZSWP2ZRkfzDZ5Lb4/F9j5WQRgW8NVrtkynxGOemzlgdq/bjIkbx3La18T1Pvg0Yb4bm/l2J+/IhR49TnIuI95pCz4a3iy82voYlmgZkPJP2ZY0tSyQXY4OGy43FZ9OVVd8uSZr78S6j5kWiQFeMYEAkqQWOFS3jliOxzHOHEBY18dpRmZmNLeMoMoYH2c09xHqr98fFXJehZx5eG2L9Uer4U/WiB8AuYOwJiAEAIDM6VVFrDmtXq9vw8WW3nyMvBr8dyMcSuMOsXI6EB0KCBYQhigoKRYUFLFhCGLCFDFhCljgQpFAIQLAUlLFAIUnbICVTVOr1XDWadoOavV3OPJ9CxbV4ua6lBpZoXHKwzUwsdrmD63DuKz4XOHPrEoqv3fgs6nnlFUvpZb7tj2/aH81uMTJdclOLGVjRtg4SRuIpA4Bw2EAjgQvQa5+OCl+aPM7YeCco/kxZKuFsQSgJGHvtIPHWHmCqLVvAu0PaZUDbz/VVz7H7EV969z1fBB803gFyzOxXQsEJBACAxmljuvyK0Ovv7qK9TaaUvvX7GbXLnSHQoIEVE4jbrH/dZun6fbnXqmrr+yMLPzq8Ol22dCGMYb9krrJcD2+Hlat/Y5ZcYV786nt7j8eKRneRyWBdwdnw7fDL67GZVxXhS7k19CS2ti2648STa3mtVfoOoUredT29OZsKdawrntGxbkmKVruy4HgQVqpVTj3Joz1ZGXRjwVBLFtQpYsIUjgQpFBSUiwEKRQCEBZATMOqtU6p7J+BV+mzwvZ9DHvq8S8S6mF9oeCCOTXYMn3OW529bGiThLwsvUT+JXz6oepRaNo7mtHwC9UxltTD2R5hlPe6fux26vlg4SgCN1jfuSS3QT2ZBpxd7R94eqove1Un6F/GW9sV6nrmGNtGOC5g68loAQAgMXpZ2+S0Ov/Kh7m00n5rM4uXOkOhQQQcaHzY94ehXX8GP/HS/pZynF34OP9RSL1I85AKAKc3WY8fdVm/nErqe0kZQtLHGxI90lvoufsqi3tJJm/hZLbdM9o0Nwkz0kTnONyxhvfwWjvwMacnvBG8pybVBbSLeTR547LvMLAs0TGl03X1MmOoWrqRX4VM3cDwWHZw+v4J/qX46j/NEZdA9u1h8rrCnoeRHpsy6s6t9ROsN+XEWWHZp+TDrBl1ZFcujHGlYsoSj1Rc8SfQWFSAUkCSoJGdKI+mo7nawj+S2dD8ai/yZYr+7sa8mmZ8L16tbQS9DzC2W82/VnbqsoOEoDl9vAo0EMYWLzMH3grGa9qZGbgLfIievUYswcFzZ1Q8gBACAxmlg6/IrRa98mPubTSvnP2M2uWOkOhQQQsZ/Y/mb+q6zg1/49/0s5biz8GvdFGvVTzcFAJFO24dwH6q1b0Ko9TOYpBqvv3rT3x2kbeiW8T3H2eD+pRfhs/dC01neze1diNSqC4cIQCXRNO0IBmShjO1oQFXimDM1C5mRGYIVq2mFkfDNblUZyi90yljOQJ7lwWTUqrpQXkzeVS8cUxV1YLhwlCQe3WilZ3sc7yzWy0yPxLlD8zGypeCHj/Lcy117FFckeXSe7C6qIOXQCXnqu4FGShzR1t6lnMrC1F7Umx0uO9/0PW4R1RwXPnTC0AIAQGO0tHW5FaPXvkL3NnpXzvoZlcqdKdCghkPGP2J95n6rquDn/mH/AIs5fiz8F9UUS9XPNgQEqi2O5fqrNpKK7GoLi612RHc2GNLnsev6AD+pxe4z90Ln7O5nTVdiNOqCsEAIAQEXEj82eCAyIOQ4BcBnPfIn7s3uOvu0dusUvnCUB1rrNkP93J8WkLcaEt82Bgao9sWfsZMFevnmQXQASgESu6h5eqbEon6HsvUjwH6rW6o9q0vU2+kL7xv0PVmbAtGdAdQAgBAZDS7tcitLrv4de6Njpfz/AKGXXJnTgFAI2L/sD7zP1XUcHv8AzFf0s5fiv8D9UUC9ZPNQQEygGTuSs2ko5XRXaViWLdGRVLaR6hoM21LGPuN9FzNnezrauxexpFQXAQAgBAQ8WPzTuCAyN8hwC89ynvdN+rOgoX3aC6sF05dCdhFQ60Mp+56kLe8OR8WdA1WtS8OHP2MtdeuHmp26A5dAInd1OYUeZKLzQJl5nHgFqNVfaje6Ou5npoWnN2dQAgBAZLS4ZjmtNrn4b6o2GmfPRlVyR1AKAR8V+ju96P1K6bhH/Uo+zOY4q/Av3X7mfXrZ5oCAnYcMnflVi7yJiPvbcLHfQurqel6Gi1O33R6LmLe9+519Py4+xfq2XQQAgBAQMaPzTuBUMGScf0Xndz3sl7s6OpfYRy6tFzY5dANVz7U8viGt83LpuFYeLOXoaPiGW2GzL6y9VPOg1kJDWQDdQ7qjj+ieZKNX7Oo7ucfEei0Wqv7xL0Oi0hfdN+p6ItWbYEAIAQGU0uGY5+i1Gt/hX7oz9N+ejJrkDqQQEfFvo7vej9Suk4T/ANSj7M5nin8E/dGfXrh5mCAn4ZsfwHqse7yJiSrKyXD0fRB46Bo8AuXu+Y/c7Cj5cfYv1bLoIAQAgK3Hj80eBVMntFkrqZJ5zXnM39p+50ta+yjl1SVnLoNiPip/qz/F0Y+JXXcHx3zG/RnN8TPbFS9TNXXp5wAXQHLoBupdkOap8ypG59nEfzZPe4rndSe97On0uO1C9zdLANiCAEAIDLaXDZz9FqtZX+Ff0M3T/noyK446sEBGxY/1d3vR+pW94as8GpVv8+RoOI6/HhSX1KBexnlgIC60YpuldIwbdS44rDzJ+BJl6iHibR1wtkd2R4qhMhos8Hxt9PkMx3LXZOD8R+KHU2uJqXwo+CfNGkptMYz2suK18sK6PkbOGfRL+ItqbSCF+xw81jyhKPVGVGyMu17k+OtjdscFSVjweDsKArNIT80VRb2P2Jj1RknnNect8zqIL7KOXUFWxy6EkTG3Wpx4ygeTSV23BUd75v0OT4qltTBepnLr0g4ULoAugGqo7OH6qkrR6R7PY7U4Pfc/FcxnPe+R1eAtseJr1iGYCAEAIDMaWjZz9Fq9Y/CS+n7mZgfPiY9cadYCAh459EltuMbvJyzdPsdeRGS8jAz61ZX4X57ooY36wBG/Ne249yuqjZHzR5DkUum2VcvJileLRJw+tfA8PYc9hHeDuVq2qNkfDIqhNxe6JtRibJDrFpBO3uKsxocVsVSnu9xDZ2nejg0RuKuqdiTmsocU+pUpNdGPRV8rOy9w53VmeJTLrEyIZl8OkifT6TVDN4PHJYs9Mrfa9jLhq1q7luS5NKHTAMcLXIF9u9a/M06cKZyT6Jmfj6pXOcYtbNseecyvKTvorkJuhVsF0GxA0gktCwd73nyaB+q7/gmHOyRxfFsuUEUF16CcWF0AXQDVUc+QVBWj1bQeO1Mz3R6Lksl72yfqdhjLamK9DSKyXwQAgBAZvS1vVBWu1Vb4kzKwntfExi4o64EAziEetTyt+6PgVex5eGxMx8hbpGNoJdUljuX8l6Vw7qKX+Hm/b/g4TiLTn+Igvf8A5LBdgcgCAEAIBTXkbCo2QHG1LlQ60NxwVA3hUusnxChIDv8ANUuDJ3HqT9oy+zWbc+F1g6jGTxbFFc/CzKw3H48N3y3Roy8E5HyzXik6rK3tOLXutj1muyE1vFp+zDWVBdC6ArdI3dSIfinzIH6L0jgmP3Nj9ThOLX95Be5R3XcnIBdAF0AzVHrHl6K2Vo9k0Vj1ado+6PRcfY95t+p2la2gl6F0qCsEAIAQFPpJBrRHwzVnIr+JVKH5orrl4JqRgXDNcA4uL2Z2cJeKKaOKCol4ZqF+q/Y4FuexUybS3RjZSl4N15GM0nwV0EpsDa92nvH81usPK3SaezRhzgrYfuiHSVmt1XZHv716NpOtQvSrue0/3OC1bRZ0N2VLeH7f+iYuiOfBACAEAIAUAEAoOQDjKhw2EqxbjVWracU/dFyu6yt7wk17EuLFZBvvxzWkyuF9Pv5+Dwv05G2xuIM6nl4t168yS3Gu9q0dvA9bl9i1peqNvXxdNL7dab9GQa6tdK7WduFmgbAF1mm6bVgU/Cr+r/M5zPz7M234k/oiPdbHYwQumwAFQBdJAZZ2sG9w8gc1i5NirqlIy8Wp2WRie2YXDqRgeAXJHXkxACAEAIBqoj1mkIDzvGKQxSEbty5DV8X4V3jXSX7nR6XkeOvwPqiCtQbUEA507rWJuO53WHxUbFt1RfkQanC6aTtRAHvYdQ/BX4ZN0Oki1PGiyP8A8CYOxKeEg1v8wXSYHF+Vj7Rtj4o/3OdzuGKb34ofZl6dP0GZcGmGwB3uu/Qrq8XjDT7eU24P1X+5zGRw1m1dqUl6EKWF7e00jiCF0FGdjXreqxP2ZprcW6p7WQa+ghZZjghIIAQAoAXQHboAQBdAdugC6A607+7NRJ8gbLQPBDfpnjM9kHcFzWo5XxJeCPRHTabi/Dj8SXV/sejsyC1htBaAEAIAQAgKbH8LErbjaNisZOPG+twkXaLpVTU4mEnhLHFrhYhcRk408efgl/8ATq8fIjdDxRELHMgEAIAQACoI2HBMdm0dxzCR3i94vZ+hbnTCS2aGZKaF/ajHFvVPwW1xtd1DH7LXt+T5/uarI0LCu5ygt/TkRZMGjPYe5vg4aw810ONxtkR5XVqXtyNHkcIVvnVNr35kSXBZR2dV3uusfIrf43GOn28p7wfqv9zR38NZtXalJehClp3s7THDiCugo1DFvW9Vif1NPbiX08pwa+g2swxgQkEAKACAEAIDQaN4GZnBzx1b3t3rSajn7fd1/Vm703A3+9sXsj0yiiDGgBaE35MY5AOtKAUgBACAEBwhAUGkWEB7C5o6wzCx8jGrvj4ZovU3zpl4os86diLWPLJQWEG1z2Tz3LmMrR7anvD7S/ub/H1OuzlPkyYx4cLggjvButTKMo8mtjYxkpc0xSgqBACAEAKAduhAAoNhYlPfyKLk91yLcqoy5NDUsET+1G0+IGqfMLZY+s5+P8u17fk+f7mtyNEw7+6C/YiyYPEey5zePWC3+NxrmQ5WwUv7GkyOEaJfKk1/ciyYJIOy5rueqfit9jcaYVmytjKL/VGkv4Wy6+xqX9iFNSSM7THDxtceYW/x9Zwb193bH9dv3NPbpuXV31v9/wBhgFZyvqfSS/UxvgWfyv8ARj0VK93ZaVZszqIdZF6vBvn0iX+EaOkkOk8lp8rVJT+zXyRucXSow+1ZzZt6GFsYAAWoNuWEb0A+xyAlMCAWgBACAEAIBL23FigM9jGisM9yWi/egMfW6AvYbwvc33SR6K1ZRXZ3RTLkLZw7W0VM1DiEG3rj7zc/MLXW6Njz7eXsZteqXx68xhuNluU0Lm+LesPI2K1t2hWLskmZ9erwfetiZT4rA/ISC/c7qHyK1luBkVd0WZ9eZTZ2yJgKxGmjIT3OoSCAFABAF0AXQBdCNhNRWdEwuJyA2d53BXKqXZNRiuZat8EYtyKvRvB7kyyDrOJPC5uu4xcb4UefU5bIv+I9l0NfTwMGwLLMYnxOQEuIkoCbBE4oCxhhsgHkAIAQAgBACAEAIDhCAakpWO2gICsrNHYJNrR5IDN4l7P4X9kWQGdqdCKmHOF7h4Am3lsWPZi02d0Uy9XkW19smQJBiEPbYHjxbqnzC1tuiUS7G0Z1erWx7uZyPHmjKWN7D321x8M/gtbbol0expmfXq1Uu5bE+nr4pOw9p8L2PkVrbcS6vuizOryap9skSVjl8EAIBmqqWRN1nuAHjv4DertNM7ZeGC3LdlsK14pPYqYnvqngkERtN2tO1x7yut0/To4y8Uucjm83Od78K7TY4TRl5DWjLeVtDXmvpsKYG7EA+3D2DcgHWUzRuQDwaAgOoAQAgBACAEAIAQAgBACAEAIBJaDuQDEtFG7a0ICrrNGIJNrB5IDPYh7PIXdkWR8+oKabQuqi/ZSut9km48isS3Bot7ooya8u6vtkQpaLEY9rWu8dX+RWDLRMd9G0ZcdWuXXYhSxYg7Ls+7Hn8VXDRsaL3e7KJ6pfLpyO0ejUj3a0gc93e/P/AGWyrphWtoLYwZ2Tm95Pc2OEaNOy1hYdyuFBsqCgbELAICagBACAEAIAQAgBACAEAIAQAgBACAEAIAQAgBACA4WhANugadoQDRoI/shAKZRsGwIB9rQNiA6gBACAEAIAQAgBAeRVemVc6YvbKWAOOrFqjVa2/ZIIz8f0QHp+CYgKmnjmb9dt3D7Lxk4ciCgJyA810k05mdI5lI4MY0kdKAHOkttIvkG92/0QFTR6YV0br9MXjeyQBwP6jkVIL/EfaGTE0QR2kI+cMnWbGe5o+t33NuCgGbdpVXk3+UPv4BoHlaykGgwb2gvaxwqm67gLxvjAaXu+y8bBxHkoBUYhppWyuu2To27mRAC3FxFypArDNNqyFw139Kz6zJAAbeDgLg8boDbY5jzzh/yqkO3UzcATGC7Vd1dmsDkoA/objLqumD5COka4xyWFrkZg23XBHO6AvUB57pDpnPDWlkRHRROa2RuqD0hFtfPaCMxl3ID0CN4cA5puCAQe8EXBQDGJVjYIXyu2Ma59u+wyHM5c0Bm9A8aqqsTGcgtaWahDQ2zjclottAFtueaAqZtLMRqHubS05aASD82ZHNI+0T1WnwsgESYljsY1nscQMyOhjflwYLoC20W01FS8QztDJDkxzew8/Zsc2nzugL3SSufT0kssdtZrercXAJIF7c0BnsD0vLaF09W7WeJHRRhoDXSnVa4CwyHazPd8QKb+l2J1L700eQPYjh6UcHvI+OSA2uO4/HRRB0ub3DqRNObnWzz3NHegMlFjmMVfXpo9Vm4tYwA/nl7XJAdbpXiNG8NrYdZp3loYT36r29U8PRAbrDa+OoibLE67XbNxB3gjcQgPLtPcK+T1Zc0dSa8rfB9+uPPP8wUgufZhiljJTOO352LjkHj90+agGi05xT5PSOsbPk+aZ3jWHWPJt+dkB5Th1G6eVkTNr3Bo8BvPAC55KQXenWFw0tQxkLdVphY45k3drObfPfYBAI0JwWOsqC2W+oxuu5oNi83AAuNgzPkgNNphonSspXywM6N0YDsnEh7bgEEE9xvdQDzlSD1ih0IomRBskeu+w15C5wJdbPVsch/5moB5tjtAKapkhBuGOs0naWkBwv42IUg23s8hE1DPC/NrnvZbuD42g29VAK72e1LqeskppMi7WZb+9iJ/TW+CA9AxSsEEMkrtjGOfbvIGQ5mw5oDyajwh89JU1brlzHtIP2jfWmJ5OaeRQG/0BxDpqJoJ60RMLuAzZ/lIHJAQPabiGpTshBzldd34bLH94t8igLfQzDvk9HG0iznjpX+8/MA8G6o5IC0qq2KIXlkYzu13hl/NARWaQURNhUw//M3+aAwXtDgZHURVEBF5AXFzCCOljLTrXG/MeSA1+l8mthsru+ON3m5pQGC0MwX5ZNqyX6GLrvaDa7nWAaO6+rme5qkHrMELY2hrGhrQLNa0aoA8AFAPM42f8TxVwfnG0uy/uIzYAe8SL+8UB6cxgaAAAAAAABYADYAEBGxXD46mJ0UguHDbva7c4eIKAwGgOImlnmglNm9YnwlY8MNuIP8AlCA1OnGE/KaR2qLvj+dj7zYdZvNt+YCA8swqudTzxzN2scHW+03Y4cwSOakF3p5jLamoAjdeONoDCNjnOAc4+g/KgLf2Y4VcvqXDZeKLjte70HNygEP2ofS4/wAFv8SRSB32W/t5vwx++gNhpj9An9w+oUA8aUg99CgHj2m/9oT8WfwmKQa32W/R5fxf/o1QCo04hdSYhHUsGTtWXjJGQHjmNX/EUBa+0fFm/JYo2G4nIk4xNAcPMlvkUBf6PYUIaJkDx2mHpQd7pLl4PnbkgMhoLKaWvlpHntazBfe+MktPNusfJAM4v/6hi4iGbGOER7ujju6TzOsPJAa7TTGnUdNeP9o89HGbX1MiS63gB5kIDL6N6IGsYKmrkede5a0O6zxftOcb5HuG5AaB2gdARbVePESn9ckBi9NdHYqEx9E5zhIJCQ+xLdXV3gD7XwUg3GlH9lP/AAovVigFf7Lox8mldvMpB4CNtv3igNmgPHNHMMlmqXwxzGF4El3AuBdqvALeqRx5IDVf0Orv+oP/AMUn/egD+h1d/wBQf/ik/wC9Adw/QJzZHPmqC64Ny1pDi4kEkucTff5oDcIDxrS/CvktU9gFmO+ci7tRx2cjccgpBVU8DpHtYwXc4hrR3uJsEB7fhNA2ngZC3YxoF/tO2uPM3PNQDzz2ofS4/wAFv8R6Ad9lo+fm/Db++gNhph9An/DPqEB40FIPfgoB47pv/aE/GP8AhMUg1vst+jy/i/8A5tUAn+0HD+mo3OA60REo90ZP+Bv+VAYXR2J9bV08cmbYmgcIY3F9jxJDeYUg9gUA840/gdTVsVVHkXWN93Sx2GfgWlo5FASPZhQEmWpdmSeiYTtJyc8/u/FAWPtKoHyUzZGC/ROLngboyLE8jbldAI0K0npzTshle2OSMBg1zqte0dktccr2tltQF/WY9SRN1nzxjwDw9x4NbclAeY6YYs+se2bUc2Hrx0+t9fVI13cbkeQG4qQb3Sj+yn/hRerFAIPsv+iSfjO/hxoDYoDzbS3D5aGsFbAOo52uTbJkhye133XXOfifBAanCtMKOdoJkbE76zJnBlj4OOThwQCsT0vooGkiVsjtzISJCTxGQ5lAMaHY7UVvSPlia2MEdC5t89t23J61ssxbagNKgKvHsDgrGBswN23LHsNnMJ22JByPcUBX6N6K01M7pW67n5hrpCDqbjqgAZ+KA0iApdJcAgrGAy6wcy+o9hAcAdoNwQRkNyAXo7gUNGwiLWJfYve8gudYZDIAWFzu3oCznia9pY8AtcC1zTsLSLEIDLUGhFJHPr3kdqEPax7gW32i9mgm3ieN0BrUBnNJNFqeqcJX67X5NLoyBrjdrAg5jvQFtg+FxUsQiiBDQSSSbuc47XOPegJcrA5pa4XBBDgdhByIQFRgWjVPRuc+HWJf1bvdrarL31W5bNm25yCAuUBXY5g0VZH0ct7AhzXMNnNcMsiQRsJQD2F4fHTRNiiFmtva5uSSbkk95JQEohAZfFdCKKS72tdGdpELg1pPuuBA5WQDWGaCUTbOd0kn3ZHjV8mgX5oC1xrRqnq2xtkDmiK+oIiGANNrtta1shs7kBPrKCOaEwvHUc3UIBtYbrHwsEAzgmERUcXRRXtrF7i83c5xAFzaw2ADkgLBAIlja5pa4AgggtcLgjuIO1AZbEtBaJ13N6SPfqxvGr5OBtyQBh2glE2zndJJv1ZHjV8mgX5oDUxRtaA1oAAFmtaLADuAGxAf/9k=;" vertex="1" parent="1">
          <mxGeometry x="954.5" y="1070" width="94" height="103.66" as="geometry" />
        </mxCell>
        <mxCell id="ZvJXKDiQZ_GDw80UsZBy-113" value="Private cloud" style="text;html=1;align=center;verticalAlign=middle;whiteSpace=wrap;rounded=0;" vertex="1" parent="1">
          <mxGeometry x="952" y="1182.97" width="100" height="30" as="geometry" />
        </mxCell>
        <mxCell id="ZvJXKDiQZ_GDw80UsZBy-114" value="" style="shape=image;verticalLabelPosition=bottom;labelBackgroundColor=default;verticalAlign=top;aspect=fixed;imageAspect=0;image=data:image/png,iVBORw0KGgoAAAANSUhEUgAAAQoAAAC+CAMAAAD6ObEsAAAAb1BMVEX///8ch8gAgMUAgsYAfsSVvd8ThccAfMTa5/MRhMfl8fnh7vfD3O70+PwnjctXoNM2lM2nyuYAdcG10+rw9/uBstpsqtdGmM+dxeOMu99lptVPnNHR5PK+2e3Z6fSy0el0rtl6stqWweHL4fGIttzVcYXpAAAGE0lEQVR4nO2aaXuqOhSFzdDQqIADVUFRRP//b7w7ICEEh97nVuy16/1wBIw0WezsiTMaAQAAAAAAAAAAAAAAAAAAAAAAAAAAAAAAAAAAAAAAAAAAAAAAAAAAAAAAAAAAvAHjV0/g15CFr57BLyGJ0ldP4ZewUxxGUXGQ/EwfJeRIpeLGaao/v0kyznRBnyfJ/3YUSSLBmJzQ0UqL7NWzeSV7phnTRoJQKyZPr57P68g5I+SODpd0qGavntDLKKUiJdTWHG/NIZ+/ekovYiVZZRRmW0wq+1DqTwbUcF2tnqm1OStFdSL+YkCdGIdZGUVuTiN2OZu8emKDk3NVr11F5nQvL1Lo7atnNjQbeVGCiY05TwVjrpE8Ypkv38R8No0RNI4yUvZC9I3f5wGX72E+ibYr56W5MLXSkJmUj28Qk58JkmdPcwgKbW1AV0ax0q0UjD9cYyKZ+pZkv57P1gaEqc5HiVCOFHr16AYboWKl1PNn+nTW7cLrYvTAmUuViN8jUvwk3qFiWTpGUVRXtqojxaNSZCcZHx2FLp4+1WfD2oXLvbkw7hoFXT7cvUEh9NF4WjnIdJ9I2i5cx9WVUnhSPChFZCWhUKJVLBx3MZ43qT+aEWFzT/ranC/T1G7E5XkVr8qhO0euCVycwoz53C1FDrzKPc7a2Ui7hXRZmN9nQdDeJgzkok7ewoVcTGiXciGP9XdzzjUhgq8fXusDstYE6kJstAt6UjB55wmtVRVHKVdvC5ZdoBto+ylmLGClxUf7K634tDoIOd09D5QQsgpfo1gqzUk/zfig/ZKTk0zJem6jme5JoW/39saSBZVQkdL2qY/PxJfhnDXdME8K1krBd0pG5aaorCKmWBTn4/Epk2zQluKs9ZnWvpO+FCy4GSlTcbGmA3mLq3+B1wrdlkIXwaa5PpfWS284C6b/YW3/jrlrFMvm6k72pLgdUJW69LrCgPF+7XbkulbKSOH4CuFIwfjRXqeNY2WJ9cWRD0CoHaNw6q5DXwt5o7dnguglFqy06s2cnEDzDuGOFMKGlnljYwbavYO9pvtywmanj1n2tLhUJz0ybRNzUsWvyRKurLGttL4hheOJ1oov20FKDZXC7p0F117ekvm5BRNXQ1sorbetUotN9+u1FraC6VqF6yuEXT3VyK4dRK4wTyV2/KPr0gz9MHK1tzfnitmTVDsnhg8yfnty2yraIsdUhrOWwXrubldCad+0lS/FVRcWKRXFDWvWrckoQ6lT+Yo7UthBU/P2xaYkmqmBpIicddbVucsn98WQ/chmtpiyMK+ip63ubJg7Ulh7M1JELmwQKTqlxpVXxXnPdfZ7e1+aaSfBpoU4NRl5VLfL9x0pTtLbYoPQ6c9cqvMuvTDCN/4QofT5c2ehLdfWZHOphOuKC1eK0XUpKHWVwzcGC9cvOlvaHeJX635vb8kvSXfDVtm0YCK9HUW1fBs06dtrUoTkHb7VYv9JOhnlraRu64URvztDK+82upftuigQHjvflcLJ4srrVmE21WAJZsPadYq3WnZh5LnOrvWQOXOvqyObgv4o/Fz9ZA2hSp6uS5H7tvR8lq5RqJvvMMbC6+2t3W/p0frpZUHew3zmAfPDMzkWFV2cx9YUHtekoOpNaRuQJ7MB8u7O477zHE6e6+y8LKOy3LfmXf1UKeFW2zJN03JeURlTSil2ZLLHPJKrSF2XYi8pBBdm/OQQS/l8KVLXId5t43qVmVu0GYvv5cUkT2YSbhoqDNwQ1NsooqtcBpKLyPjHq1KMpkIzIWVAw7R4vhSTgDsEd7u4Zdd1OgE1DmTQHx7IRZJ3+3lyUf+FMJZCK1pgFo54t6HnMN6aUWaYOD6/vZlMOtwZuc9Tz1u0AfXz87P/05CuJuafDs1v9mkWx1U7ly6G9jbes99vaNTqY/pb/p/LZDovZpystOssegH1rQlP82JNIvRUqAkevSx7D/bLNIuolhC9uvRWQH0/wkn+kUUB+W3S4QH33ez/m+Q0T8/n9OO7vMN/HwAAAAAAAAAAAAAAAAAAAAAAAAAAAAAAAAAAAAAAAAAAAAAAAAAAAAAAAAAAAPg5/gFSS0h0+tO0MwAAAABJRU5ErkJggg==;" vertex="1" parent="1">
          <mxGeometry x="1140" y="1073.66" width="140" height="100" as="geometry" />
        </mxCell>
        <mxCell id="ZvJXKDiQZ_GDw80UsZBy-116" value="Public cloud&lt;div&gt;&lt;br&gt;&lt;/div&gt;" style="text;html=1;align=center;verticalAlign=middle;whiteSpace=wrap;rounded=0;" vertex="1" parent="1">
          <mxGeometry x="1175" y="1190" width="100" height="30" as="geometry" />
        </mxCell>
        <mxCell id="ZvJXKDiQZ_GDw80UsZBy-117" value="" style="shape=image;verticalLabelPosition=bottom;labelBackgroundColor=default;verticalAlign=top;aspect=fixed;imageAspect=0;image=data:image/png,iVBORw0KGgoAAAANSUhEUgAAARwAAACxCAMAAAAh3/JWAAAAk1BMVEX///8dY+0AVuwAWewAWOze5fsAUuwNXu0YYe0AVOwFXOwAUew4cO6QqfTE0PlchvCzw/d2l/J6mvK3x/fW3vpvkvGtv/dnjfHy9f5jivH3+f4mZ+3L1vnt8f3j6fy9y/hBde+Cn/MxbO5NfO+JpPOZsPXJ1PnS2/qkuPYASutWgvCetPUva+4ARuuGovOOqPQAN+r9BYcGAAAPm0lEQVR4nO1d6WLyrBI2JLIk1rovcd+tte25/6s70QQYEsDYurzxy/NPlMg8GRgYhqFS+QfQJiMBp/Xs1vxjaLiOAGk+uzX/GEpyLCjJsaAkx4KSHAtKciwoybGgJMeCkhwLSnIsKMmxoPfBBIL+s1vzjyEcAITPbk2JEgXAtNGW2KYLxlFBNV3w30E7cAXYe1TQgAWn8bcHC7rPbu9D0YaGup8uOHHxHzblJTkWlORYUJJjwQ3JaTQe1OaH4XbkDNjZ2r0SbkfOO3GIM3lUux+Cm5EzZtH31Js+rOUPwM3ImdPTDyh6JXZuRU6Hxb+g/gst3NuYCLjDUwEDBSe2GqDAMy4fFoTzN39Y2++OXbMl0PyMCsawYK8r0III7XI3j2t9MTBlsu/h1zJZf0cjPVKVkFjLbuU4weDZzfkd6qOawPL0hmewoJkuOMUqtWHBIipogILjd/zcPiTH/3yegH/BDFEBcjZOsKCfKvDPptwDBSf6erAgCfVaUUAOXT1PwL+gDseGMznXz3N6sCAhZwnJcYLnCfgXPIYcVH2ehH/AvciZK+S442l7s+gO+93F56w4RN2LnCEckCN2kOvHc2rfZahbf57A1+Be5Pz4jhGUoFoh1Ode5MxAmY6foAhrinuRMwis5DiucVH2D+Fe5KgTnSzI0yS+AncjZ4Zs3Hi9p0l8Be5GTmVkUR26fJa8V2H2gQTwISpog4LgvFcOC0709WDBia19uuCMMTOTExTCWFUGVYDpDQqk7yY11QHAhehUd8RuZZzp4CKY8fuh+jlCpiGHBv9RvRlMqtvGz7vLfONo7B2LMd6csArw78AYQp7r+yRx/biInQujMmJkhiCnSGrzbhw184ACWH4VLzg9RlrFipIzm5Sbgc7Xi8V60xsXbhOie39yvII4KLJo3Z+cQiyjtHiz+F1ug6JuPUTY350cXNxAggtOqb+DFPhYfsfqWbgBgsLZKIkBvi83xd4nd+0eu78iKHRg1+GutpwU+7DafW15wUNz6t4duSmyqTohvOeIzIo7x4lRu9+I7BZ3cpxgc7dBhzrPlu3PqFp2Cf4GXCzvjRb34qbgZjzGnfoV9Yo+Gp8wubDn/0uw2bMFuwn+5kc24CU6VcW+cftbvIClSjC//VSnILvhOXB71WFF2p66gAuRRlfDfaVDw9PbGixS0Ih1A9a3nOvQ47PFuTFscVjXckMLekjGiOrNOhb1i+3g0mF/I4tFyetxU6k0b7KDRZxX61MxDjcYlP3aK6w2dZj/eY3lvVryCgBzjGMuUPz2bAnuieFftiKI+wKePxt+gt/Odyg6vOpwI1BHvxt4CGo/u+kPQHj4xYSH4ObLq02MGbkyuIDgw8t4by7jE10xIYyo6Ty7wY/FnuQbe6jLWoUOMvkd6sPAtfNDiRusXi6hW06E7T5Crj5W/xTOj/qN11xH5UWn11xi5vFD4XGcPmK41uz9h8ZgG6bjxudPq9sfDvvd1s9ne/wfHGVKlChRokSJEiVKlChRooSK7TwIHuq7nPRxsCxG/GjjtMNCgt3D/nDKyCmFRxEScYVJPMnjTnQnO8lFONA5SzYu2aM83zy3WxFyuPEkWg9LlFBNzhj7BdgsL8mxoCTHgpIcC0pyLCjJsaAkx4KSHAtKciwoybGgJMeCkhwLSnIsKMmxoCTHgpIcgUlnW6/vYEDRZXLC6m673VWvCx6edMbjXVUX6paHnN3W4iaMHr0dd6xBUdNxynUXyWBqT/KPbyvMkOd5COFjizu47eRMel2KETrX8Yf7fJ7N+qKGT0l+EWJstUl7GC+T03aRF+iTFHQ2KxbLwILlwuCkDw+BxxyxZTCQMkTtedN4PMMNQSArMyUu7p6r28ipH2CU6KnO/OKmwbTFPBA4SX3mqGmDLpETvrNTdT97ajj8dJgig4ebul2T46nNNMkdp8pwas8yfSblDWdPABH8PrWRM15m039TNLLSM+kH2Zhbn8FE6hfIafOgZrZNfbNhGhmCYUabe7FXnJzOc22X2RhpGqzhz3dUfziKBBtxM0OGnCHWB86yg7nnfmqoOdVxHanMVnIStTk37lv5Zkf1kfIkSOez4rfQYfg0BRi84DfzaV53tSFacjq+MeqaIMNZqfBgzM8JLtOxkdMG71nN/vZmPr/krVRbwRO1uGPPIAOVhwStp8Yor6+S07adjjZsyE0cWxQ74iOsmZzBAfZjZetmaEuLSohiukQWG+OZFTriv8153lAhp3fh5LjuDOL0wvkZtL5AToNBcilM/3tBBqpcNXc5xQ+dJz9Vz/HScwJ4XQVITkpvznVUyVkmcd1AvaFAUycIbeSoauP4BMibOouskYEB3dGSo7SHX8LbAsMY9ZG3ai5awxHOvmVATgdyE9nLWnex6M6x0oODtNGCORwie0nfm63uCiFAENpZyFHVxsEwNYoiA0HoLIOjyECJ1LMsOZEM826r1a/FMhDK/1P+xHd/+NsYNGppMy3JCeFFQngoysddaItSmURBZn+Klj3+ZWeNxFu3kDNYqWpD4ZDfVmRYc7s36UEZwH3VaXIIborHjZuYBe+xuQUZjGnq1pbtSNVVSQ54ODooQ92kK807rcFvwEvwR6rdW3M7Y+5WvdRoo9gpKEOqN2+PUgZPiJciB7fUqYdYQ8gcvWSZmSwtlAOagpyZLMaZg6pbT7DjAWsSynfIFuk61dG5FeinoicnUhvYEN9Ro2GkrP48M8P6lsyJqA2FHEpMARI7UdXXHf9XbJIgxxFyupq5+UR8TZEsXYg3GOhOnA0D1w24OqTJ6WFFmCBFrpTB1SXalrZDpIyD5JClcb0sMkgZ0hv1gO5wchp8VkSZduE7kC9S6Li8MRDrT+NN223xMJWciV1tgAy+Pgn5TJDHE3EDcujIyE2V1zPmmluAPpuQI+6qxem1DX+qYMLnRSLvpPutr6PUh+RcUBsow9zwvDduP0hSGZDDzG6Eb/4rbAxMOsohJCZHpGY1527e8NYgTp/oaXmuvwPkpNVmlG2nlMEop0jOx+LPkhzbVYV8jmHJii8T2yXk8EziFJmdW7wK56/DH8LyBBZycsimoaoN1qkd/4XFNSaUKxFBkKMaVBVT3mZs8ZoJ2pMn83TQNj+duGIxiSPkvSrfVeOcHIcocwmd2gBFtt0lwtlI1vGCHJvnl98baW2zuAUkfhIPn7Rni+fiJV1aLINzhc9WtWtItNb+mHubrAnad56iKbw51LfU+eFttmZwVHWSXwpiHP7O4Hc5Ja+Gz+OxrY6AlhzfED254IIeWhaIcelcRyhSZnQH6CdtRlZfNDeVsaBc2+xbA7xfxSLxtPX5epVJc/RR4gcx1hML+EPiyUcuRV7leqHfihbwi4jsPYTrFzn3hSn/lMOOV0zkOK7Wv3jMLJBtiFdvnByrUogZi7WtnI6YHG6skDUqeZIMk+cLbwVVpq6RgoEc6YCCMN/UqEMsAyfHelfCKPlXi0GrpB3sa8669SxEyMk5zxF2ibT2sU1AJUe6NLSz+Ovy88T6zsmx9pjfkMMvnbeTM7gVOTTYSHZ064PrLo3yzrPSXOTUkgbYLJqcpMT9lX/yrPnG+AwqNrCiW+W7yRaQ49amlY5cV/N1O4DtVsssYqdILnL4SG+/i62rdCSuR3Yt2CYTC/8sjToCXYQghwZnkziTvoHssvWavN0UxyvhXOQ0udjWSb1o2Nla8Kt27IJy/Uoo5O9eO6RmwMmhtaTrfsqBJUgrLN+Dcgi6CJYYhFzkfCYikKy2SvAeknS+1EcD+PtMOh93H+t9HGlUM71Q+ohpeqXDrSdZVDsXIEbJXORw5bcepRL/Pow/c503bdydMOWqEmubUNF8g47GTfouVlnQUX4C1+RrrrvPRY5YJ3mWtHx86s8nKUMxXzfXaflqi9MLUTt0DvYacOcqPxZuNNvLSiEXOWKKbLlXQbipuD4LQc3uB3FrCBdPFOQ6X6YjJ5RWiahvhfdg+2JPQT5yuOlJrIoGooOIyZBQN/2MFbbXwbybC1emxfMmoN23mkgPvZrNX8jg5T7Yl48cOb/MWIEEYukiTbe4Pdngs6388ObKlzkT1tk+4TxDv6kHNhIRHLrkZWw47wHmnOSIPPuUaZ+8Ej4zV7ZdtFLvYpEpxpH0JQnBiHaoCvdNEUlm2g4GW9DKjpC8K8DVGsPx2zo1pOYkJxThKZRldSeUCZ+hzoqphYM0HqY38SahlrTFrNdfZaecY+YSwvjSyRRIsJEz5wAse4EMnmY1fGC+j0bKit5MTnvoOEPxlvbiDylO60FdRuAoly+AHUZ3nnpZg4MMZ4ESgJksIZmosnjL013YyYHTHThj2ou/BEE+CZL9QrAXbCFncMSb8fbtQ2Q3B9nAfQqXBB2YkFa9CacnXyENFmCIHfwAj7i6CwPvvWLvkLbZiMuML5AD9mcpBfoHZHAd2IUmTb47jXUhKGlyEgrDJTc1AyUcCDXb1UEYTrebI4wHQylDAIICHIJX+90kDCed3juMKySpoRdGLBBW24wjUsNpfU3k/nGiDpbILjDdAY+HMlDXbc2mEXODzv4gX5ULOTOQs2CV3ZF5/TD84AqohJOcEmEyzJin+JCy26xHZcvEj+pghly1MO24g3Ei0ddeVAczNWplcImcEPgvwP71LitD1B4og+K4NJATUTL7qkyi4aUl1kazS9d7aLbRw0ueAqpxQQ4vpP7lA7gtJnAqFdoF7nFrEN4JAXxVenKmH+NK/WNQDWaV9pf4+cyeKt0dZttYGVjD+yLl1llVe8Z6+tG5TA5UEjgQtu0yIGX805NT/dhV6mj50Y8Y+ZBc7vTxpnGTsX7/Ipxb9MA/6oNtF5bbc6nYerfHIbdlYAic1o/1cb8xmDrl0JMTfvUq9ahbfc0qmw9QPqmZJCXZCBwhqfFlMeP1gG1sUjj3aIiyyEBMd1SX0mRpliHlIuPkBKniY2X2v8hmNSu+6qzaaFttjbeu7Ea65lCXWHZtJgetlhIYfcpXbyZnI7/HJu0A2WgDwClbpddzfI8v5SOYfn1Xop49nTY/UjUGrSC1y0EJm19wA+xJOsqZut4Fn812zlJBpNQPukpr4pkCDUze24Mhv86kqZGhlg2UScYtN62Z9a/DLgx3q6+svyHc17DrnxtOCXGZu8iRMGc2xCiqEyGq5Hu5MoV3Wl5S5xTX6+LRJiVlGM1HHfJh3uVfulFNXYjY4HMZy3B+tou8llaGnyD62ptnyqf9rwhdvedgUN80D/PafNVfN3Ln6NrtF+/zZW3+3tqP8x65qva+h/PlqLbqvs10Tdmsal1bAz5X867h1U1mm+4hao9VhvpwudJ7OCZJc/4PJi4L/pVlIFUAAAAASUVORK5CYII=;" vertex="1" parent="1">
          <mxGeometry x="1170" y="986.49" width="110" height="68.56" as="geometry" />
        </mxCell>
        <mxCell id="ZvJXKDiQZ_GDw80UsZBy-118" style="edgeStyle=orthogonalEdgeStyle;rounded=0;orthogonalLoop=1;jettySize=auto;html=1;entryX=0.555;entryY=0.025;entryDx=0;entryDy=0;entryPerimeter=0;" edge="1" parent="1" source="ZvJXKDiQZ_GDw80UsZBy-117" target="ZvJXKDiQZ_GDw80UsZBy-114">
          <mxGeometry relative="1" as="geometry" />
        </mxCell>
        <mxCell id="ZvJXKDiQZ_GDw80UsZBy-120" style="edgeStyle=orthogonalEdgeStyle;rounded=0;orthogonalLoop=1;jettySize=auto;html=1;entryX=0.5;entryY=0;entryDx=0;entryDy=0;" edge="1" parent="1" source="ZvJXKDiQZ_GDw80UsZBy-119" target="ZvJXKDiQZ_GDw80UsZBy-117">
          <mxGeometry relative="1" as="geometry" />
        </mxCell>
        <mxCell id="ZvJXKDiQZ_GDw80UsZBy-119" value="" style="shape=image;verticalLabelPosition=bottom;labelBackgroundColor=default;verticalAlign=top;aspect=fixed;imageAspect=0;image=data:image/png,iVBORw0KGgoAAAANSUhEUgAAAVMAAACUCAMAAAAZDzr+AAABsFBMVEX////nUiwAAAD//v////38///nUyroUSxPT0/vWij8/PzyopRVVVVSUlL///xMTEznSR3W1tb6187h4eHnSyP09PTwg2jiShv5vA/x8fFZWVn++ff6uRHLy8tra2vrSxu/v798fHwjIyOnp6fFxcVGRkb8sRNoaGhzc3OVlZW1tbU1NTUfHx/d3d2BgYHybCP1kRsXFxfwknr2hRvzjh2srKyQkJArKyv0Yyb1ghwRERHzdSD1mRY9PT3+7uzxpY73var6y73/8ub3nRf4pxf81s75xQD/8ev6x7n3s6bzjnzsgWLoZ0DlWyzqdk3xlonlVQb53snvXD/xkXHvfGT5TRfmXTvyiF3tnoTiZ0f1up7xel381dH4zrj/6fD6ZULsPhT3nnv3Vx7kkIbzcT3xq6Luc13nMwD3oIvubzT2xKT31sHwnmz3s5TzYATrejbyk1fwcATzpHHzgS/8wcH2u5PzjUX5p2T806/0fQD5xZL1t3j3mjbqokX526z2wWXzrUP+7Mr90I35rT/02Z724rj6owD+0oH2uzr6xYn6zWz32pH87K/63Gz4zED64oUO9/LBAAAXhUlEQVR4nO2diV/bxrbHx8iSjLDlTca1FSM7tuOFpYHUQFgMiFCHgElYSkoCeQmvTXPDTVKatmle04U2223Te//ld85IsiXbLE1qi/Tq9/k0yKORPf7qzJlzZkYuIY4cOXLkyJEjR44cOXLkyJEjR44cOXLkyJGjtoghrFsTy9rdlr+RGEaWBQbg1qC63Xa254RioJEsw4h2t0MXWCWDAMVK6PJiz5Urvb3rV0Z6ZvfKMp5Ew7W7hSeRyMpllhVPTVvBJuWFnqXlqAIKBCQpEICD6srVr8uiKL4fTFl1/doM2MYpaSwrrs4sA8ooz/MuzhAvKYq0tn45Qk5LOw8X9PnV5d1uZV1loWPZ3RgwQvnyRjUg8S4X53IBVT7K8YDURflKkrS1WLG5kcdLFNVlhevu/qRXFu3v/iyZ24hGJbRQjelaYGNFQaaaeF6KbvaU7W7mMWLE69e6Qbu7PXb3Kvj01aVAgK9KlB8yde1+qm5FzUyhXNkKiXa39WgtKt2axit2B4HyDSlKfafLUOCmuC3x2PPrZbxLur1eJvZ3qpbCVlWWP9GZXrtjZcp0ujnlXiUKvtPEj+e2yTb6VjNTLFfWdjrdupNJFGGwX9ztNux0bXbhFkTXwLocCoXYzuYuDLuwGdV7t6FqYJ0lZanW801SlAcM0/G7frzcohh6sNJd0/iu8j+9s7Kw3fvZ+O7uQoc91hwX5XgrU06ZhVD1ZoCr+dK6pfJfXJXt9lUoGNjrxscQca4XhqZuq659trKr4JC1TjqYWTFkVoq6+AZyPB+Cc4u36Qtpc9lksBiv9sq2B38ELbM8N7vY03Njp8yIISDafah2/6F2smWzUXSbLms359cgFmXLmzRalWaXotb+H+hV7U+o5cu91V3QJ7vXqtfvVKOHE0WFOtiyWUVyWZhSwhIyJeJIAF4ERsqb0TUz0iqUyR1sY2stXjuaolUdi6zdZCEqWYyUW7m8CSXSMjJlF25L1Sq/XXY1jlWcMkPsHqgWD+3ru7pMRdXOZSuVakPH51zlORiwAssyTp7KWwFO2mAqm41M19aUWZxi7VhDW+gQprvda1vrM6BP15er9VErRMRODKwMkZcUroGpFCL/G3AFNnAWyk1mFP72LJGXG/wpQOWkbWLvTNWNFkx3P/nszuVbMrbLTRj51uVPVxSliic2y2wnhgCWfB7gKU4TUy7EbkuuwFWNV6gqSWVRXA/wjVBd0bs2T1Pc31UakSpLOyprzEqyhIFgS935jNbbXS53orXu7U2pamXKS9WKKG9FAze0GWgw5LuMm8wGpCamrsDnoq0R1WqTjS4vQOCPos2Cb4DHrHx/GUez3d5O+H9xKeAy7NSYLJGWoEVXA1yIaGsl925fBR9R2WzBlOdVW0N/ebmBaW8ZJ9UZKq2KdshWPv2ku5v/pBNJ9RzO7DUwDSyCI5r9YgNxwX0ms7cXWchR7gWambqUdVvHKPe6qe/jPLQMwxBLMZqSe5Z1M9p4tvtZmWlvg1m3fNcaRlF3ym8D09AXn+M6GUJdCGxj5RDXIvWXotvgvNrayqMk7pj9KeZ2rR0mBjBkZnx8fHfRLba1/7PkctNgjl2fgXsZgjEdmcLdDrkQsrulofKBq4ydTMsr3d3jhlYqpjDEEo9QpmCp4+NtT1CZjSYfybmkWZxoDI2wlClADW1WaBh6a6uFR+VcIda+wN9N7j+sMX24R0zrunhkeFWRblNgmJ5r49dm29sidpVvio+4aFWFhjCRGPJk0WTLdyvaIvRiC6au6Kc2jlJuRr5uIL32T+hLdeNkK3MPPh258+DGXpnRDFVg5fVr4zfbbAEzzb2Zi14R0eVQUMiUZSvrIt2RQtS15hDVJW3ZOPTDQLT38ENN/wi5jfEHikN3Hj3UdO3R9TmGaPtpyv/4cHy1jf2KYeUtztVECbo+jPX1rSduVp4Rad9nxDvRZqh8YK5tTTxOMKCzDwymd4horI6w8p2HRjHo4YfXQ9QtMOTB/of328mUhKKNyyI4w6eShlCEhBjdT821YOoKjNjmT4GpeH1SJ7cDt5+2xM2Wr5uIosYf3pBpYFh+tH+HtK9fQVqqNDOV7jJNa2ECow+nzZNT6FCXbZzyd6sfTo5TbI+MmUcWkSLohw/3NWudnJz8cPJLlcX+N/vwyzbmp2yLUR8I0Qk8lrXO4mn7+4iwFag2XsB1V+0b+UXyHUU2Obn/oNYG8auHWPDowf2dnQdfTu5PahW+pNDLjx6rQtvaw4aWWy3f7YnY8Q9huqE0XcJzytc2bqb8ZlJHVss6xfuU4g2V4EKpu/LVvoZ9/3s60/fNpNpGC9irtvCO0dYLDFrQTFpNTrmUGduYMsxXOtPJWixfeXRxcvLigbYDzU1Yce+xZqr796GZ4ur+ahsbdLmFmfK8yhxBaL1Vzh9Y78hUb7NgIF99DPxA+99WjLIdJLjqZvWXkLqo31Ko+4/Rpar7e21s0uetck3uyLvY0k6lu2Wb7FT+5uLkRcr04hNZy0ZF9p9A7ys3K9A9dSiGXX168TGCv4FZwV471yZb5u/RVfaIRaYlpUWAKm2W7Rmj1C+fGkz3nzB6hi8/hgIwSPALegQImcB3T7HShccQoTDtHFCZkZYdee4IpsLd5nEf3MWmHVv9GKI+o6Q0fWVsNVfBIp8wLI3w9aDJTcRvL2Clp98B+KNs5p0b1ZJpdOaIflxuOS8tVct2TKKq3wLSC7qePjHyUvXZhaffNC6Tsf9H8T990uY2HcL05hGr9q2mBm1iKorfP71Q18UfZM362Apl2vDggXhA6V981uaZvgamHN3F6+L4ucO2arHiuqR1duvmKTuYsmTvwkdA6SNNFy78oFKOLCs/u3Dh+0ampPIt1IXabWYqjihmMq4qPhDBr0lXxMNCoxAEtLwkKQq/ad6rxtngTym6j0w6f4Dz5njqydOPnqmN+w6AKa3WUabcSGhxZIUDrsoc22p5wc2IS4okSWtbV2ZCO1WbmZIX5z+y6Ol3dPUMSP749Pz574j16Sim8oyCP9/uWf57ZqbSMgR48urOvd7q1ra7xdDIkMUo4NwrV+DcjMXEN2+1uaUt9NNTRGQIjn8QdabyD+fPg6FavgGrTtF6U+1magUTuIyfDTlUZXu1JVN5LkRzFTinbpoGqyrcjs7Hp6vPzls1dUD0EHX1/Hl0rwwDwag+x8auGkzbnJ0sWsYo6SZ4eVFb1WvFlGVFVlveAYs1p1OctGRHblqDirSmpqbOfw/RFF12Yn+Esl+fQ7okHvyoRzHfT2EVqNTmpi5w5uG7Gn1AJ3nd7tafCpwFasgsqy5bwtRATxtneQ9X5ckUAp3SNT+1pz1zLLLsj1g8//PPP0+B9aLkXzWmU+dfie18ZpZdXbYkmtxahZj2bxxyEUi8Z81Qb892/okOmhz9cmnKpPlnFYYyBVNV//XrPFCe/2FVxGiA/W5+HipQrbb1OWT5rnliincpvTJhjrU4N66gmC/EbYA2zUmrPwEkYIdWCkffi/o8rygQ9WB19WBVxB4kipVf5+d1pPM/tXPXnEjuWWeZeJzjP/Yqd2VN4s07UritMmnfzPkRQielPv/pVx3W/KWX/4fpPC6RGKYoYuLPuH+Zr+vSgbt981Ii2bltZSpFvxbl41TekngzUy5whbEFKRVDRPWXl5fmL1G9fIVLpyyd39ew4rY+8vzlpZrmX75o6yM95c3GRVO+91htaTusalQ5GoTZJLpRRn1dZ/ZThRGtTN3kRZ3opZcvLx20t0lXG2dRuKghSYo2iZbR22Bmumz3Q73MgQaLMvv1R4gHNZdJt/MQ+ZXB89y5Sy8v/dLuqH+uccmOx59AOFrRhkukEbsf6WGY58hLB/fy5+cHbG1cUF+8fmmcuvTbv35s+54ZVm7YVSYt9xyrjQam3E4nH49rJTcjvjpn1uvfnh+oqqwevHj1ulZ46dwLIrJt3yrvJouKJSwKnGCD1qJlDpWTNkT7Hzxn5NfnGvX69Zlz586YCl4R3JHe9qiPvWXNiKSNYx8jc1v3rXGSfbulTDo4c+4MSqMHf89o/2oF9N+fZIgDO8C00epOwLRhL2DgpmxXwG8S8+acwa+VEPbrzj1sqt6MvgVTfdTnIZAKnYrfR3qumenh+q1ze7rc7GXJNJMiLR0fvS/WmWK8z4qngenvZz448wEVHOhHNQHS/3RwGHWzzFWlPmcvbS2EQgvwX2stwKntqxJX290nudRTw7QOsBEqvDzo7POG5RXTMAXpKcag0hHiq7WfTOECs9rutM619hCZmH7QrDMfH3Q2NmEXpFo4ZSTyktJCAYnjqlUwUt5gKs2I7qYVSlv05swHHyO9jz/++M2bPz42Cwo/+Hd7n99pkshCkGrN+/mtO+sjTboZsP7aDKdsUC91GqAe6AD//R981hSi/Tdvfv+9zvZ3Yv4dx/YLsuN71vkpV3TELePktABi9AOW/brhV5Gid1Wip9Wda21rseIfaKZ/vFEZgq3VStV/G0wxjurofk6AOnLbaqfLZaZJ5KpiqSRtljEydXe2sYeIVQ8OVJFoj5e4tcdkWPZAs9QPfsdNyp29825RGPnCwkvZY5tU3rKkB9HlECvQrXOngSnedDd9wNwsIv4HTfUP/HGfjjNl5XXLElO0F0NkM1HGmnHxAej4gkifRz0NTA8Tq7549ZtKGPqsdKc/XOyxuFSlh+CmA6aONFQ1/VKSpPTeOg1+9FhRljBqsawNvzHGkrlNUyLfLfXUlp6xRWShytWZStKMfCrGpmPF0Lko/Aad70y4LlYZiUJAr4VJHKcslQnt2Hh/1c+5gEvb+lfl+OjWHD31nvy6NIp2tk5/KPXos5tKbRa/GuVH5soQUsnlvQf4g506Uz7QfbVsPIbyPpgqlV1MIddQZ6qKZNijFJDWbvb2Lq1wisTpTPmotBES3cz7xtRWhe5t3pborl38RTlOy/Dx5z1wsAfK63MyOS2R/vsh3ApXnr2pKJKeMPF1SQFlcyYkE1Z0TPTPCTN4IbTYuxxFC41GOYozqiiumz0LKo1JOtnthVgYFOnAJ7VfshpavNd7d2tra3lrZeXm+oPL2v/0gEKlu/g6wTQ46h/oAk0PJdr+WW2XSKNkIujbeRj8nTuGZn4s0R87aj/TwVxXXdk/STWSKKRSqXz+72Hif5XSXVYNnXxTlkBKZ7WLvG1s4HsnoU+Dcjabi/frpjp44qsLxo34G/iMv055iiSXicGxkEjRV5mTXpwwkHrt23B4+kQ7/tm6lYXBt6ZPfLUHLh5IhgeDsXa07T1VEJH6LUQKQye+OjYBV5/cUfyXCEf8/rc2MrwjfX9lc/4OCh41vAiQBAj03/Cghj2SKKbTyTA9NShol+cxWRjUI6lYppguJWNYYTCMLpbWiyWKSbzKrHCxlC4GoQpc/vdyHKMAJXXYyfDwwNlYYXoY1FWCsCkyqsUFw/lweGK4K6nfkoHhgYGuUbwgNjRGKwykwuGu4a4gvMXYRFcwTUsn8iaqCd8ErTldIhB25Nv+PTsp/1FR0CCOXtqwPhYRSGKsFsFOlOA4qTOlQqaZgdrLgdIEfeMwXF8vNcKJyFA9GE6lOsdUSKbT4eOrvZvC8H3HDo2CwvVvXgBiDZmBlSmMa6XGCjpTawl+tXhDxUN7iq5IgiqTeEcnIeSz2eS7vcXxQkuMG8ejBU3635jBNJsaGjJejPUVhvxWpv5SGhTU+Y7lC0PTTUzj6bQX//ZTt6tFxL7RQt/wyZgGfR5NueRbftFgBuNvIeX3tD03MY/bjWYW1DGm0Y4ZhtrWKE0MkmNmpjoQIUvtGStEkg1Mi7X3xyNq8NMJXAgMp07GNK7J58uePHQ2K9LnmQ7awLRoRToR1pjilxAELWHSvpBbJ5W0XJ+pwcP3HTAzLRD6pBymsR7460OkEcLUCk/A1Nc3CNFF2uf1v5U/FFLeLEYrKY+vI0yNvp/smhjWNIAghjWmZ3UXhqNKTn+IUCDJZqZ9lI3hm0smpsM6hhi+nVvzEcFaE7InYurpo15jyJctkVixGCSJUoyGdkXNx0JZggziCSxM6o0OZ4pFGvIVc15fOhmhdiokixn9fDBZpCEeFBUROVSnHTFYLDaGfidXDL7yWT20FGKGImiU0wJl6tMxTlNGxsI9fZk0MxX6LaQiY3Wm/UbsCmVntfuRqzeheEKmFEPR40+TYDY7ms6C3QX7/H6/J4fRRNCfHUp6sn5PKZbK+v25Qbi7QikOJd5RgRSm43GvPxsEpt7SEJynYV1sFMr8cehbsb4sznBGcvRPOOWDKvH0205eertaxVIF7WuH61YcQXszjbr5RqZ4d8ZMrci1YArHAwKdYCiYeP0ZpgUPONSgL57z+OPCYNzjief8Hn8Ca3jj2Vzc543nsn1erycFppDO+rJ9cV+2QNI5YJrLhUnKH/d5+nxx/xA6gqzX2+f1AcZI3uNFpnBlkMTyHvgAn/ctXbdGryk6FCY019jAdMzEdKiRKUZl06aorK8107MaU1Nzw8Mn86cR7Jtxnz9IBmGwSiUzQsrnKwhCyYe8kWlGCOcA3SBJeOMe8FxebzxBwtDrw0IkDxcKAtipD4bZjNcXD5Ni1tsXJkmfJy/E8j6dKbjbhMeXDwsZf9YXPKZZhyhsdW6aEPRAzMJUwL5scjG5VnY6YILuOdROGzp74kR26o2nhlIpMJ6CAHbqy8VoIf4R+rwwlgP1PIykBY8nTRigDbZbzPoK4AEKfl8SAlOvvz7uC0iYDHl9SUGAiMAbNpjm0U4TwB2MI5NMvm00jMFMv9Vz0CEem2NiSuIW64o1j1Ee07CvBb6HME1ow76hI7NjE1N/NgvOEQO7oBf4EbQwOoEGHEuUKbxn2gdMCTLNAMx4Lp/PQ2cv6hQpU/C+whC8iuS83rx2PgxmHNeYgm1Ghvz+VDHxDktBYeznntodgbYmMBAH12hlitYFnV8fpPLNTNG4+2udv+9wppF+s0MNnzCWymEakhzEFiJTeMuMzzOK7Un7gWMjUw9lGvdC/4/7LEwTNaYY8eL5ODL11piSWLrP35/NvfUYpYelZzMGDUFbnApiTGpmioN2bZ5VWzCxMBWo6ca1CoKWz7f2p9rVJa1s8OzJmHr66r7aYOoBO4XS0RZ26qFMvWm6vh6ONPZ9naknQU+Du0156kxxqmwwmfJMD719JjxKv3+8FI5EYsG0lleWAKmVqRZxjqXDsVhST9etTLUFg2msUPR1HcZ0AN6Whl1d+UwsFixoyekJmObqX1BnCn+gUBByXn+iFdOi31ubXMcxKmxlSlJef8k4DRdQP4tMi6OjYY3viVeQmmUs042NGTNI+mehXzCYCnqW3jUwoVdq6Pt6f++aqFdowXQYzU2feZmoTVi9FVPIjTyFcAxyq3zMwpTRmIa9cV8arLBY0jxsMSaYmCZIMhv3wn0dLAC6AvjmcKzoRaalbBaOE+AXkm/PlGTOdpnVbwSsZqZEG84M+QaamUbMuwS8A4f2fXDZE/WKZ6f/NNO4F8coMggI4nGPz6PFp8i0ZPKnAAcuy8X9YKFMAWJRiLLMTIUhP1h6Lj6dwlACHGvOB6EYxKcQCcThyD/0TjsWIoX61Oh0uua5cPD2mKoVjVoTo+gWihpTU05UMioMp8O6nU7UEzXqcbXjWA1/Npw/fvkl6MmamWazOfo2QfCSWW8eTQDyKCxLZ6cL2G+z09hvizkf5lk4rxNO+f3ZJM71ZeiUH9pNrIDBRDwPERUpwjv5iiUtj4L8CvKo0XfdBBLLjOY8Hk++kDDF7TEINQrmWpFi3t8/nUtDQA2ncBof/pjTjVgJmgsVYvTaMM785/Oj+lsKcFzbjhEsxPv7/UNJ4NCXL5GjFUsmTbENvNKH1EgwkwxGTGWDSRoaZPSVmlgimdRXdCMZfIsEPSEkkjSvJ+FMJkNXfWDswDNhjEm1t8n8JXPX+IjW8bUiEa0Nh1eIRYQjK9Q+T3sr7fgE7fvv1Vts7XKAOnLkyJEjR44cOXLkyJEjR44cOXLkyJEjR44cOXLkyJEjR44cvUf6f+pol2uiruJHAAAAAElFTkSuQmCC;" vertex="1" parent="1">
          <mxGeometry x="1155.5" y="909.3199999999999" width="139" height="60.68" as="geometry" />
        </mxCell>
        <mxCell id="ZvJXKDiQZ_GDw80UsZBy-122" value="CLOUD ENGINNER&lt;br&gt;Telco Cloud&amp;nbsp;&lt;br&gt;Devops&amp;nbsp;&lt;br&gt;CICD&amp;nbsp;" style="text;html=1;align=center;verticalAlign=middle;whiteSpace=wrap;rounded=0;" vertex="1" parent="1">
          <mxGeometry x="1030" y="1015.66" width="170" height="30" as="geometry" />
        </mxCell>
      </root>
    </mxGraphModel>
  </diagram>
</mxfile>
